<?xml version="1.0" encoding="utf-8"?>
<svg width="350" zoomAndPan="magnify" viewBox="0 0 262.5 149.999998" height="200" preserveAspectRatio="xMidYMid meet" version="1.0" xmlns="http://www.w3.org/2000/svg">
  <defs>
    <g/>
    <clipPath id="fed44b1f66">
      <path d="M 74.574219 1.523438 L 177.40625 1.523438 L 177.40625 104.355469 L 74.574219 104.355469 Z M 74.574219 1.523438 " clip-rule="nonzero"/>
    </clipPath>
  </defs>
  <path d="M 129.606 39.332 L 122.848 55.839 L 103.496 58.066 L 117.996 69.379 L 112.633 88.246 L 129.219 77.339 L 145.27 89.394 L 140.762 69.355 L 156.02 58.296 L 136.516 55.968 L 129.606 39.332 Z M 129.606 39.332" fill-opacity="1" fill-rule="nonzero" fill="#00025d"/>
  <g clip-path="url(#fed44b1f66)" transform="matrix(1, 0, 0, 1, 3.761881, 19.003529)">
    <path d="M 126.003906 1.535156 C 97.660156 1.535156 74.597656 24.597656 74.597656 52.941406 C 74.597656 81.269531 97.660156 104.332031 126.003906 104.332031 C 154.332031 104.332031 177.394531 81.269531 177.394531 52.941406 C 177.394531 24.597656 154.332031 1.535156 126.003906 1.535156 Z M 161.875 84.058594 C 161.875 84.058594 166.875 73.617188 167.871094 65.484375 C 163.496094 73.382812 155.734375 80.066406 155.734375 80.066406 L 142.453125 71.539062 L 145.070312 87.820312 C 140.769531 90.4375 126.378906 94.835938 126.378906 94.835938 C 126.378906 94.835938 138.621094 96.960938 144.222656 95.582031 C 144.097656 97.710938 142.5625 100.167969 141.875 101.175781 C 136.886719 102.820312 131.542969 103.71875 126.003906 103.71875 C 119.675781 103.71875 113.605469 102.550781 108.015625 100.425781 L 104.773438 94.980469 C 104.773438 94.980469 110.578125 95.476562 113.371094 95.464844 C 116.167969 95.449219 123.761719 94.898438 123.761719 94.898438 C 123.761719 94.898438 107.917969 89.835938 105.460938 87.378906 L 107.070312 71.097656 L 94.167969 79.390625 C 91.332031 77.167969 84.339844 67.179688 82.570312 64.488281 C 82.878906 69.253906 86.652344 80.238281 88.1875 82.304688 C 88.1875 82.304688 87.4375 82.84375 85.359375 83.359375 C 78.996094 74.882812 75.210938 64.339844 75.210938 52.941406 C 75.210938 51.390625 75.285156 49.855469 75.421875 48.34375 C 75.800781 47.621094 76.378906 46.648438 76.957031 46.207031 C 76.957031 46.207031 76.957031 52.878906 81.492188 61.332031 C 81.332031 51.355469 82.253906 42.59375 82.253906 42.59375 C 84.871094 40.984375 88.53125 39.523438 97.019531 37.988281 L 87.09375 29.488281 C 87.09375 29.488281 93.078125 18.871094 98.148438 14.03125 C 90.53125 18.085938 86.515625 22.015625 84.179688 25.703125 L 83.765625 24.769531 C 90.925781 14.066406 102.03125 6.230469 114.992188 3.355469 L 115.867188 3.589844 C 115.867188 3.589844 104.90625 7.507812 100.816406 12.496094 C 105.902344 9.855469 119.195312 6.660156 119.195312 6.660156 L 125.511719 18.121094 L 131.578125 7.484375 C 131.578125 7.484375 142.144531 9.117188 150.203125 13.183594 C 147.21875 9.804688 136.234375 3.847656 136.234375 3.847656 L 138.3125 3.664062 C 150.734375 6.769531 161.371094 14.472656 168.289062 24.855469 L 168.386719 27.449219 C 168.386719 27.449219 158.449219 15.972656 152.921875 14.4375 C 158.65625 20.320312 163.976562 30.003906 163.976562 30.003906 L 153.644531 39.21875 L 167.96875 43.113281 C 167.96875 43.113281 170.425781 54.671875 168.890625 63.273438 C 172.269531 58.664062 174.320312 46.28125 174.320312 46.28125 L 176.621094 48.910156 C 176.730469 50.238281 176.777344 51.589844 176.777344 52.941406 C 176.777344 64.832031 172.664062 75.804688 165.769531 84.464844 Z M 161.875 84.058594 " fill-opacity="1" fill-rule="nonzero" fill="#00025d"/>
  </g>
  <g fill="#7ed957" fill-opacity="1" transform="matrix(1, 0, 0, 1, 3.761881, 19.003529)">
    <g transform="translate(26.863131, 84.736304)">
      <g>
        <path d="M 0.691406 0 L 23.929688 0 L 23.929688 -40.269531 L 13 -40.269531 L 13 -12.425781 L 11.621094 -12.425781 L 11.621094 -18.464844 L 0.691406 -18.464844 Z M 0.691406 0 "/>
      </g>
    </g>
  </g>
  <g fill="#7ed957" fill-opacity="1" transform="matrix(1, 0, 0, 1, 3.761881, 19.003529)">
    <g transform="translate(51.484466, 84.736304)">
      <g>
        <path d="M 0.691406 -40.269531 L 0.691406 0 L 23.929688 0 L 23.929688 -40.269531 Z M 13 -12.425781 L 11.621094 -12.425781 L 11.621094 -27.324219 L 13 -27.324219 Z M 13 -12.425781 "/>
      </g>
    </g>
  </g>
  <g fill="#7ed957" fill-opacity="1" transform="matrix(1, 0, 0, 1, 3.761881, 19.003529)">
    <g transform="translate(76.105801, 84.736304)">
      <g>
        <path d="M 11.621094 -27.785156 L 23.929688 -27.785156 L 23.929688 -40.269531 L 0.691406 -40.269531 L 0.691406 0 L 23.929688 0 L 23.929688 -26.40625 L 13 -26.40625 L 13 -12.425781 L 11.621094 -12.425781 Z M 11.621094 -27.785156 "/>
      </g>
    </g>
  </g>
  <g fill="#7ed957" fill-opacity="1" transform="matrix(1, 0, 0, 1, 3.761881, 19.003529)">
    <g transform="translate(100.727136, 84.736304)">
      <g>
        <path d="M 0.691406 -40.269531 L 0.691406 0 L 11.621094 0 L 11.621094 -11.332031 L 13 -11.332031 L 13 0 L 23.929688 0 L 23.929688 -40.269531 Z M 13 -19.617188 L 11.621094 -19.617188 L 11.621094 -27.324219 L 13 -27.324219 Z M 13 -19.617188 "/>
      </g>
    </g>
  </g>
  <path stroke-linecap="butt" fill="none" stroke-linejoin="miter" d="M 29.176 101.605 L 52.422 101.605 L 52.422 61.339 L 41.496 61.339 L 41.496 89.175 L 40.106 89.175 L 40.106 83.136 L 29.176 83.136 L 29.176 101.605 Z M 53.797 61.339 L 53.797 101.605 L 77.043 101.605 L 77.043 61.339 L 53.797 61.339 Z M 66.117 89.175 L 64.727 89.175 L 64.727 74.273 L 66.117 74.273 L 66.117 89.175 Z M 89.348 73.824 L 101.664 73.824 L 101.664 61.339 L 78.422 61.339 L 78.422 101.605 L 101.664 101.605 L 101.664 75.199 L 90.738 75.199 L 90.738 89.175 L 89.348 89.175 L 89.348 73.824 Z M 103.043 61.339 L 103.043 101.605 L 113.969 101.605 L 113.969 90.269 L 115.36 90.269 L 115.36 101.605 L 126.285 101.605 L 126.285 61.339 L 103.043 61.339 Z M 115.36 81.984 L 113.969 81.984 L 113.969 74.273 L 115.36 74.273 L 115.36 81.984 Z M 115.36 81.984" stroke-width="3.9" stroke-opacity="1" stroke-miterlimit="4" stroke="#00025d"/>
  <g fill="#16a34a" fill-opacity="1" transform="matrix(1, 0, 0, 1, 3.761881, 19.003529)">
    <g transform="translate(134.449976, 84.085922)">
      <g>
        <path d="M 19.726562 -42.488281 L -3.394531 -40.132812 L 0.6875 -0.0703125 L 23.808594 -2.425781 L 21.808594 -22.054688 L 18.316406 -21.699219 L 18.175781 -22.496094 L 21.726562 -22.855469 Z M 10.460938 -25.582031 L 9.085938 -25.445312 L 8.324219 -32.941406 L 9.695312 -33.082031 Z M 12.019531 -10.304688 L 10.644531 -10.164062 L 9.878906 -17.660156 L 11.253906 -17.800781 Z M 12.019531 -10.304688 "/>
      </g>
    </g>
  </g>
  <g fill="#16a34a" fill-opacity="1" transform="matrix(1, 0, 0, 1, 3.761881, 19.003529)">
    <g transform="translate(158.944452, 81.589771)">
      <g>
        <path d="M -3.394531 -40.132812 L 0.6875 -0.0703125 L 23.808594 -2.425781 L 19.726562 -42.488281 Z M 11.675781 -13.679688 L 10.300781 -13.539062 L 8.789062 -28.363281 L 10.164062 -28.503906 Z M 11.675781 -13.679688 "/>
      </g>
    </g>
  </g>
  <g fill="#16a34a" fill-opacity="1" transform="matrix(1, 0, 0, 1, 3.761881, 19.003529)">
    <g transform="translate(183.438928, 79.09362)">
      <g>
        <path d="M 23.234375 -2.367188 L 22.382812 -10.722656 L 10.707031 -9.535156 L 7.476562 -41.238281 L -3.394531 -40.132812 L 0.6875 -0.0703125 Z M 23.234375 -2.367188 "/>
      </g>
    </g>
  </g>
  <g fill="#16a34a" fill-opacity="1" transform="matrix(1, 0, 0, 1, 3.761881, 19.003529)">
    <g transform="translate(207.361107, 76.655789)">
      <g>
        <path d="M -3.394531 -40.132812 L 0.6875 -0.0703125 L 11.558594 -1.179688 L 10.410156 -12.453125 L 11.785156 -12.59375 L 12.933594 -1.316406 L 23.808594 -2.425781 L 19.726562 -42.488281 Z M 10.945312 -20.832031 L 9.570312 -20.695312 L 8.789062 -28.363281 L 10.164062 -28.503906 Z M 10.945312 -20.832031 "/>
      </g>
    </g>
  </g>
  <path stroke-linecap="butt" fill="none" stroke-linejoin="miter" d="M 157.678 56.191 L 134.433 56.194 L 134.433 96.46 L 157.678 96.457 L 157.678 76.727 L 154.164 76.726 L 154.108 75.923 L 157.677 75.926 L 157.678 56.191 Z M 146.751 72.064 L 145.361 72.063 L 145.358 64.536 L 146.748 64.536 L 146.751 72.064 Z M 146.748 87.428 L 145.358 87.427 L 145.361 79.885 L 146.751 79.885 L 146.748 87.428 Z M 159.052 56.194 L 159.056 96.46 L 182.297 96.457 L 182.297 56.191 L 159.052 56.194 Z M 171.372 84.028 L 169.982 84.027 L 169.981 69.126 L 171.371 69.127 L 171.372 84.028 Z M 206.343 96.457 L 206.343 88.059 L 194.602 88.06 L 194.603 56.193 L 183.675 56.194 L 183.675 96.46 L 206.343 96.457 Z M 207.721 56.194 L 207.721 96.456 L 218.648 96.459 L 218.649 85.123 L 220.039 85.123 L 220.038 96.459 L 230.966 96.458 L 230.966 56.192 L 207.721 56.194 Z M 220.039 76.839 L 218.649 76.838 L 218.65 69.127 L 220.04 69.127 L 220.039 76.839 Z M 220.039 76.839" stroke-width="5.85" stroke-opacity="1" stroke-miterlimit="4" style="transform-box: fill-box; transform-origin: 50% 50%;" transform="matrix(0.994848, -0.101382, 0.101382, 0.994848, 0, 0.000002)" stroke="#00025d"/>
  <g fill="#000000" fill-opacity="1">
    <g transform="translate(111.681419, 112.053222)">
      <g/>
    </g>
  </g>
  <g fill="#000000" fill-opacity="1">
    <g transform="translate(129.192658, 109.895459)">
      <g/>
    </g>
  </g>
  <g fill="#000000" fill-opacity="1">
    <g transform="translate(166.274118, 105.326222)">
      <g/>
    </g>
  </g>
  <g fill="#7ed957" fill-opacity="1">
    <g transform="translate(112.220157, 111.119171)">
      <g/>
    </g>
  </g>
  <g fill="#7ed957" fill-opacity="1">
    <g transform="translate(129.731395, 108.961409)">
      <g/>
    </g>
  </g>
  <g fill="#7ed957" fill-opacity="1">
    <g transform="translate(166.812856, 104.392172)">
      <g/>
    </g>
  </g>
</svg>