<svg xmlns="http://www.w3.org/2000/svg" xmlns:xlink="http://www.w3.org/1999/xlink" width="500" zoomAndPan="magnify" viewBox="0 0 375 374.999991" height="500" preserveAspectRatio="xMidYMid meet" version="1.0"><defs><filter x="0%" y="0%" width="100%" height="100%" id="da19c24332"><feColorMatrix values="0 0 0 0 1 0 0 0 0 1 0 0 0 0 1 0 0 0 1 0" color-interpolation-filters="sRGB"/></filter><clipPath id="0ce1233f8b"><path d="M 41 6.777344 L 334 6.777344 L 334 368.277344 L 41 368.277344 Z M 41 6.777344 " clip-rule="nonzero"/></clipPath><mask id="64356fc170"><g filter="url(#da19c24332)"><rect x="-37.5" width="450" fill="#000000" y="-37.499999" height="449.999989" fill-opacity="0.59"/></g></mask><clipPath id="f37f1192df"><path d="M 24 0.296875 L 91 0.296875 L 91 79 L 24 79 Z M 24 0.296875 " clip-rule="nonzero"/></clipPath><clipPath id="a7fe81733f"><path d="M 33 83 L 82 83 L 82 118.558594 L 33 118.558594 Z M 33 83 " clip-rule="nonzero"/></clipPath><clipPath id="eb7d35c085"><path d="M 0.484375 10 L 33 10 L 33 57 L 0.484375 57 Z M 0.484375 10 " clip-rule="nonzero"/></clipPath><clipPath id="ccddc19770"><path d="M 81 10 L 114.484375 10 L 114.484375 57 L 81 57 Z M 81 10 " clip-rule="nonzero"/></clipPath><clipPath id="da9b21b346"><rect x="0" width="115" y="0" height="119"/></clipPath><mask id="768546dc94"><g filter="url(#da19c24332)"><rect x="-37.5" width="450" fill="#000000" y="-37.499999" height="449.999989" fill-opacity="0.64"/></g></mask><clipPath id="d24aabc4c4"><path d="M 0.296875 0.320312 L 46.480469 0.320312 L 46.480469 45.957031 L 0.296875 45.957031 Z M 0.296875 0.320312 " clip-rule="nonzero"/></clipPath><clipPath id="93d224e8eb"><rect x="0" width="47" y="0" height="47"/></clipPath></defs><g clip-path="url(#0ce1233f8b)"><path fill="#7ed957" d="M 330.660156 58.90625 C 330.660156 58.90625 222.710938 50.449219 187.5 6.777344 C 152.289062 50.449219 44.339844 58.90625 44.339844 58.90625 C 44.339844 58.90625 37.617188 170.253906 46.507812 205.539062 C 78.394531 332.933594 187.5 368.21875 187.5 368.21875 C 187.5 368.21875 296.675781 332.863281 328.492188 205.539062 C 337.382812 170.253906 330.660156 58.90625 330.660156 58.90625 Z M 330.660156 58.90625 " fill-opacity="1" fill-rule="nonzero"/></g><path fill="#00025d" d="M 314.464844 202.066406 C 288.289062 306.832031 207.746094 344.792969 187.574219 352.816406 C 167.328125 344.792969 86.855469 306.832031 60.679688 202.066406 C 54.679688 177.988281 56.488281 108.652344 58.296875 72.066406 C 85.988281 68.597656 151.636719 57.535156 187.574219 27.3125 C 223.507812 57.535156 289.230469 68.597656 316.847656 72.066406 C 318.585938 108.652344 320.464844 177.988281 314.464844 202.066406 Z M 314.464844 202.066406 " fill-opacity="1" fill-rule="nonzero"/><path fill="#16a34a" d="M 314.464844 202.066406 C 288.289062 306.832031 207.746094 344.792969 187.574219 352.816406 L 187.574219 27.3125 C 223.507812 57.535156 289.230469 68.597656 316.847656 72.066406 C 318.585938 108.652344 320.464844 177.988281 314.464844 202.066406 Z M 314.464844 202.066406 " fill-opacity="1" fill-rule="nonzero"/><g mask="url(#64356fc170)"><g transform="matrix(1, 0, 0, 1, 130, 84)"><g clip-path="url(#da9b21b346)"><g clip-path="url(#f37f1192df)"><path fill="#7ed957" d="M 90.734375 0.296875 C 90.945312 20.964844 85.628906 39.859375 74.496094 57.089844 C 70.988281 62.480469 68.257812 68.433594 65.3125 74.214844 C 64.605469 75.632812 64.464844 77.332031 64.039062 78.964844 C 59.640625 78.964844 55.316406 78.964844 50.886719 78.964844 C 49.75 71.839844 46.207031 65.953125 42.519531 60.140625 C 35.996094 49.964844 30.253906 39.472656 27.34375 27.558594 C 25.183594 18.589844 24.226562 9.480469 24.226562 0.296875 C 46.417969 0.296875 68.574219 0.296875 90.734375 0.296875 Z M 90.734375 0.296875 " fill-opacity="1" fill-rule="evenodd"/></g><g clip-path="url(#a7fe81733f)"><path fill="#7ed957" d="M 33.726562 118.457031 C 33.726562 111.332031 33.726562 104.242188 33.726562 96.972656 C 38.617188 96.691406 42.910156 95.164062 46.207031 91.65625 C 47.871094 89.847656 48.933594 87.507812 50.355469 85.488281 C 50.8125 84.847656 51.628906 84.070312 52.304688 84.070312 C 55.777344 83.925781 59.25 83.925781 62.726562 84.035156 C 63.328125 84.035156 64.320312 84.53125 64.5 85.027344 C 67.300781 92.96875 73.253906 96.160156 81.230469 97.042969 C 81.230469 104.097656 81.230469 111.296875 81.230469 118.457031 C 65.386719 118.457031 49.574219 118.457031 33.726562 118.457031 Z M 33.726562 118.457031 " fill-opacity="1" fill-rule="evenodd"/></g><g clip-path="url(#eb7d35c085)"><path fill="#7ed957" d="M 0.507812 10.117188 C 6.890625 10.117188 13.269531 10.117188 19.792969 10.117188 C 20.042969 12.492188 20.21875 14.621094 20.46875 17.03125 C 16.179688 17.03125 12.101562 17.03125 7.777344 17.03125 C 10.328125 28.941406 15.503906 38.796875 25.289062 45.460938 C 27.949219 47.234375 29.933594 49.183594 30.996094 52.269531 C 31.421875 53.546875 32.167969 54.714844 32.769531 55.957031 C 32.664062 56.167969 32.519531 56.417969 32.378906 56.628906 C 29.046875 54.785156 25.539062 53.226562 22.453125 51.027344 C 9.972656 42.058594 3.523438 29.191406 0.96875 13.980469 C 0.863281 13.34375 0.652344 12.742188 0.507812 12.101562 C 0.507812 11.429688 0.507812 10.789062 0.507812 10.117188 Z M 0.507812 10.117188 " fill-opacity="1" fill-rule="evenodd"/></g><g clip-path="url(#ccddc19770)"><path fill="#7ed957" d="M 114.484375 12.101562 C 113.066406 17.347656 112.074219 22.808594 110.160156 27.84375 C 105.515625 39.933594 97.679688 49.183594 86.160156 54.820312 C 84.953125 55.390625 83.714844 55.8125 81.765625 56.628906 C 84.351562 52.339844 85.238281 48.191406 89.421875 45.535156 C 99.488281 39.117188 104.59375 29.011719 107.183594 17.03125 C 102.855469 17.03125 98.78125 17.03125 94.492188 17.03125 C 94.703125 14.691406 94.917969 12.597656 95.128906 10.117188 C 101.582031 10.117188 108.035156 10.117188 114.484375 10.117188 C 114.484375 10.789062 114.484375 11.429688 114.484375 12.101562 Z M 114.484375 12.101562 " fill-opacity="1" fill-rule="evenodd"/></g></g></g></g><g mask="url(#768546dc94)"><g transform="matrix(1, 0, 0, 1, 164, 274)"><g clip-path="url(#93d224e8eb)"><g clip-path="url(#d24aabc4c4)"><path fill="#7ed957" d="M 20.554688 0.90625 C 26.015625 0.21875 31.265625 1.53125 35.566406 4.277344 C 35.605469 4.292969 35.640625 4.316406 35.671875 4.339844 C 36.230469 4.703125 36.769531 5.085938 37.292969 5.492188 C 41.867188 9.042969 45.089844 14.328125 45.882812 20.519531 C 45.890625 20.550781 45.894531 20.582031 45.894531 20.617188 C 46.664062 26.808594 44.855469 32.734375 41.304688 37.304688 C 40.378906 38.5 39.332031 39.605469 38.179688 40.59375 C 38.144531 40.632812 38.105469 40.667969 38.0625 40.695312 C 34.832031 43.441406 30.792969 45.316406 26.277344 45.894531 C 26.246094 45.902344 26.214844 45.90625 26.179688 45.90625 C 23.828125 46.195312 21.515625 46.117188 19.296875 45.710938 C 19.273438 45.707031 19.246094 45.703125 19.21875 45.695312 C 15.632812 45.023438 12.308594 43.5 9.492188 41.316406 C 9.316406 41.179688 9.144531 41.039062 8.972656 40.902344 C 8.945312 40.882812 8.921875 40.863281 8.898438 40.835938 C 4.640625 37.300781 1.660156 32.207031 0.902344 26.289062 C 0.894531 26.253906 0.890625 26.222656 0.890625 26.191406 C 0.308594 21.488281 1.210938 16.9375 3.234375 13.019531 C 3.246094 12.992188 3.261719 12.964844 3.277344 12.941406 C 3.90625 11.730469 4.644531 10.578125 5.480469 9.503906 C 9.039062 4.917969 14.34375 1.691406 20.554688 0.90625 Z M 38.214844 7.804688 L 38.257812 7.878906 C 39.085938 9.25 39.8125 10.714844 40.351562 12.066406 C 40.375 12.125 40.386719 12.183594 40.394531 12.242188 C 41.453125 13.257812 42.464844 14.34375 43.417969 15.515625 C 42.25 12.550781 40.457031 9.933594 38.214844 7.804688 Z M 39.089844 12.046875 C 38.597656 10.878906 37.964844 9.640625 37.265625 8.472656 C 36.535156 7.265625 35.734375 6.136719 34.933594 5.242188 C 34.289062 4.832031 33.625 4.457031 32.941406 4.121094 L 27.46875 2.929688 C 27.421875 3.003906 27.363281 3.070312 27.285156 3.117188 C 26.714844 3.484375 26.042969 4.03125 25.382812 4.628906 C 24.742188 5.210938 24.109375 5.839844 23.589844 6.410156 C 25.101562 8.214844 26.277344 10.039062 27.277344 11.875 C 28.65625 12.214844 30.273438 12.707031 31.875 13.253906 C 33.46875 13.796875 35.042969 14.394531 36.347656 14.941406 C 37.289062 14.019531 38.207031 13.058594 39.089844 12.046875 Z M 43.742188 24.808594 C 43.773438 24.847656 43.796875 24.894531 43.8125 24.945312 C 44.074219 25.730469 44.324219 26.640625 44.492188 27.65625 C 44.929688 25.484375 45.035156 23.210938 44.761719 20.894531 Z M 43.53125 30.996094 C 43.585938 29.871094 43.511719 28.828125 43.355469 27.890625 C 43.214844 27.011719 43.003906 26.21875 42.78125 25.515625 L 39 24.464844 C 38.21875 25.664062 37.207031 26.902344 36.121094 28.039062 C 34.945312 29.265625 33.679688 30.382812 32.527344 31.214844 C 32.703125 33.617188 32.644531 35.941406 32.128906 38.234375 C 32.804688 38.554688 33.59375 38.839844 34.445312 39.066406 C 35.4375 39.335938 36.503906 39.527344 37.546875 39.613281 C 38.59375 38.699219 39.546875 37.6875 40.394531 36.59375 C 41.707031 34.902344 42.765625 33.015625 43.53125 30.996094 Z M 36.285156 40.632812 C 35.558594 40.523438 34.832031 40.375 34.144531 40.1875 C 33.007812 39.878906 31.960938 39.476562 31.125 39.015625 C 29.070312 39.828125 26.855469 40.410156 24.476562 40.753906 L 24.464844 40.773438 C 23.96875 41.613281 23.261719 42.503906 22.421875 43.351562 C 21.933594 43.84375 21.402344 44.324219 20.839844 44.773438 C 22.542969 44.976562 24.300781 44.976562 26.078125 44.75 L 26.085938 44.75 C 29.921875 44.265625 33.398438 42.800781 36.285156 40.632812 Z M 31.699219 30.378906 C 32.839844 29.574219 34.109375 28.46875 35.285156 27.234375 C 36.390625 26.082031 37.414062 24.820312 38.175781 23.601562 C 37.773438 20.9375 37.117188 18.449219 36.203125 16.140625 C 34.859375 15.5625 33.183594 14.925781 31.5 14.347656 C 29.992188 13.835938 28.46875 13.367188 27.164062 13.039062 C 25.554688 14.691406 24.050781 16.453125 22.632812 18.320312 L 25.375 28.558594 C 27.546875 29.351562 29.613281 29.808594 31.699219 30.378906 Z M 22.421875 5.988281 C 22.429688 5.976562 22.4375 5.964844 22.445312 5.953125 C 23.03125 5.28125 23.808594 4.492188 24.605469 3.769531 C 25.203125 3.234375 25.808594 2.730469 26.355469 2.347656 L 26.078125 2.050781 C 24.332031 1.832031 22.53125 1.828125 20.703125 2.054688 C 16.816406 2.546875 13.300781 4.046875 10.390625 6.257812 L 10.304688 6.628906 C 11.046875 6.675781 11.914062 6.796875 12.765625 6.984375 C 13.707031 7.1875 14.644531 7.476562 15.40625 7.828125 C 15.421875 7.835938 15.4375 7.84375 15.453125 7.851562 C 17.71875 7.066406 20.042969 6.457031 22.421875 5.988281 Z M 4.320312 13.441406 C 4.054688 14.667969 3.859375 16.015625 3.8125 17.40625 C 3.765625 18.726562 3.855469 20.089844 4.15625 21.425781 C 5.398438 21.851562 6.640625 22.21875 7.882812 22.539062 C 8.71875 21.308594 9.742188 20.015625 10.832031 18.800781 C 11.945312 17.558594 13.125 16.394531 14.226562 15.464844 C 14.027344 13.03125 14.179688 10.804688 14.671875 8.773438 C 14.039062 8.503906 13.28125 8.28125 12.519531 8.117188 C 11.542969 7.902344 10.570312 7.777344 9.820312 7.765625 C 9.746094 7.765625 9.675781 7.75 9.613281 7.722656 L 5.484375 11.472656 C 5.0625 12.109375 4.671875 12.761719 4.320312 13.441406 Z M 3.136719 22.085938 C 3.121094 22.054688 3.109375 22.019531 3.097656 21.980469 C 2.746094 20.546875 2.621094 19.089844 2.648438 17.675781 C 1.910156 20.332031 1.679688 23.179688 2.046875 26.089844 L 2.046875 26.09375 C 2.066406 26.253906 2.085938 26.410156 2.109375 26.566406 C 2.355469 25.03125 2.707031 23.539062 3.136719 22.085938 Z M 6.464844 34.984375 C 6.449219 34.914062 6.445312 34.84375 6.453125 34.777344 L 3.621094 31.90625 C 4.527344 34.019531 5.757812 35.945312 7.246094 37.625 C 6.902344 36.710938 6.667969 35.832031 6.464844 34.984375 Z M 7.644531 34.941406 C 7.832031 35.707031 8.054688 36.5 8.367188 37.320312 C 8.699219 38.191406 9.132812 39.09375 9.742188 40.035156 C 9.894531 40.160156 10.046875 40.28125 10.199219 40.402344 C 12.820312 42.4375 15.90625 43.867188 19.234375 44.519531 C 20.09375 43.929688 20.898438 43.246094 21.597656 42.539062 C 22.3125 41.816406 22.921875 41.066406 23.363281 40.355469 C 21.96875 38.691406 20.628906 36.882812 19.507812 34.878906 C 18.144531 34.738281 16.566406 34.386719 15 33.898438 C 13.402344 33.402344 11.8125 32.765625 10.464844 32.066406 Z M 24.261719 28.882812 L 21.511719 18.621094 C 19.398438 17.734375 17.222656 16.976562 14.992188 16.332031 C 13.929688 17.226562 12.785156 18.359375 11.695312 19.574219 C 10.601562 20.796875 9.570312 22.101562 8.75 23.332031 C 8.722656 23.371094 8.691406 23.410156 8.65625 23.441406 C 9.011719 25.894531 9.679688 28.375 10.65625 30.882812 C 10.707031 30.890625 10.753906 30.910156 10.800781 30.933594 C 12.132812 31.640625 13.734375 32.292969 15.34375 32.792969 C 16.824219 33.253906 18.304688 33.585938 19.582031 33.722656 C 21.246094 32.089844 22.847656 30.660156 24.261719 28.882812 Z M 24.261719 28.882812 " fill-opacity="1" fill-rule="nonzero"/></g></g></g></g><path stroke-linecap="butt" transform="matrix(0.499942, 0, 0, 0.499942, 89.369339, 212.827061)" fill="none" stroke-linejoin="miter" d="M 8.66858 108.999173 L 8.66858 75.612479 L 28.420876 75.612479 L 28.420876 86.527811 L 30.936794 86.527811 L 30.936794 36.201648 L 50.68909 36.201648 L 50.68909 108.999173 Z M 53.181567 36.201648 L 95.202077 36.201648 L 95.202077 108.999173 L 53.181567 108.999173 Z M 75.441967 86.527811 L 75.441967 59.587179 L 72.933863 59.587179 L 72.933863 86.527811 Z M 117.44685 58.774585 L 117.44685 86.527811 L 119.954954 86.527811 L 119.954954 61.267062 L 139.715063 61.267062 L 139.715063 108.999173 L 97.686741 108.999173 L 97.686741 36.201648 L 139.715063 36.201648 L 139.715063 58.774585 Z M 142.199727 36.201648 L 184.220237 36.201648 L 184.220237 108.999173 L 164.467941 108.999173 L 164.467941 88.512416 L 161.959837 88.512416 L 161.959837 108.999173 L 142.199727 108.999173 Z M 164.467941 73.526299 L 164.467941 59.587179 L 161.959837 59.587179 L 161.959837 73.526299 Z M 164.467941 73.526299 " stroke="#16a34a" stroke-width="3.9" stroke-opacity="1" stroke-miterlimit="4"/><path stroke-linecap="butt" transform="matrix(0.499942, 0, 0, 0.499942, 187.499992, 212.827061)" fill="none" stroke-linejoin="miter" d="M 49.669852 36.201648 L 49.669852 71.87767 L 43.22379 71.87767 L 43.325364 73.323151 L 49.669852 73.323151 L 49.669852 108.999173 L 7.649342 108.999173 L 7.649342 36.201648 Z M 29.917556 64.900297 L 29.917556 51.28934 L 27.401638 51.28934 L 27.401638 64.900297 Z M 29.917556 92.676963 L 29.917556 79.042566 L 27.401638 79.042566 L 27.401638 92.676963 Z M 52.162329 36.201648 L 94.182839 36.201648 L 94.182839 108.999173 L 52.162329 108.999173 Z M 74.430543 86.527811 L 74.430543 59.587179 L 71.914625 59.587179 L 71.914625 86.527811 Z M 137.656642 108.999173 L 96.675316 108.999173 L 96.675316 36.201648 L 116.427612 36.201648 L 116.427612 93.817721 L 137.656642 93.817721 Z M 140.149119 36.201648 L 182.169629 36.201648 L 182.169629 108.999173 L 162.417333 108.999173 L 162.417333 88.512416 L 159.901415 88.512416 L 159.901415 108.999173 L 140.149119 108.999173 Z M 162.417333 73.526299 L 162.417333 59.587179 L 159.901415 59.587179 L 159.901415 73.526299 Z M 162.417333 73.526299 " stroke="#00025d" stroke-width="3.9" stroke-opacity="1" stroke-miterlimit="4"/></svg>