<svg xmlns="http://www.w3.org/2000/svg" xmlns:xlink="http://www.w3.org/1999/xlink" width="500" zoomAndPan="magnify" viewBox="0 0 375 374.999991" height="500" preserveAspectRatio="xMidYMid meet" version="1.0"><defs><filter x="0%" y="0%" width="100%" height="100%" id="9975533fe7"><feColorMatrix values="0 0 0 0 1 0 0 0 0 1 0 0 0 0 1 0 0 0 1 0" color-interpolation-filters="sRGB"/></filter><g/><clipPath id="411ad0a810"><path d="M 41 6.777344 L 334 6.777344 L 334 368.277344 L 41 368.277344 Z M 41 6.777344 " clip-rule="nonzero"/></clipPath><mask id="013ee61a6f"><g filter="url(#9975533fe7)"><rect x="-37.5" width="450" fill="#000000" y="-37.499999" height="449.999989" fill-opacity="0.59"/></g></mask><clipPath id="14b1caa5e8"><path d="M 24 0.296875 L 91 0.296875 L 91 79 L 24 79 Z M 24 0.296875 " clip-rule="nonzero"/></clipPath><clipPath id="9216ac5126"><path d="M 33 83 L 82 83 L 82 118.558594 L 33 118.558594 Z M 33 83 " clip-rule="nonzero"/></clipPath><clipPath id="dca60ce2dc"><path d="M 0.484375 10 L 33 10 L 33 57 L 0.484375 57 Z M 0.484375 10 " clip-rule="nonzero"/></clipPath><clipPath id="9bd6142a4d"><path d="M 81 10 L 114.484375 10 L 114.484375 57 L 81 57 Z M 81 10 " clip-rule="nonzero"/></clipPath><clipPath id="e8a663c0e1"><rect x="0" width="115" y="0" height="119"/></clipPath></defs><g clip-path="url(#411ad0a810)"><path fill="#7ed957" d="M 330.660156 58.90625 C 330.660156 58.90625 222.710938 50.449219 187.5 6.777344 C 152.289062 50.449219 44.339844 58.90625 44.339844 58.90625 C 44.339844 58.90625 37.617188 170.253906 46.507812 205.539062 C 78.394531 332.933594 187.5 368.21875 187.5 368.21875 C 187.5 368.21875 296.675781 332.863281 328.492188 205.539062 C 337.382812 170.253906 330.660156 58.90625 330.660156 58.90625 Z M 330.660156 58.90625 " fill-opacity="1" fill-rule="nonzero"/></g><path fill="#00025d" d="M 314.464844 202.066406 C 288.289062 306.832031 207.746094 344.792969 187.574219 352.816406 C 167.328125 344.792969 86.855469 306.832031 60.679688 202.066406 C 54.679688 177.988281 56.488281 108.652344 58.296875 72.066406 C 85.988281 68.597656 151.636719 57.535156 187.574219 27.3125 C 223.507812 57.535156 289.230469 68.597656 316.847656 72.066406 C 318.585938 108.652344 320.464844 177.988281 314.464844 202.066406 Z M 314.464844 202.066406 " fill-opacity="1" fill-rule="nonzero"/><path fill="#16a34a" d="M 314.464844 202.066406 C 288.289062 306.832031 207.746094 344.792969 187.574219 352.816406 L 187.574219 27.3125 C 223.507812 57.535156 289.230469 68.597656 316.847656 72.066406 C 318.585938 108.652344 320.464844 177.988281 314.464844 202.066406 Z M 314.464844 202.066406 " fill-opacity="1" fill-rule="nonzero"/><g mask="url(#013ee61a6f)"><g transform="matrix(1, 0, 0, 1, 130, 84)"><g clip-path="url(#e8a663c0e1)"><g clip-path="url(#14b1caa5e8)"><path fill="#7ed957" d="M 90.734375 0.296875 C 90.945312 20.964844 85.628906 39.859375 74.496094 57.089844 C 70.988281 62.480469 68.257812 68.433594 65.3125 74.214844 C 64.605469 75.632812 64.464844 77.332031 64.039062 78.964844 C 59.640625 78.964844 55.316406 78.964844 50.886719 78.964844 C 49.75 71.839844 46.207031 65.953125 42.519531 60.140625 C 35.996094 49.964844 30.253906 39.472656 27.34375 27.558594 C 25.183594 18.589844 24.226562 9.480469 24.226562 0.296875 C 46.417969 0.296875 68.574219 0.296875 90.734375 0.296875 Z M 90.734375 0.296875 " fill-opacity="1" fill-rule="evenodd"/></g><g clip-path="url(#9216ac5126)"><path fill="#7ed957" d="M 33.726562 118.457031 C 33.726562 111.332031 33.726562 104.242188 33.726562 96.972656 C 38.617188 96.691406 42.910156 95.164062 46.207031 91.65625 C 47.871094 89.847656 48.933594 87.507812 50.355469 85.488281 C 50.8125 84.847656 51.628906 84.070312 52.304688 84.070312 C 55.777344 83.925781 59.25 83.925781 62.726562 84.035156 C 63.328125 84.035156 64.320312 84.53125 64.5 85.027344 C 67.300781 92.96875 73.253906 96.160156 81.230469 97.042969 C 81.230469 104.097656 81.230469 111.296875 81.230469 118.457031 C 65.386719 118.457031 49.574219 118.457031 33.726562 118.457031 Z M 33.726562 118.457031 " fill-opacity="1" fill-rule="evenodd"/></g><g clip-path="url(#dca60ce2dc)"><path fill="#7ed957" d="M 0.507812 10.117188 C 6.890625 10.117188 13.269531 10.117188 19.792969 10.117188 C 20.042969 12.492188 20.21875 14.621094 20.46875 17.03125 C 16.179688 17.03125 12.101562 17.03125 7.777344 17.03125 C 10.328125 28.941406 15.503906 38.796875 25.289062 45.460938 C 27.949219 47.234375 29.933594 49.183594 30.996094 52.269531 C 31.421875 53.546875 32.167969 54.714844 32.769531 55.957031 C 32.664062 56.167969 32.519531 56.417969 32.378906 56.628906 C 29.046875 54.785156 25.539062 53.226562 22.453125 51.027344 C 9.972656 42.058594 3.523438 29.191406 0.96875 13.980469 C 0.863281 13.34375 0.652344 12.742188 0.507812 12.101562 C 0.507812 11.429688 0.507812 10.789062 0.507812 10.117188 Z M 0.507812 10.117188 " fill-opacity="1" fill-rule="evenodd"/></g><g clip-path="url(#9bd6142a4d)"><path fill="#7ed957" d="M 114.484375 12.101562 C 113.066406 17.347656 112.074219 22.808594 110.160156 27.84375 C 105.515625 39.933594 97.679688 49.183594 86.160156 54.820312 C 84.953125 55.390625 83.714844 55.8125 81.765625 56.628906 C 84.351562 52.339844 85.238281 48.191406 89.421875 45.535156 C 99.488281 39.117188 104.59375 29.011719 107.183594 17.03125 C 102.855469 17.03125 98.78125 17.03125 94.492188 17.03125 C 94.703125 14.691406 94.917969 12.597656 95.128906 10.117188 C 101.582031 10.117188 108.035156 10.117188 114.484375 10.117188 C 114.484375 10.789062 114.484375 11.429688 114.484375 12.101562 Z M 114.484375 12.101562 " fill-opacity="1" fill-rule="evenodd"/></g></g></g></g><g fill="#ffffff" fill-opacity="1"><g transform="translate(84.203099, 249.6886)"><g><path d="M 24.609375 -4.9375 C 24.609375 -3.601562 24.117188 -2.445312 23.140625 -1.46875 C 22.160156 -0.488281 21.003906 0 19.671875 0 L 6.5625 0 C 5.226562 0 4.070312 -0.488281 3.09375 -1.46875 C 2.113281 -2.445312 1.625 -3.601562 1.625 -4.9375 L 1.625 -16.375 L 11.484375 -16.375 L 11.484375 -9.859375 L 14.75 -9.859375 L 14.75 -36.09375 L 24.609375 -36.09375 Z M 24.609375 -4.9375 "/></g></g><g transform="translate(110.44002, 249.6886)"><g><path d="M 14.75 -9.859375 L 14.75 -26.234375 L 11.484375 -26.234375 L 11.484375 -9.859375 Z M 24.609375 -4.9375 C 24.609375 -3.601562 24.117188 -2.445312 23.140625 -1.46875 C 22.160156 -0.488281 21.003906 0 19.671875 0 L 6.5625 0 C 5.226562 0 4.070312 -0.488281 3.09375 -1.46875 C 2.113281 -2.445312 1.625 -3.601562 1.625 -4.9375 L 1.625 -31.171875 C 1.625 -32.492188 2.113281 -33.644531 3.09375 -34.625 C 4.070312 -35.601562 5.226562 -36.09375 6.5625 -36.09375 L 19.671875 -36.09375 C 21.003906 -36.09375 22.160156 -35.601562 23.140625 -34.625 C 24.117188 -33.644531 24.609375 -32.492188 24.609375 -31.171875 Z M 24.609375 -4.9375 "/></g></g><g transform="translate(136.676941, 249.6886)"><g><path d="M 24.609375 -4.9375 C 24.609375 -3.601562 24.117188 -2.445312 23.140625 -1.46875 C 22.160156 -0.488281 21.003906 0 19.671875 0 L 6.5625 0 C 5.226562 0 4.070312 -0.488281 3.09375 -1.46875 C 2.113281 -2.445312 1.625 -3.601562 1.625 -4.9375 L 1.625 -31.171875 C 1.625 -32.492188 2.113281 -33.644531 3.09375 -34.625 C 4.070312 -35.601562 5.226562 -36.09375 6.5625 -36.09375 L 22.984375 -36.09375 L 22.984375 -26.234375 L 11.484375 -26.234375 L 11.484375 -9.859375 L 14.75 -9.859375 L 14.75 -19.671875 L 24.609375 -19.671875 Z M 24.609375 -4.9375 "/></g></g><g transform="translate(162.913862, 249.6886)"><g><path d="M 14.75 -16.375 L 14.75 -26.234375 L 11.484375 -26.234375 L 11.484375 -16.375 Z M 24.609375 0 L 14.75 0 L 14.75 -6.5625 L 11.484375 -6.5625 L 11.484375 0 L 1.625 0 L 1.625 -31.171875 C 1.625 -32.492188 2.113281 -33.644531 3.09375 -34.625 C 4.070312 -35.601562 5.226562 -36.09375 6.5625 -36.09375 L 19.671875 -36.09375 C 21.003906 -36.09375 22.160156 -35.601562 23.140625 -34.625 C 24.117188 -33.644531 24.609375 -32.492188 24.609375 -31.171875 Z M 24.609375 0 "/></g></g><g transform="translate(189.150784, 249.6886)"><g><path d="M 14.75 -9.859375 L 14.75 -15.640625 L 11.484375 -15.640625 L 11.484375 -9.859375 Z M 14.75 -20.515625 L 14.75 -26.234375 L 11.484375 -26.234375 L 11.484375 -20.515625 Z M 24.609375 -4.9375 C 24.609375 -3.601562 24.117188 -2.445312 23.140625 -1.46875 C 22.160156 -0.488281 21.003906 0 19.671875 0 L 1.625 0 L 1.625 -36.09375 L 19.671875 -36.09375 C 21.003906 -36.09375 22.160156 -35.601562 23.140625 -34.625 C 24.117188 -33.644531 24.609375 -32.492188 24.609375 -31.171875 L 24.609375 -22.984375 C 24.609375 -21.648438 24.117188 -20.492188 23.140625 -19.515625 C 22.160156 -18.535156 21.003906 -18.046875 19.671875 -18.046875 C 21.003906 -18.046875 22.160156 -17.554688 23.140625 -16.578125 C 24.117188 -15.597656 24.609375 -14.445312 24.609375 -13.125 Z M 24.609375 -4.9375 "/></g></g><g transform="translate(215.387705, 249.6886)"><g><path d="M 14.75 -9.859375 L 14.75 -26.234375 L 11.484375 -26.234375 L 11.484375 -9.859375 Z M 24.609375 -4.9375 C 24.609375 -3.601562 24.117188 -2.445312 23.140625 -1.46875 C 22.160156 -0.488281 21.003906 0 19.671875 0 L 6.5625 0 C 5.226562 0 4.070312 -0.488281 3.09375 -1.46875 C 2.113281 -2.445312 1.625 -3.601562 1.625 -4.9375 L 1.625 -31.171875 C 1.625 -32.492188 2.113281 -33.644531 3.09375 -34.625 C 4.070312 -35.601562 5.226562 -36.09375 6.5625 -36.09375 L 19.671875 -36.09375 C 21.003906 -36.09375 22.160156 -35.601562 23.140625 -34.625 C 24.117188 -33.644531 24.609375 -32.492188 24.609375 -31.171875 Z M 24.609375 -4.9375 "/></g></g><g transform="translate(241.624626, 249.6886)"><g><path d="M 21.296875 0 L 1.625 0 L 1.625 -36.09375 L 11.484375 -36.09375 L 11.484375 -9.859375 L 21.296875 -9.859375 Z M 21.296875 0 "/></g></g><g transform="translate(264.555695, 249.6886)"><g><path d="M 14.75 -16.375 L 14.75 -26.234375 L 11.484375 -26.234375 L 11.484375 -16.375 Z M 24.609375 0 L 14.75 0 L 14.75 -6.5625 L 11.484375 -6.5625 L 11.484375 0 L 1.625 0 L 1.625 -31.171875 C 1.625 -32.492188 2.113281 -33.644531 3.09375 -34.625 C 4.070312 -35.601562 5.226562 -36.09375 6.5625 -36.09375 L 19.671875 -36.09375 C 21.003906 -36.09375 22.160156 -35.601562 23.140625 -34.625 C 24.117188 -33.644531 24.609375 -32.492188 24.609375 -31.171875 Z M 24.609375 0 "/></g></g></g></svg>