<svg xmlns="http://www.w3.org/2000/svg" xmlns:xlink="http://www.w3.org/1999/xlink" width="350" zoomAndPan="magnify" viewBox="0 0 262.5 149.999998" height="200" preserveAspectRatio="xMidYMid meet" version="1.0"><metadata><manifest xmlns:c2pa="http://c2pa.org/manifest">AAAvWGp1bWIAAAAeanVtZGMycGEAEQAQgAAAqgA4m3EDYzJwYQAAAC8yanVtYgAAAEdqdW1kYzJtYQARABCAAACqADibcQN1cm46dXVpZDo4NjgzZDU1OC02ZDBjLTRhYzUtOTQyMi1lOTdhMGIxMmQwYWYAAAABsWp1bWIAAAApanVtZGMyYXMAEQAQgAAAqgA4m3EDYzJwYS5hc3NlcnRpb25zAAAAANNqdW1iAAAAJmp1bWRjYm9yABEAEIAAAKoAOJtxA2MycGEuYWN0aW9ucwAAAAClY2JvcqFnYWN0aW9uc4GjZmFjdGlvbmxjMnBhLmNyZWF0ZWRtc29mdHdhcmVBZ2VudGhDYW52YSBBSXFkaWdpdGFsU291cmNlVHlwZXhTaHR0cDovL2N2LmlwdGMub3JnL25ld3Njb2Rlcy9kaWdpdGFsc291cmNldHlwZS9jb21wb3NpdGVXaXRoVHJhaW5lZEFsZ29yaXRobWljTWVkaWEAAACtanVtYgAAAChqdW1kY2JvcgARABCAAACqADibcQNjMnBhLmhhc2guZGF0YQAAAAB9Y2JvcqVqZXhjbHVzaW9uc4GiZXN0YXJ0GQERZmxlbmd0aBk/IGRuYW1lbmp1bWJmIG1hbmlmZXN0Y2FsZ2ZzaGEyNTZkaGFzaFggoKkM/FGpmZFoJ3RPjx1PFreOIJQ69cj9pYTjea9fJeBjcGFkSQAAAAAAAAAAAAAAAedqdW1iAAAAJGp1bWRjMmNsABEAEIAAAKoAOJtxA2MycGEuY2xhaW0AAAABu2Nib3Kob2NsYWltX2dlbmVyYXRvcm8gYzJwYS1ycy8wLjQ2LjB0Y2xhaW1fZ2VuZXJhdG9yX2luZm+AaXNpZ25hdHVyZXhNc2VsZiNqdW1iZj0vYzJwYS91cm46dXVpZDo4NjgzZDU1OC02ZDBjLTRhYzUtOTQyMi1lOTdhMGIxMmQwYWYvYzJwYS5zaWduYXR1cmVqYXNzZXJ0aW9uc4KiY3VybHgnc2VsZiNqdW1iZj1jMnBhLmFzc2VydGlvbnMvYzJwYS5hY3Rpb25zZGhhc2hYIOqcrYOdhOs1rbU2S97U9/uaWHB+eQlMM6Kfbz0afJwJomN1cmx4KXNlbGYjanVtYmY9YzJwYS5hc3NlcnRpb25zL2MycGEuaGFzaC5kYXRhZGhhc2hYIMhZyg1LKKfSvE0JHZwGI9b43e7XCt8qrY1XOznyvQVXaWRjOmZvcm1hdG1pbWFnZS9zdmcreG1samluc3RhbmNlSUR4LHhtcDppaWQ6ZWNiZjQzZWYtMDMzYy00YzY4LThhZWYtYjdlM2JkMjdlNDU4aGRjOnRpdGxlZTIuc3ZnY2FsZ2ZzaGEyNTYAACtLanVtYgAAAChqdW1kYzJjcwARABCAAACqADibcQNjMnBhLnNpZ25hdHVyZQAAACsbY2JvctKEWRKBogE4Jhghg1kFPzCCBTswggMjoAMCAQICEQDBSBlP8XmJqikHWnIRZLtyMA0GCSqGSIb3DQEBDQUAMCIxIDAeBgNVBAMTF1NpZ25pbmcgSW50ZXJtZWRpYXRlIENBMB4XDTI2MDEyNDIzNTA0N1oXDTI2MDIwMTIzNTA0N1owODEOMAwGA1UEChMFQ2FudmExDjAMBgNVBAsTBUNhbnZhMRYwFAYDVQQDEw1DYW52YSBTaWduaW5nMIICIjANBgkqhkiG9w0BAQEFAAOCAg8AMIICCgKCAgEA5GnmZo5XmM8FEM+QBV8hSWeOT5XKiAPJ/j/TtP96R56gWiiZHc6HAD83+gHeCko6FDuNs1B8gLb5Hh3onkZ9Z+zHCoYJThet8Psu/Asd4jTUBG4lSZ7Oeja7ysz8oVYh8/X/VXqfYYXnQHFER/nkM2xct8u3kmF2iFEAMXyk848KoiCISpa8xAHI3iHHORmM3871BrOF9fmQOlqclNonw5hiLZOAN3C75HqKZoNQ9Wh/51yzHqzMU5XpW0+KwCEBo2AsBb3sOPWcoQFe+XEW7rcR0hoUKtqVOVtqJ5EbnjrrVZMQJ17VYaooXajuwPWfBMXDhrhd3QUVacRDiMhq6jwzaKBnldHBh5YMKvIRUPpCt2kCcVKSCt7fmxYc+GVoJXtYFN4RjqWw+Fluew9Rky/sv2DtZ1YOaRqvs6Xx1rOBTksA03CC7v4jquaKv/yFqfjL1buaE8xFkMoTd7Ic3Ozfkvzeoc8/21b7bqU7gEBIxmmyvSaE2KAdemxI1+q9QbJRiKjxNmUyElDYbw4eH9anjVN8vLrNhtOuhj6s14jbiRgsLfq9AE/hPcaFcEAc7IkJjU/97nhmMPr8mzdTmDf9qHDG9Th7zc7GO68ekaIPVy7cAiLT0YGFmi/e5wIc5E/XObRN1YlOIeTWcV9gSbPFVrkRMT12F7apgo90bocCAwEAAaNWMFQwDgYDVR0PAQH/BAQDAgeAMBMGA1UdJQQMMAoGCCsGAQUFBwMEMAwGA1UdEwEB/wQCMAAwHwYDVR0jBBgwFoAUlaNGP/sG2B5G0CnMpI7q7n+g6NUwDQYJKoZIhvcNAQENBQADggIBAEbM3jEZlzCwSy2eI3RAHYShxyz3xn8DrVTjMtUcaXgXTCGtFkdsYa6RMAz3PFeDR3w7X6YX1Vqy+SsgU4EOf353Z8E93iCmlyDStAriPCrxfu9o2keiYmMPoP6ZNj0ETFAc+X4CN0kihIcOPolQGUT5sR9Jl/rDSaPywZoGU4u5m+cv2LtKlpkxtQavB/7kFG0jRgFqu16eZLCNobaXqx9nS00UwIor6AHt8TI3TZl7FbLMOtwjDIy6LVtKPm4NyCLgmPsNAOVszKp8p0PqRXLRPCg51f4p/6YaRKiNPjim3ArRsWjyDUD/Tu2aRyMhQKYxVsgRCJfRjH2W5QkmW3uQKI9Pc6ucqhKODCbOLo6jlUgiGxdCrXeHviXR7+OnnKCKY5947SJpomQJCvWbimlFhmklRI5495JTMsphRZYRTV4FtBxuGAUrjS62GU1frUgQw4/hgAxv3DqmIbVp9RvzfYZ/HjBZ4b5MlR9qn6oYaMRAsPost3rRw1JPJVWSflJAheV6r+M+xEG4Cbx51JzWTPB3LJYgCvppLheCgLs/ewTJPAyi5bWtA7/Jguu2Z+LSU29Z9FITefdFOByx97pLCcjp4kJPj1JX3hwbS45wJ9WsdIbeQ3rSCq5uwnpOeDg+EOKRrhNQ2VBY/ogxCZt3AizchCk3Dh4mNl2yPr4wWQboMIIG5DCCBMygAwIBAgIUOrgN+6vn2s4yAmDJ1krgSq6i7CYwDQYJKoZIhvcNAQELBQAwbTELMAkGA1UEBhMCQVUxDDAKBgNVBAgTA05TVzEPMA0GA1UEBxMGU3lkbmV5MRMwEQYDVQQKEwpDYW52YSBQcm9kMRAwDgYDVQQLEwdTaWduaW5nMRgwFgYDVQQDEw9TaWduaW5nIENBIFByb2QwHhcNMjYwMTE3MDU0MDIwWhcNMjYwMjE2MDU0MDUwWjAiMSAwHgYDVQQDExdTaWduaW5nIEludGVybWVkaWF0ZSBDQTCCAiIwDQYJKoZIhvcNAQEBBQADggIPADCCAgoCggIBANPIIJiUtZqc3hI5mAPd++i+9A2ldpLjj+RI7TrJYva35AMrEHLm11xMd65ov60Qs/lrdXemNQ6KV65nQBtTzT8LohKzlavSwfNdrQcoFGsipGyvwrRg+ObvfNDha471rR7TgN1jhfv3sWoSPOUZqQSo+5QqfUv7qIvZuJiuOecFmhi0D7kQLK0C+X63aiKTsUpyfGo+/rZm+tfARxa+J8WMyP8zAyMJ4ksF7HbfjF4nIfZv4u+1rJ3u8ozG7VVzoImAMa8PN8xR+0iCT/Lcrcod+w6g+ZAtSZ18ycniovhpFd5Li/L7vOeEReFQFFDOeoFNTDteB21xdk3ieTIbZZJUrjG+SbfyapGRvOsY2DnbiFeaQWWup2WClcbJbLRTRtd1XKDY/Sh1eNlWSbNHVnmkDOGSOX6LKKoxNXxG8Vc90IclyHBC7+mdm2gjPiKvp+OUoQsxmMSO+RxCRB2iINdQonf/0+bEiFXk65Tgrul5XrINLXH8Reuho/+hR/bLlcV8HNMzhYejuEpa2vNxSoh/ZOFUnPFyZW7HKleeEtsgcu3z2RWoMnbZqmHLpJtyGvTY4pGRz3o8B/BAiV3EOxxG0INmfa3dQWUiKQm3Kzme+5LpfcJKURvZXfKEAa+xxl88p4grJ+A/d9FGypB6BrODLbGPSu8X99UETTtLlSL1AgMBAAGjggHFMIIBwTAOBgNVHQ8BAf8EBAMCAQYwEgYDVR0TAQH/BAgwBgEB/wIBADAdBgNVHQ4EFgQUlaNGP/sG2B5G0CnMpI7q7n+g6NUwHwYDVR0jBBgwFoAUfBltPaAhvHhI1GB/2kTSKR3t7HowgdcGCCsGAQUFBwEBBIHKMIHHMEwGCCsGAQUFBzABhkBodHRwczovL3BraS5jYW52YS1pbnRlcm5hbC5jb20vdjEvcGtpL2NhbnZhLXByb2QvbDEvc2lnbmluZy9vY3NwMHcGCCsGAQUFBzAChmtodHRwczovL3BraS5jYW52YS1pbnRlcm5hbC5jb20vdjEvcGtpL2NhbnZhLXByb2QvbDEvc2lnbmluZy9pc3N1ZXIvYzdiMDgwNGItNDdkZS0wMmExLTViZjctNGJlYWM3ZTc3N2Y2L2RlcjCBgAYDVR0fBHkwdzB1oHOgcYZvaHR0cHM6Ly9wa2kuY2FudmEtaW50ZXJuYWwuY29tL3YxL3BraS9jYW52YS1wcm9kL2wxL3NpZ25pbmcvaXNzdWVyL2M3YjA4MDRiLTQ3ZGUtMDJhMS01YmY3LTRiZWFjN2U3NzdmNi9jcmwvZGVyMA0GCSqGSIb3DQEBCwUAA4ICAQAT31Q4P00lfAd9E0xh/hJwQjRdjv1IiN3hp4DVCWkBMeVs0xJwz6oiRRd3AYIWv3jLbk6DRu8Rp/48KUeZmVLdUbD4Mn9oyQSLd8mw0OxmRFVT/2NPCL5MRjn6wY9D8f/uE9KfYcO7fpIIuO2MwJpkiLxUcFoKMQELKUtUCHQq7FmhBYlJyDRmzIFqD/xXLPyFHzdAbcAyI34MYWXUssKmGJ6+LLvzLfL+AhMn/c94bbcA3XEi9oZV542Fs0ynt2gqexNEXubAbRK4EZOHIttlh67t87hz3pttOuRX5qGt+Yz5qWqnjpSbzhGgYlY38CCUy8uDtt3PeGKgi6VxXokKZOrXMghMpIqEfFjdSNHPOcOUQ4zJ0mHOFBrE/45SK6bgTzJIxeesns7QYnsp5op7gu7j/mtdA17H0YoALucs1S/kDTRgmtZdxWtGBYN8fQ2wk6gNpxABoLsYsXgfJyQnB1Tivrm4Nq4byCLB1NyvVsXIZpvLk2RvaJ6rlW4fTLhUUFVEql+np9C8ZcrqUup0vLazgjr5906Aey+ZTUHEUzLADsM5eB62ie9M4PsObgHdj3+KUN0If+stcW87OC6UIsNtzpaq1KvhiqcfLNPc9EHQB3v3frhrAb7C7bD43Z10QWYO5w2+1rPD1OwQ7Q05pV+R4YICqybfdXYnwn1xpVkGSjCCBkYwggQuoAMCAQICEQDKcF3XUyrU5dFDm5TsRXIRMA0GCSqGSIb3DQEBDQUAMIGBMQswCQYDVQQGEwJBVTETMBEGA1UECgwKQ2FudmEgUHJvZDEXMBUGA1UECwwOQ2xvdWQgUGxhdGZvcm0xDDAKBgNVBAgMA05TVzElMCMGA1UEAwwcQ2FudmEgUHJvZCBSb290IENBIEdsb2JhbCBHMjEPMA0GA1UEBwwGU3lkbmV5MB4XDTI1MTExNjAzMzE0NloXDTI2MDUxNTAzMzE0NlowbTELMAkGA1UEBhMCQVUxDDAKBgNVBAgTA05TVzEPMA0GA1UEBxMGU3lkbmV5MRMwEQYDVQQKEwpDYW52YSBQcm9kMRAwDgYDVQQLEwdTaWduaW5nMRgwFgYDVQQDEw9TaWduaW5nIENBIFByb2QwggIiMA0GCSqGSIb3DQEBAQUAA4ICDwAwggIKAoICAQDInUy1u0OAH58xDAWK/z8JFw/MJugaRVdINIPUGlAvHCqGdm4TW6l84/XabQk1x68iWoYnsM1Fx1hsI+Po9fYC9VPHYq1D+t0XQMPRRDmwuTbmxOkTMb1vuqARxDX7oYW4TlvCamHZzaShmsemqHOhkNwIgzg3MmR5YlAqFb2/Lexe34Eqzm//BMDvTnoaUbFy1qiITfHQWD5WPYe9wNXA3DSAS3weCY0MnPLF84AT+94BIwqDVJ/e4OrYwAedF7g8Gjb7+KgnCMKjhoAHQ9dm+CzU708TdwDc3GetP/u5zMdTMJ8XQMmjAIDx9qjYkBWWlJ/Tj7fplsbph9RJ4Ua2Do27hQw1JeitkwBSqye1vCOz+rp+Cav2vqwRChcZzn/J2VmEE7ntu00/2z5L2401sKIR/HTxnCuFGa9hb3ko7k1Cjv3em2Ll0TQJ+S7nlp7Y3kvV/NFU8DaKeGH+famHlrYsrnfxwr37rsAEwjbg1hOT2+qTxgm6WNDj1YpS5ZhPtZ2EymUt8QXlbFpzBLOffjtRG79qUbmzNjNYMsOvf39zWEfPUBEa7iDfrmCRFqlBni9GKwkAMl8kVERSRv+/jrDBGXBVT5n7hvMU1vQXacl1v+SHQylWCj1EiMHHsggVCrXXG3r4HK47CBL4ICkx3D9WekfkfSRgJ6ne650GeQIDAQABo4HLMIHIMBIGA1UdEwEB/wQIMAYBAf8CAQEwHwYDVR0jBBgwFoAU6UnqmN2caVR9jX+PoWzIxynkrXMwHQYDVR0OBBYEFHwZbT2gIbx4SNRgf9pE0ikd7ex6MA4GA1UdDwEB/wQEAwIBhjBiBgNVHR8EWzBZMFegVaBThlFodHRwOi8vZDF1YWRuMHBqc2loOG0uY2xvdWRmcm9udC5uZXQvY3JsLzBhMGFhNDUyLTlmMjctNDg2My1hZWRhLWVkOTc2ZjIwZDhiYi5jcmwwDQYJKoZIhvcNAQENBQADggIBADivBXttv2jgMYxq3McpbZCBqk+IT1s2NGOVYO+Jc5HHpg3WWy3MQCYT7fNshPgf4O219LUEjOEta9E0J16yVUIkzqedXoaEsAF/YwbrUSFSDgTTQhQiMGXgxEa9+RMxvC0cIRbK7/l1GoCKzBFN753fmaTte/Xrb5Ge8vVkVl/HEysGdnPWhMJDBqa4gOipzi0I9lNyfi4T3GkavwcDuOMpylUSs7FdZncAEm7y/ESjvkLD7hvWmvYGpdsMXp+Z0fQ6MRpUt6brp/EWD0dURJ2EihCx5mA17RXY+5XLM/oOcRpzg7wu+FetkrVv37HPyx9c8lt3Wy2QQ92o7mNJDXmGWWFWtmAu9zJ4LMs01RwGsT60QDIyHbQE7XVUugQj2igqnu7xwc91boYyq4QEY1HJoMlBn/blqzFJJbDdc1nLTFgM9Z6RPUkQ3TX78VP6lJI2shWr4cvl11+lZjvyAz7XMlbdCWDeairy2BtFk0ENfwZZ5RfGNgKwdIXWI1MQA5LJvUe1cjSTF3EAA7fFKdVctKRHR/5mQzKKtqClXvwqH2xwBEyw+593iYexRadAda1504fg9QQfRfH1p5Dk2llh1ns6BP/uhNskR+Kj/z2tKMpXdUYXk2aABtSHoynEwaEB+nyrnnfvhQPhER1ghv2pZWXUpblMJ8uWPUeWLVQsoWNwYWRZFoEAAAAAAAAAAAAAAAAAAAAAAAAAAAAAAAAAAAAAAAAAAAAAAAAAAAAAAAAAAAAAAAAAAAAAAAAAAAAAAAAAAAAAAAAAAAAAAAAAAAAAAAAAAAAAAAAAAAAAAAAAAAAAAAAAAAAAAAAAAAAAAAAAAAAAAAAAAAAAAAAAAAAAAAAAAAAAAAAAAAAAAAAAAAAAAAAAAAAAAAAAAAAAAAAAAAAAAAAAAAAAAAAAAAAAAAAAAAAAAAAAAAAAAAAAAAAAAAAAAAAAAAAAAAAAAAAAAAAAAAAAAAAAAAAAAAAAAAAAAAAAAAAAAAAAAAAAAAAAAAAAAAAAAAAAAAAAAAAAAAAAAAAAAAAAAAAAAAAAAAAAAAAAAAAAAAAAAAAAAAAAAAAAAAAAAAAAAAAAAAAAAAAAAAAAAAAAAAAAAAAAAAAAAAAAAAAAAAAAAAAAAAAAAAAAAAAAAAAAAAAAAAAAAAAAAAAAAAAAAAAAAAAAAAAAAAAAAAAAAAAAAAAAAAAAAAAAAAAAAAAAAAAAAAAAAAAAAAAAAAAAAAAAAAAAAAAAAAAAAAAAAAAAAAAAAAAAAAAAAAAAAAAAAAAAAAAAAAAAAAAAAAAAAAAAAAAAAAAAAAAAAAAAAAAAAAAAAAAAAAAAAAAAAAAAAAAAAAAAAAAAAAAAAAAAAAAAAAAAAAAAAAAAAAAAAAAAAAAAAAAAAAAAAAAAAAAAAAAAAAAAAAAAAAAAAAAAAAAAAAAAAAAAAAAAAAAAAAAAAAAAAAAAAAAAAAAAAAAAAAAAAAAAAAAAAAAAAAAAAAAAAAAAAAAAAAAAAAAAAAAAAAAAAAAAAAAAAAAAAAAAAAAAAAAAAAAAAAAAAAAAAAAAAAAAAAAAAAAAAAAAAAAAAAAAAAAAAAAAAAAAAAAAAAAAAAAAAAAAAAAAAAAAAAAAAAAAAAAAAAAAAAAAAAAAAAAAAAAAAAAAAAAAAAAAAAAAAAAAAAAAAAAAAAAAAAAAAAAAAAAAAAAAAAAAAAAAAAAAAAAAAAAAAAAAAAAAAAAAAAAAAAAAAAAAAAAAAAAAAAAAAAAAAAAAAAAAAAAAAAAAAAAAAAAAAAAAAAAAAAAAAAAAAAAAAAAAAAAAAAAAAAAAAAAAAAAAAAAAAAAAAAAAAAAAAAAAAAAAAAAAAAAAAAAAAAAAAAAAAAAAAAAAAAAAAAAAAAAAAAAAAAAAAAAAAAAAAAAAAAAAAAAAAAAAAAAAAAAAAAAAAAAAAAAAAAAAAAAAAAAAAAAAAAAAAAAAAAAAAAAAAAAAAAAAAAAAAAAAAAAAAAAAAAAAAAAAAAAAAAAAAAAAAAAAAAAAAAAAAAAAAAAAAAAAAAAAAAAAAAAAAAAAAAAAAAAAAAAAAAAAAAAAAAAAAAAAAAAAAAAAAAAAAAAAAAAAAAAAAAAAAAAAAAAAAAAAAAAAAAAAAAAAAAAAAAAAAAAAAAAAAAAAAAAAAAAAAAAAAAAAAAAAAAAAAAAAAAAAAAAAAAAAAAAAAAAAAAAAAAAAAAAAAAAAAAAAAAAAAAAAAAAAAAAAAAAAAAAAAAAAAAAAAAAAAAAAAAAAAAAAAAAAAAAAAAAAAAAAAAAAAAAAAAAAAAAAAAAAAAAAAAAAAAAAAAAAAAAAAAAAAAAAAAAAAAAAAAAAAAAAAAAAAAAAAAAAAAAAAAAAAAAAAAAAAAAAAAAAAAAAAAAAAAAAAAAAAAAAAAAAAAAAAAAAAAAAAAAAAAAAAAAAAAAAAAAAAAAAAAAAAAAAAAAAAAAAAAAAAAAAAAAAAAAAAAAAAAAAAAAAAAAAAAAAAAAAAAAAAAAAAAAAAAAAAAAAAAAAAAAAAAAAAAAAAAAAAAAAAAAAAAAAAAAAAAAAAAAAAAAAAAAAAAAAAAAAAAAAAAAAAAAAAAAAAAAAAAAAAAAAAAAAAAAAAAAAAAAAAAAAAAAAAAAAAAAAAAAAAAAAAAAAAAAAAAAAAAAAAAAAAAAAAAAAAAAAAAAAAAAAAAAAAAAAAAAAAAAAAAAAAAAAAAAAAAAAAAAAAAAAAAAAAAAAAAAAAAAAAAAAAAAAAAAAAAAAAAAAAAAAAAAAAAAAAAAAAAAAAAAAAAAAAAAAAAAAAAAAAAAAAAAAAAAAAAAAAAAAAAAAAAAAAAAAAAAAAAAAAAAAAAAAAAAAAAAAAAAAAAAAAAAAAAAAAAAAAAAAAAAAAAAAAAAAAAAAAAAAAAAAAAAAAAAAAAAAAAAAAAAAAAAAAAAAAAAAAAAAAAAAAAAAAAAAAAAAAAAAAAAAAAAAAAAAAAAAAAAAAAAAAAAAAAAAAAAAAAAAAAAAAAAAAAAAAAAAAAAAAAAAAAAAAAAAAAAAAAAAAAAAAAAAAAAAAAAAAAAAAAAAAAAAAAAAAAAAAAAAAAAAAAAAAAAAAAAAAAAAAAAAAAAAAAAAAAAAAAAAAAAAAAAAAAAAAAAAAAAAAAAAAAAAAAAAAAAAAAAAAAAAAAAAAAAAAAAAAAAAAAAAAAAAAAAAAAAAAAAAAAAAAAAAAAAAAAAAAAAAAAAAAAAAAAAAAAAAAAAAAAAAAAAAAAAAAAAAAAAAAAAAAAAAAAAAAAAAAAAAAAAAAAAAAAAAAAAAAAAAAAAAAAAAAAAAAAAAAAAAAAAAAAAAAAAAAAAAAAAAAAAAAAAAAAAAAAAAAAAAAAAAAAAAAAAAAAAAAAAAAAAAAAAAAAAAAAAAAAAAAAAAAAAAAAAAAAAAAAAAAAAAAAAAAAAAAAAAAAAAAAAAAAAAAAAAAAAAAAAAAAAAAAAAAAAAAAAAAAAAAAAAAAAAAAAAAAAAAAAAAAAAAAAAAAAAAAAAAAAAAAAAAAAAAAAAAAAAAAAAAAAAAAAAAAAAAAAAAAAAAAAAAAAAAAAAAAAAAAAAAAAAAAAAAAAAAAAAAAAAAAAAAAAAAAAAAAAAAAAAAAAAAAAAAAAAAAAAAAAAAAAAAAAAAAAAAAAAAAAAAAAAAAAAAAAAAAAAAAAAAAAAAAAAAAAAAAAAAAAAAAAAAAAAAAAAAAAAAAAAAAAAAAAAAAAAAAAAAAAAAAAAAAAAAAAAAAAAAAAAAAAAAAAAAAAAAAAAAAAAAAAAAAAAAAAAAAAAAAAAAAAAAAAAAAAAAAAAAAAAAAAAAAAAAAAAAAAAAAAAAAAAAAAAAAAAAAAAAAAAAAAAAAAAAAAAAAAAAAAAAAAAAAAAAAAAAAAAAAAAAAAAAAAAAAAAAAAAAAAAAAAAAAAAAAAAAAAAAAAAAAAAAAAAAAAAAAAAAAAAAAAAAAAAAAAAAAAAAAAAAAAAAAAAAAAAAAAAAAAAAAAAAAAAAAAAAAAAAAAAAAAAAAAAAAAAAAAAAAAAAAAAAAAAAAAAAAAAAAAAAAAAAAAAAAAAAAAAAAAAAAAAAAAAAAAAAAAAAAAAAAAAAAAAAAAAAAAAAAAAAAAAAAAAAAAAAAAAAAAAAAAAAAAAAAAAAAAAAAAAAAAAAAAAAAAAAAAAAAAAAAAAAAAAAAAAAAAAAAAAAAAAAAAAAAAAAAAAAAAAAAAAAAAAAAAAAAAAAAAAAAAAAAAAAAAAAAAAAAAAAAAAAAAAAAAAAAAAAAAAAAAAAAAAAAAAAAAAAAAAAAAAAAAAAAAAAAAAAAAAAAAAAAAAAAAAAAAAAAAAAAAAAAAAAAAAAAAAAAAAAAAAAAAAAAAAAAAAAAAAAAAAAAAAAAAAAAAAAAAAAAAAAAAAAAAAAAAAAAAAAAAAAAAAAAAAAAAAAAAAAAAAAAAAAAAAAAAAAAAAAAAAAAAAAAAAAAAAAAAAAAAAAAAAAAAAAAAAAAAAAAAAAAAAAAAAAAAAAAAAAAAAAAAAAAAAAAAAAAAAAAAAAAAAAAAAAAAAAAAAAAAAAAAAAAAAAAAAAAAAAAAAAAAAAAAAAAAAAAAAAAAAAAAAAAAAAAAAAAAAAAAAAAAAAAAAAAAAAAAAAAAAAAAAAAAAAAAAAAAAAAAAAAAAAAAAAAAAAAAAAAAAAAAAAAAAAAAAAAAAAAAAAAAAAAAAAAAAAAAAAAAAAAAAAAAAAAAAAAAAAAAAAAAAAAAAAAAAAAAAAAAAAAAAAAAAAAAAAAAAAAAAAAAAAAAAAAAAAAAAAAAAAAAAAAAAAAAAAAAAAAAAAAAAAAAAAAAAAAAAAAAAAAAAAAAAAAAAAAAAAAAAAAAAAAAAAAAAAAAAAAAAAAAAAAAAAAAAAAAAAAAAAAAAAAAAAAAAAAAAAAAAAAAAAAAAAAAAAAAAAAAAAAAAAAAAAAAAAAAAAAAAAAAAAAAAAAAAAAAAAAAAAAAAAAAAAAAAAAAAAAAAAAAAAAAAAAAAAAAAAAAAAAAAAAAAAAAAAAAAAAAAAAAAAAAAAAAAAAAAAAAAAAAAAAAAAAAAAAAAAAAAAAAAAAAAAAAAAAAAAAAAAAAAAAAAAAAAAAAAAAAAAAAAAAAAAAAAAAAAAAAAAAAAAAAAAAAAAAAAAAAAAAAAAAAAAAAAAAAAAAAAAAAAAAAAAAAAAAAAAAAAAAAAAAAAAAAAAAAAAAAAAAAAAAAAAAAAAAAAAAAAAAAAAAAAAAAAAAAAAAAAAAAAAAAAAAAAAAAAAAAAAAAAAAAAAAAAAAAAAAAAAAAAAAAAAAAAAAAAAAAAAAAAAAAAAAAAAAAAAAAAAAAAAAAAAAAAAAAAAAAAAAAAAAAAAAAAAAAAAAAAAAAAAAAAAAAAAAAAAAAAAAAAAAAAAAAAAAAAAAAAAAAAAAAAAAAAAAAAAAAAAAAAAAAAAAAAAAAAAAAAAAAAAAAAAAAAAAAAAAAAAAAAAAAAAAAAAAAAAAAAAAAAAAAAAAAAAAAAAAAAAAAAAAAAAAAAAAAAAAAAAAAAAAAAAAAAAAAAAAAAAAAAAAAAAAAAAAAAAAAAAAAAAAAAAAAAAAAAAAAAAAAAAAAAAAAAAAAAAAAAAAAAAAAAAAAAAAAAAAAAAAAAAAAAAAAAAAAAAAAAAAAAAAAAAAAAAAAAAAAAAAAAAAAAAAAAAAAAAAAAAAAAAAAAAAAAAAAAAAAAAAAAAAAAAAAAAAAAAAAAAAAAAAAAAAAAAAAAAAAAAAAAAAAAAAAAAAAAAAAAAAAAAAAAAAAAAAAAAAAAAAAAAAAAAAAAAAAAAAAAAAAAAAAAAAAAAAAAAAAAAAAAAAAAAAAAAAAAAAAAAAAAAAAAAAAAAAAAAAAAAAAAAAAAAAAAAAAAAAAAAAAAAAAAAAAAAAAAAAAAAAAAAAAAAAAAAAAAAAAAAAAAAAAAAAAAAAAAAAAAAAAAAAAAAAAAAAAAAAAAAAAAAAAAAAAAAAAAAAAAAAAAAAAAAAAAAAAAAAAAAAAAAAAAAAAAAAAAAAAAAAAAAAAAAAAAAAAAAAAAAAAAAAAAAAAAAAAAAAAAAAAAAAAAAAAAAAAAAAAAAAAAAAAAAAAAAAAAAAAAAAAAAAAAAAAAAAAAAAAAAAAAAAAAAAAAAAAAAAAAAAAAAAAAAAAAAAAAAAAAAAAAAAAAAAAAAAAAAAAAAAAAAAAAAAAAAAAAAAAAAAAAAAAAAAAAAAAAAAAAAAAAAAAAAAAAAAAAAAAAAAAAAAAAAAAAAAAAAAAAAAAAAAAAAAAAAAAAAAAAAAAAAAAAAAAAAAAAAAAAAAAAAAAAAAAAAAAAAAAAAAAAAAAAAAAAAAAAAAAAAAAAAAAAAAAAAAAAAAAAAAAAAAAAAAAAAAAAAAAAAAAAAAAAAAAAAAAAAAAAAAAAAAAAAAAAAAAAAAAAAAAAAAAAAAAAAAAAAAAAAAAAAAAAAAAAAAAAAAAAAAAAAAAAAAAAAAAAAAAAAAAAAAAAAAAAAAAAAAAAAAAAAAAAAAAAAAAAAAAAAAAAAAAAAAAAAAAAAAAAAAAAAAAAAAAAAAAAAAAAAAAAAAAAAAAAAAAAAAAAAAAAAAAAAAAAAAAAAAAAAAAAAAAAAAAAAAAAAAAAAAAAAAAAAAAAAAAAAAAAAAAAAAAAAAAAAAAAAAAAAAAAAAAAAAAAAAAAAAAAAAAAAAAAAAAAAAAAAAAAAAAAAAAAAAAAAAAAAAAAAAAAAAAAAAAAAAAAAAAAAAAAAAAAAAAAAAAAAAAAAAAAAAAAAAAAAAAAAAAAAAAAAAAAAAAAAAAAAAAAAAAAAAAAAAAAAAAAAAAAAAAAAAAAAAAAAAAAAAAAAAAAAAAAAAAAAAAAAAAAAAAAAAAAAAAAAAAAAAAAAAAAAAAAAAAAAAAAAAAAAAAAAAAAAAAAAAAAAAAAAAAAAAAAAAAAAAAAAAAAAAAAAAAAAAAAAAAAAAAAAAAAAAAAAAAAAAAAAAAAAAAAAAAAAAAAAAAAAAAAAAAAAAAAAAAAAAAAAAAAAAAAAAAAAAAAAAAAAAAAAAAAAAAAAAAAAAAAAAAAAAAAAAAAAAAAAAAAAAAAAAAAAAAAAAAAAAAAAAAAAAAAAAAAAAAAAAAAAAAAAAAAAAAAAAAAAAAAAAAAAAAAAAAAAAAAAAAAAAAAAAAAAAAAAAAAAAAAAAAAAAAAAAAAAAAAAAAAAAAAAAAAAAAAAAAAAAAAAAAAAAAAAAAAAAAAAAAAAAAAAAAAAAAAAAAAAAAAAAAAAAAAAAAAAAAAAAAAAAAAAAAAAAAAAAAAAAAAAAAAAAAAAAAAAAAAAAAAAAAAAAAAAAAAAAAAAAAAAAAAAAAAAAAAAAAAAAAAAAAAAAAAAAAAAAAAAAAAAAAAAAAAAAAAAAAAAAAAAAAAAAAAAAAAAAAAAAAAAAAAAAAAAAAAAAAAAAAAAAAAAAAAAAAAAAAAAAAAAAAAAAAAAAAAAAAAAAAAAAAAAAAAAAAAAAAAAAAAAAAAAAAAAAAAAAAAAAAAAAAAAAAAAAAAAAAAAAAAAAAAAAAAAAAAAAAAAAAAAAAAAAAAAAAAAAAAAAAAAAAAAAAAAAAAAAAAAAAAAAAAAAAAAAAAAAAAAAAAAAAAAAAAAAAAAAAAAAAAAAAAAAAAAAAAAAAAAAAAAAAAAAAAAAAAAAAAAAAAAAAAAAAAAAAAAAAAAAAAAAAAAAAAAAAAAAAAAAAAAAAAAAAAAAAAAAAAAAAAAAAAAAAAAAAAAAAAAAAAAAAAAAAAAAAAAAAAAAAAAAAAAAAAAAAAAAAAAAAAAAAAAAAAAAAAAAAAAAAAAAAAAAAAAAAAAAAAAAAAAAAAAAAAAAAAAAAAAAAAAAAAAAAAAAAAAAAAAAAAAAAAAAAAAAAAAAAAAAAAAAAAAAAAAAAAAAAAAAAAAAAAAAAAAAAAAAAAAAAAAAAAAAAAAAAAAAAAAAAAAAAAAAAAAAAAAAAAAAAAAAAAAAAAAAAAAAAAAAAAAAAAAAAAAAAAAAAAAAAAAAAAAAAAAAAAAAAAAAAAAAAAAAAAAAAAAAAAAAAAAAAAAAAAAAAAAAAAAAAAAAAAAAAAAAAAAAAAAAAAAAAAAAAAAAAAAAAAAAAAAAAAAAAAAAAAAAAAAAAAAAAAAAAAAAAAAAAAAAAAAAAAAAAAAAAAAAAAAAAAAAAAAAAAAAAAAAAAAAAAAAAAAAAAAAAAAAAAAAAAAAAAAAAAAAAAAAAAAAAAAAAAAAAAAAAAAAAAAAAAAAAAAAAAAAAAAAAAAAAAAAAAAAAAAAAAAAAAAAAAAAAAAAAAAAAAAAAAAAAAAAAAAAAAAAAAAAAAAAAAAAAA9lkCANUF7uMZfGOJW9kXzJavpUCVi7Xu4voJqMu4OJ+vDHX8tHG8mYkCOjIXRelaESyNs3yxq2ZlSysC8s8MN/cLhAkepKlM1BlpS10uobwOkjuMRrLOe2u3+qFzNWn6YU7dH/7zQ6L15hy92yY4TOuHsOA1gJD5yV+yMllflsSTcJKiq8XmmTbCmVJYf5I9scALOBwr1EVivB0WLxWrLArV6VSr+d8XAuiwWEbUlkuDDq6cdGL2zfDruIDmOTePwNtYy+/AMbyeFwnLJxuHQGVjCHwDwA4m/mD3XEzlCbW0f68PcSnmyE7lRTRc8D43j3/M48Fj9IZL+2/ClD3K5v15c342FdgBOst3jefx1GlXrEaKAVBr+d4WpPGsUCCJtpRl91fAgpBHkFQzhtFqV02Cf+9rABC75rSBFjEjPvj6LE7uoplnNfF3UasbaYv7mcp9Zt2gDzksR67P5LXuOg6rC7J0R3EHMv7Cm6Twm7pKIP9RwbZzzIgP0EYtUx0Yrp8mb5t3ccAs6fvIaEyXadDERnfA4r3pxZhDBwFc0OcfFqfbjJ9jI5SOQgUEUsIRGtsjhzT6HTiEdPcKosxR++kw0F1kW3HCTTcCnK0LWpXAYxl0rg2kYSWdcrQ28sP9NX2Jd8V5Xma5GmbyU/TxLNGFvqONey4iJL4zVvF6jeCAbZKS</manifest><ContainsAiGeneratedContent>Yes</ContainsAiGeneratedContent></metadata><defs><filter x="0%" y="0%" width="100%" height="100%" id="cd9c8f3c39"><feColorMatrix values="0 0 0 0 1 0 0 0 0 1 0 0 0 0 1 0 0 0 1 0" color-interpolation-filters="sRGB"></feColorMatrix></filter><filter x="0%" y="0%" width="100%" height="100%" id="4b5ca160fa"><feColorMatrix values="0 0 0 0 1 0 0 0 0 1 0 0 0 0 1 0.2126 0.7152 0.0722 0 0" color-interpolation-filters="sRGB"></feColorMatrix></filter><g></g><clipPath id="1ea9f0e91f"><path d="M 19.25 3.472656 L 252.054688 3.472656 L 252.054688 147.195312 L 19.25 147.195312 Z M 19.25 3.472656 " clip-rule="nonzero"></path></clipPath><mask id="7a5158569f"><g filter="url(#cd9c8f3c39)"><g filter="url(#4b5ca160fa)" transform="matrix(0.239489, 0, 0, 0.239544, 0, -0.677087)"><image x="0" y="0" width="1094" height="625" preserveAspectRatio="xMidYMid meet"></image></g></g></mask><clipPath id="e58930fd2f"><path d="M 21 47 L 250 47 L 250 141 L 21 141 Z M 21 47 " clip-rule="nonzero"></path></clipPath><clipPath id="5d21034485"><path d="M 21.539062 62.734375 L 244.851562 47.609375 L 250.113281 125.285156 L 26.800781 140.40625 Z M 21.539062 62.734375 " clip-rule="nonzero"></path></clipPath><clipPath id="9cc14491f3"><path d="M 5 1 L 228 1 L 228 93.277344 L 5 93.277344 Z M 5 1 " clip-rule="nonzero"></path></clipPath><clipPath id="9a8e74c6fb"><path d="M 0.539062 15.734375 L 223.851562 0.609375 L 229.113281 78.285156 L 5.800781 93.40625 Z M 0.539062 15.734375 " clip-rule="nonzero"></path></clipPath><clipPath id="ca8f390ce8"><path d="M 228.867188 78.089844 L 5.554688 93.210938 L 0.292969 15.539062 L 223.605469 0.414062 Z M 228.867188 78.089844 " clip-rule="nonzero"></path></clipPath><clipPath id="ed999372cf"><rect x="0" width="229" y="0" height="94"></rect></clipPath><clipPath id="055abbb1ab"><path d="M 79.382812 8.738281 L 181 8.738281 L 181 110.542969 L 79.382812 110.542969 Z M 79.382812 8.738281 " clip-rule="nonzero"></path></clipPath><clipPath id="e953607457"><rect x="0" width="189" y="0" height="44"></rect></clipPath></defs><g clip-path="url(#1ea9f0e91f)"><g mask="url(#7a5158569f)"><g transform="matrix(0.239489, 0, 0, 0.239544, 0, -0.677087)"><image x="0" y="0" width="1094" height="625" preserveAspectRatio="xMidYMid meet"></image></g></g></g><g clip-path="url(#e58930fd2f)"><g clip-path="url(#5d21034485)"><g transform="matrix(1, 0, 0, 1, 21, 47)"><g clip-path="url(#ed999372cf)"><g clip-path="url(#9cc14491f3)"><g clip-path="url(#9a8e74c6fb)"><g clip-path="url(#ca8f390ce8)"><path fill="#00025d" d="M 227.558594 59.339844 L 5.800781 93.195312 L 14.5625 19.144531 L 208.335938 1.640625 Z M 227.558594 59.339844 " fill-opacity="1" fill-rule="nonzero"></path></g></g></g></g></g></g></g><g clip-path="url(#055abbb1ab)"><path fill="#00025d" d="M 130.101562 8.738281 C 144.105469 8.738281 156.785156 14.417969 165.964844 23.59375 C 175.144531 32.773438 180.820312 45.453125 180.820312 59.460938 C 180.820312 73.460938 175.144531 86.140625 165.964844 95.320312 C 156.785156 104.503906 144.105469 110.179688 130.101562 110.179688 C 116.097656 110.179688 103.417969 104.503906 94.238281 95.320312 C 85.058594 86.140625 79.382812 73.460938 79.382812 59.460938 C 79.382812 45.453125 85.058594 32.773438 94.238281 23.59375 C 103.417969 14.417969 116.097656 8.738281 130.101562 8.738281 Z M 171.207031 35.894531 C 170.875 35.882812 170.542969 35.871094 170.210938 35.859375 C 168.402344 33.457031 165.960938 31.535156 163.425781 29.679688 C 165.542969 32.136719 167.421875 34.695312 168.636719 37.515625 L 169.101562 57.074219 L 175.050781 74.460938 C 172.820312 81.140625 169.144531 87.15625 164.394531 92.144531 L 153.605469 95.5625 L 143.0625 105.039062 C 138.941406 106.210938 134.59375 106.835938 130.101562 106.835938 C 125.984375 106.835938 121.988281 106.308594 118.179688 105.320312 L 112.046875 94.371094 C 106.253906 91.632812 100.460938 88.886719 94.664062 86.148438 C 92.957031 83.332031 91.765625 80.265625 90.804688 77.078125 C 90.792969 80.328125 91.316406 83.582031 92.617188 86.832031 C 92.519531 87.238281 92.417969 87.640625 92.324219 88.046875 C 86.3125 80.113281 82.742188 70.234375 82.726562 59.519531 C 84.359375 60.425781 85.992188 61.335938 87.628906 62.242188 C 88.144531 65.613281 89.101562 68.984375 90.179688 72.351562 C 89.875 68.933594 89.703125 65.515625 90.148438 62.09375 L 100.128906 53.5 C 100.074219 46.945312 100.023438 40.394531 99.96875 33.839844 C 101.601562 31.097656 104.039062 28.757812 106.761719 26.5625 C 103.777344 28.175781 100.9375 30.03125 98.496094 32.550781 L 91.105469 32.550781 C 92.742188 30.191406 94.582031 27.984375 96.601562 25.960938 C 103.464844 19.101562 112.421875 14.332031 122.429688 12.703125 C 120.925781 14.839844 119.421875 16.980469 117.917969 19.117188 C 115.445312 20.609375 113.050781 22.320312 110.761719 24.355469 C 113.417969 23.101562 116.078125 22.140625 118.734375 21.609375 L 137.316406 30.578125 C 142.367188 28.050781 147.421875 25.519531 152.472656 22.992188 C 155.5 23.867188 157.679688 25.253906 159.792969 26.679688 C 158.253906 24.621094 156.3125 22.648438 153.136719 20.953125 L 151.800781 17.339844 C 156.175781 19.597656 160.152344 22.511719 163.597656 25.960938 C 166.550781 28.914062 169.113281 32.25 171.207031 35.894531 Z M 137.304688 32.863281 C 136.863281 38.460938 135.996094 44.054688 134.191406 49.652344 L 117.925781 59.140625 C 113.042969 58.429688 108.160156 56.980469 103.273438 54.457031 C 107.351562 58.761719 111.65625 61.933594 116.1875 63.976562 L 121.925781 82.230469 C 119.847656 86.90625 116.859375 90.679688 112.96875 93.546875 C 117.921875 91.347656 122.191406 88.246094 125.777344 84.234375 L 144.320312 85.414062 L 152.488281 94.078125 L 147.773438 83.359375 L 154.597656 66.472656 C 159.230469 64.164062 163.632812 61.175781 167.8125 57.507812 C 163.144531 59.71875 158.289062 61.1875 153.164062 61.582031 L 139.144531 50.464844 C 139.4375 44.597656 138.824219 38.730469 137.304688 32.863281 Z M 137.304688 32.863281 " fill-opacity="1" fill-rule="evenodd"></path></g><g fill="#58d833" fill-opacity="1"><g transform="translate(41.838428, 93.600133)"><g><path d="M 0.625 -0.09375 L -1.859375 -16.59375 L 7.890625 -18.0625 L 8.703125 -12.671875 L 9.953125 -12.859375 L 6.203125 -37.75 L 15.96875 -39.21875 L 21.390625 -3.21875 Z M 0.625 -0.09375 "></path></g></g></g><g fill="#58d833" fill-opacity="1"><g transform="translate(63.847129, 90.284382)"><g><path d="M -4.796875 -36.09375 L 15.96875 -39.21875 L 21.390625 -3.21875 L 0.625 -0.09375 Z M 9.953125 -12.859375 L 7.9375 -26.171875 L 6.6875 -25.984375 L 8.703125 -12.671875 Z M 9.953125 -12.859375 "></path></g></g></g><g fill="#58d833" fill-opacity="1"><g transform="translate(85.855831, 86.968631)"><g><path d="M 6.640625 -26.390625 L 8.703125 -12.671875 L 9.953125 -12.859375 L 8.0625 -25.359375 L 17.828125 -26.828125 L 21.390625 -3.21875 L 0.625 -0.09375 L -4.796875 -36.09375 L 15.96875 -39.21875 L 17.65625 -28.046875 Z M 6.640625 -26.390625 "></path></g></g></g><g fill="#58d833" fill-opacity="1"><g transform="translate(107.864532, 83.65288)"><g><path d="M -4.796875 -36.09375 L 15.96875 -39.21875 L 21.390625 -3.21875 L 11.625 -1.75 L 10.09375 -11.890625 L 8.84375 -11.703125 L 10.375 -1.5625 L 0.625 -0.09375 Z M 8.984375 -19.28125 L 7.9375 -26.171875 L 6.6875 -25.984375 L 7.734375 -19.09375 Z M 8.984375 -19.28125 "></path></g></g></g><g fill="#58d833" fill-opacity="1"><g transform="translate(129.873233, 80.337129)"><g></g></g></g><g fill="#58d833" fill-opacity="1"><g transform="translate(140.157677, 78.787712)"><g><path d="M 15.96875 -39.21875 L 18.625 -21.578125 L 15.4375 -21.09375 L 15.59375 -20.390625 L 18.734375 -20.859375 L 21.390625 -3.21875 L 0.625 -0.09375 L -4.796875 -36.09375 Z M 8.34375 -23.546875 L 7.328125 -30.28125 L 6.078125 -30.09375 L 7.09375 -23.359375 Z M 10.40625 -9.8125 L 9.390625 -16.546875 L 8.140625 -16.359375 L 9.15625 -9.625 Z M 10.40625 -9.8125 "></path></g></g></g><g fill="#58d833" fill-opacity="1"><g transform="translate(162.166379, 75.471961)"><g><path d="M -4.796875 -36.09375 L 15.96875 -39.21875 L 21.390625 -3.21875 L 0.625 -0.09375 Z M 9.953125 -12.859375 L 7.9375 -26.171875 L 6.6875 -25.984375 L 8.703125 -12.671875 Z M 9.953125 -12.859375 "></path></g></g></g><g fill="#58d833" fill-opacity="1"><g transform="translate(184.17508, 72.15621)"><g><path d="M 20.875 -3.140625 L 0.625 -0.09375 L -4.796875 -36.09375 L 4.953125 -37.5625 L 9.25 -9.078125 L 19.75 -10.65625 Z M 20.875 -3.140625 "></path></g></g></g><g fill="#58d833" fill-opacity="1"><g transform="translate(205.66956, 68.91793)"><g><path d="M -4.796875 -36.09375 L 15.96875 -39.21875 L 21.390625 -3.21875 L 11.625 -1.75 L 10.09375 -11.890625 L 8.84375 -11.703125 L 10.375 -1.5625 L 0.625 -0.09375 Z M 8.984375 -19.28125 L 7.9375 -26.171875 L 6.6875 -25.984375 L 7.734375 -19.09375 Z M 8.984375 -19.28125 "></path></g></g></g><g fill="#00025d" fill-opacity="1"><g transform="translate(39.798633, 92.094483)"><g><path d="M -0.828125 0.125 L -3.535156 -17.828125 L 9.128906 -19.734375 L 10.160156 -12.890625 L 8.714844 -12.671875 L 8.496094 -14.117188 L 9.730469 -14.304688 L 9.949219 -12.859375 L 8.5 -12.640625 L 4.535156 -38.976562 L 17.199219 -40.882812 L 23.054688 -1.996094 L -0.613281 1.570312 Z M 2.0625 -0.3125 L 0.617188 -0.09375 L 0.398438 -1.539062 L 21.175781 -4.667969 L 21.390625 -3.222656 L 19.945312 -3.003906 L 14.523438 -39 L 15.96875 -39.21875 L 16.1875 -37.773438 L 6.417969 -36.300781 L 6.199219 -37.746094 L 7.644531 -37.964844 L 11.613281 -11.628906 L 7.484375 -11.007812 L 6.453125 -17.855469 L 7.902344 -18.070312 L 8.117188 -16.625 L -1.652344 -15.152344 L -1.871094 -16.601562 L -0.421875 -16.816406 Z M 2.0625 -0.3125 "></path></g></g></g><g fill="#00025d" fill-opacity="1"><g transform="translate(61.807334, 88.778732)"><g><path d="M -5.023438 -37.535156 L 17.199219 -40.882812 L 23.054688 -1.996094 L -0.613281 1.570312 L -6.46875 -37.316406 Z M -4.589844 -34.644531 L -4.804688 -36.089844 L -3.359375 -36.308594 L 2.0625 -0.3125 L 0.617188 -0.09375 L 0.398438 -1.539062 L 21.175781 -4.667969 L 21.390625 -3.222656 L 19.945312 -3.003906 L 14.523438 -39 L 15.96875 -39.21875 L 16.1875 -37.773438 Z M 8.5 -12.640625 L 6.496094 -25.957031 L 7.941406 -26.175781 L 8.160156 -24.730469 L 6.925781 -24.542969 L 6.707031 -25.992188 L 8.152344 -26.207031 L 10.160156 -12.890625 L 8.714844 -12.671875 L 8.496094 -14.117188 L 9.730469 -14.304688 L 9.949219 -12.859375 Z M 11.613281 -11.628906 L 7.484375 -11.007812 L 5.042969 -27.21875 L 9.171875 -27.839844 L 11.394531 -13.078125 Z M 11.613281 -11.628906 "></path></g></g></g><g fill="#00025d" fill-opacity="1"><g transform="translate(83.816036, 85.462981)"><g><path d="M 8.09375 -26.621094 L 10.160156 -12.890625 L 8.714844 -12.671875 L 8.496094 -14.117188 L 9.730469 -14.304688 L 9.949219 -12.859375 L 8.5 -12.640625 L 6.402344 -26.582031 L 19.066406 -28.492188 L 23.054688 -1.996094 L -0.613281 1.570312 L -6.46875 -37.316406 L 17.199219 -40.882812 L 19.3125 -26.832031 L 6.863281 -24.957031 L 6.644531 -26.402344 Z M 4.980469 -27.628906 L 17.433594 -29.507812 L 17.648438 -28.058594 L 16.203125 -27.84375 L 14.523438 -39 L 15.96875 -39.21875 L 16.1875 -37.773438 L -4.589844 -34.644531 L -4.804688 -36.089844 L -3.359375 -36.308594 L 2.0625 -0.3125 L 0.617188 -0.09375 L 0.398438 -1.539062 L 21.175781 -4.667969 L 21.390625 -3.222656 L 19.945312 -3.003906 L 16.390625 -26.609375 L 17.835938 -26.824219 L 18.054688 -25.378906 L 8.285156 -23.90625 L 8.066406 -25.355469 L 9.511719 -25.570312 L 11.613281 -11.628906 L 7.484375 -11.007812 L 5.199219 -26.183594 Z M 4.980469 -27.628906 "></path></g></g></g><g fill="#00025d" fill-opacity="1"><g transform="translate(105.824737, 82.14723)"><g><path d="M -5.023438 -37.535156 L 17.199219 -40.882812 L 23.054688 -1.996094 L 10.394531 -0.0859375 L 8.648438 -11.664062 L 10.09375 -11.882812 L 10.3125 -10.433594 L 9.078125 -10.25 L 8.859375 -11.695312 L 10.308594 -11.914062 L 12.050781 -0.335938 L -0.613281 1.570312 L -6.46875 -37.316406 Z M -4.589844 -34.644531 L -4.804688 -36.089844 L -3.359375 -36.308594 L 2.0625 -0.3125 L 0.617188 -0.09375 L 0.398438 -1.539062 L 10.167969 -3.011719 L 10.386719 -1.566406 L 8.941406 -1.347656 L 7.195312 -12.921875 L 11.324219 -13.546875 L 13.066406 -1.96875 L 11.621094 -1.75 L 11.402344 -3.195312 L 21.175781 -4.667969 L 21.390625 -3.222656 L 19.945312 -3.003906 L 14.523438 -39 L 15.96875 -39.21875 L 16.1875 -37.773438 Z M 7.535156 -19.066406 L 6.496094 -25.957031 L 7.941406 -26.175781 L 8.160156 -24.730469 L 6.925781 -24.542969 L 6.707031 -25.992188 L 8.152344 -26.207031 L 9.191406 -19.316406 L 7.746094 -19.101562 L 7.527344 -20.546875 L 8.761719 -20.734375 L 8.980469 -19.285156 Z M 10.644531 -18.058594 L 6.515625 -17.4375 L 5.042969 -27.21875 L 9.171875 -27.839844 L 10.425781 -19.503906 Z M 10.644531 -18.058594 "></path></g></g></g><g fill="#00025d" fill-opacity="1"><g transform="translate(127.833438, 78.831479)"><g></g></g></g><g fill="#00025d" fill-opacity="1"><g transform="translate(138.117882, 77.282062)"><g><path d="M 17.414062 -39.4375 L 20.289062 -20.351562 L 15.65625 -19.652344 L 15.4375 -21.101562 L 16.863281 -21.421875 L 17.023438 -20.707031 L 15.597656 -20.386719 L 15.378906 -21.835938 L 19.964844 -22.523438 L 23.054688 -1.996094 L -0.613281 1.570312 L -6.46875 -37.316406 L 17.199219 -40.882812 Z M 14.523438 -39 L 15.96875 -39.21875 L 16.1875 -37.773438 L -4.589844 -34.644531 L -4.804688 -36.089844 L -3.359375 -36.308594 L 2.0625 -0.3125 L 0.617188 -0.09375 L 0.398438 -1.539062 L 21.175781 -4.667969 L 21.390625 -3.222656 L 19.945312 -3.003906 L 17.289062 -20.644531 L 18.734375 -20.859375 L 18.953125 -19.414062 L 14.46875 -18.738281 L 13.667969 -22.3125 L 18.410156 -23.027344 L 18.625 -21.582031 L 17.179688 -21.363281 Z M 6.890625 -23.335938 L 5.875 -30.074219 L 7.320312 -30.289062 L 7.539062 -28.84375 L 6.304688 -28.660156 L 6.085938 -30.105469 L 7.535156 -30.324219 L 8.550781 -23.585938 L 7.101562 -23.367188 L 6.882812 -24.816406 L 8.117188 -25 L 8.335938 -23.554688 Z M 10 -22.324219 L 5.875 -21.703125 L 4.421875 -31.332031 L 8.550781 -31.953125 L 9.78125 -23.773438 Z M 8.957031 -9.605469 L 7.945312 -16.34375 L 9.390625 -16.5625 L 9.609375 -15.113281 L 8.375 -14.929688 L 8.15625 -16.375 L 9.601562 -16.59375 L 10.617188 -9.855469 L 9.171875 -9.636719 L 8.953125 -11.085938 L 10.1875 -11.269531 L 10.40625 -9.824219 Z M 12.070312 -8.597656 L 7.941406 -7.972656 L 6.492188 -17.601562 L 10.617188 -18.226562 L 11.851562 -10.042969 Z M 12.070312 -8.597656 "></path></g></g></g><g fill="#00025d" fill-opacity="1"><g transform="translate(160.126584, 73.966311)"><g><path d="M -5.023438 -37.535156 L 17.199219 -40.882812 L 23.054688 -1.996094 L -0.613281 1.570312 L -6.46875 -37.316406 Z M -4.589844 -34.644531 L -4.804688 -36.089844 L -3.359375 -36.308594 L 2.0625 -0.3125 L 0.617188 -0.09375 L 0.398438 -1.539062 L 21.175781 -4.667969 L 21.390625 -3.222656 L 19.945312 -3.003906 L 14.523438 -39 L 15.96875 -39.21875 L 16.1875 -37.773438 Z M 8.5 -12.640625 L 6.496094 -25.957031 L 7.941406 -26.175781 L 8.160156 -24.730469 L 6.925781 -24.542969 L 6.707031 -25.992188 L 8.152344 -26.207031 L 10.160156 -12.890625 L 8.714844 -12.671875 L 8.496094 -14.117188 L 9.730469 -14.304688 L 9.949219 -12.859375 Z M 11.613281 -11.628906 L 7.484375 -11.007812 L 5.042969 -27.21875 L 9.171875 -27.839844 L 11.394531 -13.078125 Z M 11.613281 -11.628906 "></path></g></g></g><g fill="#00025d" fill-opacity="1"><g transform="translate(182.135285, 70.65056)"><g><path d="M 21.09375 -1.699219 L -0.613281 1.570312 L -6.46875 -37.316406 L 6.191406 -39.226562 L 10.703125 -9.289062 L 9.257812 -9.074219 L 9.039062 -10.519531 L 20.976562 -12.316406 L 22.542969 -1.917969 Z M 20.660156 -4.589844 L 20.878906 -3.144531 L 19.429688 -2.925781 L 18.300781 -10.433594 L 19.746094 -10.652344 L 19.964844 -9.207031 L 8.027344 -7.410156 L 3.519531 -37.34375 L 4.964844 -37.5625 L 5.183594 -36.113281 L -4.589844 -34.644531 L -4.804688 -36.089844 L -3.359375 -36.308594 L 2.0625 -0.3125 L 0.617188 -0.09375 L 0.398438 -1.539062 Z M 20.660156 -4.589844 "></path></g></g></g><g fill="#00025d" fill-opacity="1"><g transform="translate(203.629765, 67.41228)"><g><path d="M -5.023438 -37.535156 L 17.199219 -40.882812 L 23.054688 -1.996094 L 10.394531 -0.0859375 L 8.648438 -11.664062 L 10.09375 -11.882812 L 10.3125 -10.433594 L 9.078125 -10.25 L 8.859375 -11.695312 L 10.308594 -11.914062 L 12.050781 -0.335938 L -0.613281 1.570312 L -6.46875 -37.316406 Z M -4.589844 -34.644531 L -4.804688 -36.089844 L -3.359375 -36.308594 L 2.0625 -0.3125 L 0.617188 -0.09375 L 0.398438 -1.539062 L 10.167969 -3.011719 L 10.386719 -1.566406 L 8.941406 -1.347656 L 7.195312 -12.921875 L 11.324219 -13.546875 L 13.066406 -1.96875 L 11.621094 -1.75 L 11.402344 -3.195312 L 21.175781 -4.667969 L 21.390625 -3.222656 L 19.945312 -3.003906 L 14.523438 -39 L 15.96875 -39.21875 L 16.1875 -37.773438 Z M 7.535156 -19.066406 L 6.496094 -25.957031 L 7.941406 -26.175781 L 8.160156 -24.730469 L 6.925781 -24.542969 L 6.707031 -25.992188 L 8.152344 -26.207031 L 9.191406 -19.316406 L 7.746094 -19.101562 L 7.527344 -20.546875 L 8.761719 -20.734375 L 8.980469 -19.285156 Z M 10.644531 -18.058594 L 6.515625 -17.4375 L 5.042969 -27.21875 L 9.171875 -27.839844 L 10.425781 -19.503906 Z M 10.644531 -18.058594 "></path></g></g></g><g transform="matrix(1, 0, 0, 1, 41, 75)"><g clip-path="url(#e953607457)"><g fill="#000000" fill-opacity="1"><g transform="translate(3.145043, 41.400999)"><g><path d="M 7.265625 -7.09375 L 1.453125 -6.1875 L 1.640625 -5.046875 L 7.453125 -5.953125 L 7.71875 -4.171875 L 1.90625 -3.265625 L 2.078125 -2.15625 L 7.890625 -3.0625 L 8.171875 -1.265625 L 0.578125 -0.09375 L -0.59375 -7.703125 L 7 -8.875 Z M 7.265625 -7.09375 "></path></g></g></g><g fill="#000000" fill-opacity="1"><g transform="translate(12.316952, 39.984177)"><g><path d="M 5.203125 -8.59375 L 7 -8.875 L 8.1875 -1.203125 L 8.09375 -1.25 L 6.375 -0.984375 L 6.1875 -2.21875 L 1.734375 -4.453125 L 2.359375 -0.359375 L 0.578125 -0.09375 L -0.59375 -7.703125 L 1.1875 -7.96875 L 1.375 -6.71875 L 5.828125 -4.484375 Z M 5.203125 -8.59375 "></path></g></g></g><g fill="#000000" fill-opacity="1"><g transform="translate(21.488861, 38.567355)"><g><path d="M -0.59375 -7.703125 L 7 -8.875 L 7.265625 -7.09375 L 1.453125 -6.1875 L 2.078125 -2.15625 L 7.890625 -3.0625 L 8.171875 -1.265625 L 0.578125 -0.09375 Z M -0.59375 -7.703125 "></path></g></g></g><g fill="#000000" fill-opacity="1"><g transform="translate(30.66077, 37.150532)"><g><path d="M 1.453125 -6.1875 L 2.078125 -2.15625 L 6.09375 -2.78125 L 5.46875 -6.8125 Z M 0.578125 -0.09375 L -0.59375 -7.703125 L 7 -8.875 L 8.171875 -1.265625 Z M 0.578125 -0.09375 "></path></g></g></g><g fill="#000000" fill-opacity="1"><g transform="translate(39.832679, 35.73371)"><g><path d="M 5.203125 -8.59375 L 7 -8.875 L 8.1875 -1.203125 L 8.09375 -1.25 L 6.375 -0.984375 L 6.1875 -2.21875 L 1.734375 -4.453125 L 2.359375 -0.359375 L 0.578125 -0.09375 L -0.59375 -7.703125 L 1.1875 -7.96875 L 1.375 -6.71875 L 5.828125 -4.484375 Z M 5.203125 -8.59375 "></path></g></g></g><g fill="#000000" fill-opacity="1"><g transform="translate(49.004588, 34.316888)"><g><path d="M -0.59375 -7.703125 L 7 -8.875 L 7.265625 -7.09375 L 4.359375 -6.640625 L 5.265625 -0.8125 L 3.46875 -0.53125 L 2.5625 -6.359375 L -0.328125 -5.921875 Z M -0.59375 -7.703125 "></path></g></g></g><g fill="#000000" fill-opacity="1"><g transform="translate(58.176497, 32.900066)"><g><path d="M -0.59375 -7.703125 L 7 -8.875 L 7.953125 -2.71875 L 6.5 -2.484375 L 8.15625 -1.265625 L 5.96875 -0.921875 L 4.34375 -2.15625 L 2.140625 -1.8125 L 2.359375 -0.359375 L 0.578125 -0.09375 Z M 1.859375 -3.609375 L 5.875 -4.234375 L 5.46875 -6.8125 L 1.453125 -6.1875 Z M 1.859375 -3.609375 "></path></g></g></g><g fill="#000000" fill-opacity="1"><g transform="translate(67.348407, 31.483244)"><g><path d="M 7.265625 -7.09375 L 1.453125 -6.1875 L 1.640625 -5.046875 L 7.453125 -5.953125 L 7.71875 -4.171875 L 1.90625 -3.265625 L 2.078125 -2.15625 L 7.890625 -3.0625 L 8.171875 -1.265625 L 0.578125 -0.09375 L -0.59375 -7.703125 L 7 -8.875 Z M 7.265625 -7.09375 "></path></g></g></g><g fill="#000000" fill-opacity="1"><g transform="translate(76.520316, 30.066421)"><g></g></g></g><g fill="#000000" fill-opacity="1"><g transform="translate(83.762263, 28.947728)"><g><path d="M 7 -8.875 L 8.171875 -1.265625 L 6.375 -0.984375 L 6.15625 -2.4375 L 2.140625 -1.8125 L 2.359375 -0.359375 L 0.578125 -0.09375 L -0.59375 -7.703125 Z M 1.859375 -3.609375 L 5.875 -4.234375 L 5.46875 -6.8125 L 1.453125 -6.1875 Z M 1.859375 -3.609375 "></path></g></g></g><g fill="#000000" fill-opacity="1"><g transform="translate(92.934172, 27.530906)"><g></g></g></g><g fill="#000000" fill-opacity="1"><g transform="translate(100.17612, 26.412213)"><g><path d="M 0.296875 -1.890625 L 6.09375 -2.78125 L 5.921875 -3.890625 L 0.125 -3 L -0.59375 -7.703125 L 7 -8.875 L 7.265625 -7.09375 L 1.453125 -6.1875 L 1.640625 -5.046875 L 7.453125 -5.953125 L 8.171875 -1.265625 L 0.578125 -0.09375 Z M 0.296875 -1.890625 "></path></g></g></g><g fill="#000000" fill-opacity="1"><g transform="translate(109.348029, 24.995391)"><g><path d="M 1.1875 -7.96875 L 2.078125 -2.15625 L 6.09375 -2.78125 L 5.203125 -8.59375 L 7 -8.875 L 8.171875 -1.265625 L 0.578125 -0.09375 L -0.59375 -7.703125 Z M 1.1875 -7.96875 "></path></g></g></g><g fill="#000000" fill-opacity="1"><g transform="translate(118.519938, 23.578568)"><g><path d="M 7 -8.875 L 8.171875 -1.265625 L 6.375 -0.984375 L 6.15625 -2.4375 L 2.140625 -1.8125 L 2.359375 -0.359375 L 0.578125 -0.09375 L -0.59375 -7.703125 Z M 1.859375 -3.609375 L 5.875 -4.234375 L 5.46875 -6.8125 L 1.453125 -6.1875 Z M 1.859375 -3.609375 "></path></g></g></g><g fill="#000000" fill-opacity="1"><g transform="translate(127.691847, 22.161746)"><g></g></g></g><g fill="#000000" fill-opacity="1"><g transform="translate(134.933802, 21.043052)"><g><path d="M 9.921875 -9.328125 L 11.09375 -1.71875 L 9.296875 -1.4375 L 8.390625 -7.265625 L 5.828125 -6.84375 L 6.71875 -1.03125 L 4.921875 -0.765625 L 4.03125 -6.578125 L 1.453125 -6.1875 L 2.359375 -0.359375 L 0.578125 -0.09375 L -0.59375 -7.703125 Z M 9.921875 -9.328125 "></path></g></g></g><g fill="#000000" fill-opacity="1"><g transform="translate(147.011999, 19.177284)"><g><path d="M 7 -8.875 L 8.171875 -1.265625 L 6.375 -0.984375 L 6.15625 -2.4375 L 2.140625 -1.8125 L 2.359375 -0.359375 L 0.578125 -0.09375 L -0.59375 -7.703125 Z M 1.859375 -3.609375 L 5.875 -4.234375 L 5.46875 -6.8125 L 1.453125 -6.1875 Z M 1.859375 -3.609375 "></path></g></g></g><g fill="#000000" fill-opacity="1"><g transform="translate(156.183901, 17.760463)"><g><path d="M 8.171875 -1.265625 L 0.578125 -0.09375 L -0.59375 -7.703125 L 1.1875 -7.96875 L 2.078125 -2.15625 L 7.890625 -3.0625 Z M 8.171875 -1.265625 "></path></g></g></g><g fill="#000000" fill-opacity="1"><g transform="translate(165.355817, 16.343639)"><g><path d="M -0.59375 -7.703125 L 7 -8.875 L 7.265625 -7.09375 L 4.359375 -6.640625 L 5.265625 -0.8125 L 3.46875 -0.53125 L 2.5625 -6.359375 L -0.328125 -5.921875 Z M -0.59375 -7.703125 "></path></g></g></g><g fill="#000000" fill-opacity="1"><g transform="translate(174.527733, 14.926816)"><g><path d="M 7 -8.875 L 8.171875 -1.265625 L 6.375 -0.984375 L 6.15625 -2.4375 L 2.140625 -1.8125 L 2.359375 -0.359375 L 0.578125 -0.09375 L -0.59375 -7.703125 Z M 1.859375 -3.609375 L 5.875 -4.234375 L 5.46875 -6.8125 L 1.453125 -6.1875 Z M 1.859375 -3.609375 "></path></g></g></g><g fill="#000000" fill-opacity="1"><g transform="translate(183.699635, 13.509995)"><g><path d="M 1.1875 -7.96875 L 1.90625 -3.265625 L 0.125 -3 L -0.59375 -7.703125 Z M 0.578125 -0.09375 L 0.296875 -1.890625 L 2.078125 -2.15625 L 2.359375 -0.359375 Z M 0.578125 -0.09375 "></path></g></g></g><g fill="#ffffff" fill-opacity="1"><g transform="translate(3.624985, 40.506614)"><g><path d="M 7.265625 -7.09375 L 1.453125 -6.1875 L 1.640625 -5.046875 L 7.453125 -5.953125 L 7.71875 -4.171875 L 1.90625 -3.265625 L 2.078125 -2.15625 L 7.890625 -3.0625 L 8.171875 -1.265625 L 0.578125 -0.09375 L -0.59375 -7.703125 L 7 -8.875 Z M 7.265625 -7.09375 "></path></g></g></g><g fill="#ffffff" fill-opacity="1"><g transform="translate(12.796894, 39.089792)"><g><path d="M 5.203125 -8.59375 L 7 -8.875 L 8.1875 -1.203125 L 8.09375 -1.25 L 6.375 -0.984375 L 6.1875 -2.21875 L 1.734375 -4.453125 L 2.359375 -0.359375 L 0.578125 -0.09375 L -0.59375 -7.703125 L 1.1875 -7.96875 L 1.375 -6.71875 L 5.828125 -4.484375 Z M 5.203125 -8.59375 "></path></g></g></g><g fill="#ffffff" fill-opacity="1"><g transform="translate(21.968804, 37.672969)"><g><path d="M -0.59375 -7.703125 L 7 -8.875 L 7.265625 -7.09375 L 1.453125 -6.1875 L 2.078125 -2.15625 L 7.890625 -3.0625 L 8.171875 -1.265625 L 0.578125 -0.09375 Z M -0.59375 -7.703125 "></path></g></g></g><g fill="#ffffff" fill-opacity="1"><g transform="translate(31.140713, 36.256147)"><g><path d="M 1.453125 -6.1875 L 2.078125 -2.15625 L 6.09375 -2.78125 L 5.46875 -6.8125 Z M 0.578125 -0.09375 L -0.59375 -7.703125 L 7 -8.875 L 8.171875 -1.265625 Z M 0.578125 -0.09375 "></path></g></g></g><g fill="#ffffff" fill-opacity="1"><g transform="translate(40.312622, 34.839325)"><g><path d="M 5.203125 -8.59375 L 7 -8.875 L 8.1875 -1.203125 L 8.09375 -1.25 L 6.375 -0.984375 L 6.1875 -2.21875 L 1.734375 -4.453125 L 2.359375 -0.359375 L 0.578125 -0.09375 L -0.59375 -7.703125 L 1.1875 -7.96875 L 1.375 -6.71875 L 5.828125 -4.484375 Z M 5.203125 -8.59375 "></path></g></g></g><g fill="#ffffff" fill-opacity="1"><g transform="translate(49.484531, 33.422503)"><g><path d="M -0.59375 -7.703125 L 7 -8.875 L 7.265625 -7.09375 L 4.359375 -6.640625 L 5.265625 -0.8125 L 3.46875 -0.53125 L 2.5625 -6.359375 L -0.328125 -5.921875 Z M -0.59375 -7.703125 "></path></g></g></g><g fill="#ffffff" fill-opacity="1"><g transform="translate(58.65644, 32.005681)"><g><path d="M -0.59375 -7.703125 L 7 -8.875 L 7.953125 -2.71875 L 6.5 -2.484375 L 8.15625 -1.265625 L 5.96875 -0.921875 L 4.34375 -2.15625 L 2.140625 -1.8125 L 2.359375 -0.359375 L 0.578125 -0.09375 Z M 1.859375 -3.609375 L 5.875 -4.234375 L 5.46875 -6.8125 L 1.453125 -6.1875 Z M 1.859375 -3.609375 "></path></g></g></g><g fill="#ffffff" fill-opacity="1"><g transform="translate(67.828349, 30.588858)"><g><path d="M 7.265625 -7.09375 L 1.453125 -6.1875 L 1.640625 -5.046875 L 7.453125 -5.953125 L 7.71875 -4.171875 L 1.90625 -3.265625 L 2.078125 -2.15625 L 7.890625 -3.0625 L 8.171875 -1.265625 L 0.578125 -0.09375 L -0.59375 -7.703125 L 7 -8.875 Z M 7.265625 -7.09375 "></path></g></g></g><g fill="#ffffff" fill-opacity="1"><g transform="translate(84.242206, 28.053343)"><g><path d="M 7 -8.875 L 8.171875 -1.265625 L 6.375 -0.984375 L 6.15625 -2.4375 L 2.140625 -1.8125 L 2.359375 -0.359375 L 0.578125 -0.09375 L -0.59375 -7.703125 Z M 1.859375 -3.609375 L 5.875 -4.234375 L 5.46875 -6.8125 L 1.453125 -6.1875 Z M 1.859375 -3.609375 "></path></g></g></g><g fill="#ffffff" fill-opacity="1"><g transform="translate(93.414115, 26.636521)"><g></g></g></g><g fill="#ffffff" fill-opacity="1"><g transform="translate(100.656062, 25.517828)"><g><path d="M 0.296875 -1.890625 L 6.09375 -2.78125 L 5.921875 -3.890625 L 0.125 -3 L -0.59375 -7.703125 L 7 -8.875 L 7.265625 -7.09375 L 1.453125 -6.1875 L 1.640625 -5.046875 L 7.453125 -5.953125 L 8.171875 -1.265625 L 0.578125 -0.09375 Z M 0.296875 -1.890625 "></path></g></g></g><g fill="#ffffff" fill-opacity="1"><g transform="translate(109.827972, 24.101005)"><g><path d="M 1.1875 -7.96875 L 2.078125 -2.15625 L 6.09375 -2.78125 L 5.203125 -8.59375 L 7 -8.875 L 8.171875 -1.265625 L 0.578125 -0.09375 L -0.59375 -7.703125 Z M 1.1875 -7.96875 "></path></g></g></g><g fill="#ffffff" fill-opacity="1"><g transform="translate(118.999881, 22.684183)"><g><path d="M 7 -8.875 L 8.171875 -1.265625 L 6.375 -0.984375 L 6.15625 -2.4375 L 2.140625 -1.8125 L 2.359375 -0.359375 L 0.578125 -0.09375 L -0.59375 -7.703125 Z M 1.859375 -3.609375 L 5.875 -4.234375 L 5.46875 -6.8125 L 1.453125 -6.1875 Z M 1.859375 -3.609375 "></path></g></g></g><g fill="#ffffff" fill-opacity="1"><g transform="translate(128.17179, 21.267361)"><g></g></g></g><g fill="#ffffff" fill-opacity="1"><g transform="translate(135.413744, 20.148667)"><g><path d="M 9.921875 -9.328125 L 11.09375 -1.71875 L 9.296875 -1.4375 L 8.390625 -7.265625 L 5.828125 -6.84375 L 6.71875 -1.03125 L 4.921875 -0.765625 L 4.03125 -6.578125 L 1.453125 -6.1875 L 2.359375 -0.359375 L 0.578125 -0.09375 L -0.59375 -7.703125 Z M 9.921875 -9.328125 "></path></g></g></g><g fill="#ffffff" fill-opacity="1"><g transform="translate(147.491941, 18.282898)"><g><path d="M 7 -8.875 L 8.171875 -1.265625 L 6.375 -0.984375 L 6.15625 -2.4375 L 2.140625 -1.8125 L 2.359375 -0.359375 L 0.578125 -0.09375 L -0.59375 -7.703125 Z M 1.859375 -3.609375 L 5.875 -4.234375 L 5.46875 -6.8125 L 1.453125 -6.1875 Z M 1.859375 -3.609375 "></path></g></g></g><g fill="#ffffff" fill-opacity="1"><g transform="translate(156.663843, 16.866077)"><g><path d="M 8.171875 -1.265625 L 0.578125 -0.09375 L -0.59375 -7.703125 L 1.1875 -7.96875 L 2.078125 -2.15625 L 7.890625 -3.0625 Z M 8.171875 -1.265625 "></path></g></g></g><g fill="#ffffff" fill-opacity="1"><g transform="translate(165.83576, 15.449254)"><g><path d="M -0.59375 -7.703125 L 7 -8.875 L 7.265625 -7.09375 L 4.359375 -6.640625 L 5.265625 -0.8125 L 3.46875 -0.53125 L 2.5625 -6.359375 L -0.328125 -5.921875 Z M -0.59375 -7.703125 "></path></g></g></g><g fill="#ffffff" fill-opacity="1"><g transform="translate(175.007676, 14.032431)"><g><path d="M 7 -8.875 L 8.171875 -1.265625 L 6.375 -0.984375 L 6.15625 -2.4375 L 2.140625 -1.8125 L 2.359375 -0.359375 L 0.578125 -0.09375 L -0.59375 -7.703125 Z M 1.859375 -3.609375 L 5.875 -4.234375 L 5.46875 -6.8125 L 1.453125 -6.1875 Z M 1.859375 -3.609375 "></path></g></g></g><g fill="#ffffff" fill-opacity="1"><g transform="translate(184.179578, 12.615609)"><g><path d="M 1.1875 -7.96875 L 1.90625 -3.265625 L 0.125 -3 L -0.59375 -7.703125 Z M 0.578125 -0.09375 L 0.296875 -1.890625 L 2.078125 -2.15625 L 2.359375 -0.359375 Z M 0.578125 -0.09375 "></path></g></g></g></g></g></svg>