<svg xmlns="http://www.w3.org/2000/svg" xmlns:xlink="http://www.w3.org/1999/xlink" width="350" zoomAndPan="magnify" viewBox="0 0 262.5 149.999998" height="200" preserveAspectRatio="xMidYMid meet" version="1.0"><defs><g/><clipPath id="c7417428fd"><path d="M 75.917969 10.511719 L 174.871094 10.511719 L 174.871094 109.460938 L 75.917969 109.460938 Z M 75.917969 10.511719 " clip-rule="nonzero"/></clipPath><clipPath id="27f5998bcb"><path d="M 125.394531 10.511719 C 98.070312 10.511719 75.917969 32.660156 75.917969 59.988281 C 75.917969 87.3125 98.070312 109.460938 125.394531 109.460938 C 152.71875 109.460938 174.871094 87.3125 174.871094 59.988281 C 174.871094 32.660156 152.71875 10.511719 125.394531 10.511719 Z M 125.394531 10.511719 " clip-rule="nonzero"/></clipPath><clipPath id="5c86e353d4"><path d="M 0.917969 0.511719 L 99.871094 0.511719 L 99.871094 99.460938 L 0.917969 99.460938 Z M 0.917969 0.511719 " clip-rule="nonzero"/></clipPath><clipPath id="d41537ca54"><path d="M 50.394531 0.511719 C 23.070312 0.511719 0.917969 22.660156 0.917969 49.988281 C 0.917969 77.3125 23.070312 99.460938 50.394531 99.460938 C 77.71875 99.460938 99.871094 77.3125 99.871094 49.988281 C 99.871094 22.660156 77.71875 0.511719 50.394531 0.511719 Z M 50.394531 0.511719 " clip-rule="nonzero"/></clipPath><clipPath id="5235cc410e"><rect x="0" width="100" y="0" height="100"/></clipPath><clipPath id="ea1cc170be"><path d="M 16 48 L 246 48 L 246 141 L 16 141 Z M 16 48 " clip-rule="nonzero"/></clipPath><clipPath id="701ba44b67"><path d="M 16.832031 63.261719 L 240.144531 48.136719 L 245.40625 125.8125 L 22.09375 140.933594 Z M 16.832031 63.261719 " clip-rule="nonzero"/></clipPath><clipPath id="8c5bfac097"><path d="M 6 1 L 228 1 L 228 92.753906 L 6 92.753906 Z M 6 1 " clip-rule="nonzero"/></clipPath><clipPath id="441a334411"><path d="M 0.832031 15.261719 L 224.144531 0.136719 L 229.40625 77.8125 L 6.09375 92.933594 Z M 0.832031 15.261719 " clip-rule="nonzero"/></clipPath><clipPath id="788c5fc1af"><path d="M 229.15625 77.617188 L 5.84375 92.738281 L 0.585938 15.066406 L 223.898438 -0.0585938 Z M 229.15625 77.617188 " clip-rule="nonzero"/></clipPath><clipPath id="46832a9460"><rect x="0" width="230" y="0" height="93"/></clipPath><clipPath id="b8a32648ea"><path d="M 74.671875 9.265625 L 176.480469 9.265625 L 176.480469 111 L 74.671875 111 Z M 74.671875 9.265625 " clip-rule="nonzero"/></clipPath><clipPath id="e342e13310"><rect x="0" width="188" y="0" height="43"/></clipPath></defs><g clip-path="url(#c7417428fd)"><g clip-path="url(#27f5998bcb)"><g transform="matrix(1, 0, 0, 1, 75, 10)"><g clip-path="url(#5235cc410e)"><g clip-path="url(#5c86e353d4)"><g clip-path="url(#d41537ca54)"><path fill="#ffffff" d="M 0.917969 0.511719 L 99.871094 0.511719 L 99.871094 99.460938 L 0.917969 99.460938 Z M 0.917969 0.511719 " fill-opacity="1" fill-rule="nonzero"/></g></g></g></g></g></g><g clip-path="url(#ea1cc170be)"><g clip-path="url(#701ba44b67)"><g transform="matrix(1, 0, 0, 1, 16, 48)"><g clip-path="url(#46832a9460)"><g clip-path="url(#8c5bfac097)"><g clip-path="url(#441a334411)"><g clip-path="url(#788c5fc1af)"><path fill="#00025d" d="M 227.851562 58.867188 L 6.09375 92.722656 L 14.855469 18.671875 L 208.625 1.167969 Z M 227.851562 58.867188 " fill-opacity="1" fill-rule="nonzero"/></g></g></g></g></g></g></g><g clip-path="url(#b8a32648ea)"><path fill="#00025d" d="M 125.394531 9.265625 C 139.394531 9.265625 152.074219 14.945312 161.257812 24.125 C 170.433594 33.300781 176.113281 45.980469 176.113281 59.988281 C 176.113281 73.988281 170.433594 86.667969 161.257812 95.851562 C 152.074219 105.03125 139.394531 110.707031 125.394531 110.707031 C 111.390625 110.707031 98.710938 105.03125 89.53125 95.851562 C 80.351562 86.667969 74.671875 73.988281 74.671875 59.988281 C 74.671875 45.980469 80.351562 33.300781 89.53125 24.125 C 98.710938 14.945312 111.390625 9.265625 125.394531 9.265625 Z M 166.496094 36.421875 C 166.164062 36.410156 165.835938 36.398438 165.503906 36.386719 C 163.695312 33.984375 161.25 32.0625 158.71875 30.207031 C 160.835938 32.664062 162.714844 35.222656 163.929688 38.042969 L 164.390625 57.601562 L 170.34375 74.988281 C 168.113281 81.667969 164.4375 87.6875 159.683594 92.671875 L 148.894531 96.09375 L 138.351562 105.566406 C 134.230469 106.738281 129.886719 107.363281 125.394531 107.363281 C 121.277344 107.363281 117.28125 106.835938 113.472656 105.847656 L 107.339844 94.898438 C 101.546875 92.160156 95.753906 89.414062 89.957031 86.675781 C 88.25 83.859375 87.054688 80.792969 86.09375 77.605469 C 86.085938 80.859375 86.605469 84.109375 87.90625 87.359375 C 87.808594 87.765625 87.710938 88.167969 87.613281 88.574219 C 81.605469 80.640625 78.03125 70.761719 78.019531 60.046875 C 79.652344 60.953125 81.285156 61.863281 82.917969 62.769531 C 83.4375 66.140625 84.394531 69.511719 85.46875 72.878906 C 85.167969 69.460938 84.996094 66.042969 85.441406 62.621094 L 95.417969 54.027344 C 95.367188 47.472656 95.3125 40.921875 95.261719 34.367188 C 96.894531 31.625 99.328125 29.289062 102.054688 27.089844 C 99.066406 28.703125 96.230469 30.558594 93.789062 33.078125 L 86.398438 33.078125 C 88.03125 30.71875 89.871094 28.511719 91.894531 26.488281 C 98.757812 19.628906 107.710938 14.859375 117.71875 13.230469 C 116.214844 15.367188 114.714844 17.507812 113.210938 19.644531 C 110.738281 21.136719 108.34375 22.847656 106.054688 24.882812 C 108.710938 23.628906 111.367188 22.667969 114.027344 22.136719 L 132.609375 31.105469 C 137.660156 28.578125 142.714844 26.046875 147.761719 23.519531 C 150.789062 24.394531 152.972656 25.78125 155.085938 27.207031 C 153.542969 25.148438 151.605469 23.175781 148.429688 21.480469 L 147.09375 17.867188 C 151.464844 20.125 155.441406 23.039062 158.890625 26.488281 C 161.839844 29.441406 164.40625 32.777344 166.496094 36.421875 Z M 132.597656 33.390625 C 132.15625 38.988281 131.289062 44.582031 129.484375 50.179688 L 113.21875 59.667969 C 108.332031 58.957031 103.449219 57.507812 98.566406 54.984375 C 102.640625 59.289062 106.949219 62.464844 111.480469 64.503906 L 117.214844 82.757812 C 115.136719 87.4375 112.152344 91.207031 108.261719 94.074219 C 113.210938 91.875 117.480469 88.773438 121.070312 84.761719 L 139.613281 85.941406 L 147.777344 94.605469 L 143.066406 83.886719 L 149.886719 67 C 154.519531 64.691406 158.925781 61.703125 163.105469 58.035156 C 158.433594 60.246094 153.578125 61.714844 148.453125 62.109375 L 134.4375 50.992188 C 134.730469 45.125 134.117188 39.257812 132.597656 33.390625 Z M 132.597656 33.390625 " fill-opacity="1" fill-rule="evenodd"/></g><g fill="#58d833" fill-opacity="1"><g transform="translate(37.130112, 94.127769)"><g><path d="M 0.625 -0.09375 L -1.859375 -16.59375 L 7.890625 -18.0625 L 8.703125 -12.671875 L 9.953125 -12.859375 L 6.203125 -37.75 L 15.96875 -39.21875 L 21.390625 -3.21875 Z M 0.625 -0.09375 "/></g></g></g><g fill="#58d833" fill-opacity="1"><g transform="translate(59.138814, 90.812018)"><g><path d="M -4.796875 -36.09375 L 15.96875 -39.21875 L 21.390625 -3.21875 L 0.625 -0.09375 Z M 9.953125 -12.859375 L 7.9375 -26.171875 L 6.6875 -25.984375 L 8.703125 -12.671875 Z M 9.953125 -12.859375 "/></g></g></g><g fill="#58d833" fill-opacity="1"><g transform="translate(81.147515, 87.496267)"><g><path d="M 6.640625 -26.390625 L 8.703125 -12.671875 L 9.953125 -12.859375 L 8.0625 -25.359375 L 17.828125 -26.828125 L 21.390625 -3.21875 L 0.625 -0.09375 L -4.796875 -36.09375 L 15.96875 -39.21875 L 17.65625 -28.046875 Z M 6.640625 -26.390625 "/></g></g></g><g fill="#58d833" fill-opacity="1"><g transform="translate(103.156216, 84.180516)"><g><path d="M -4.796875 -36.09375 L 15.96875 -39.21875 L 21.390625 -3.21875 L 11.625 -1.75 L 10.09375 -11.890625 L 8.84375 -11.703125 L 10.375 -1.5625 L 0.625 -0.09375 Z M 8.984375 -19.28125 L 7.9375 -26.171875 L 6.6875 -25.984375 L 7.734375 -19.09375 Z M 8.984375 -19.28125 "/></g></g></g><g fill="#58d833" fill-opacity="1"><g transform="translate(125.164918, 80.864765)"><g/></g></g><g fill="#58d833" fill-opacity="1"><g transform="translate(135.449362, 79.315348)"><g><path d="M 15.96875 -39.21875 L 18.625 -21.578125 L 15.4375 -21.09375 L 15.59375 -20.390625 L 18.734375 -20.859375 L 21.390625 -3.21875 L 0.625 -0.09375 L -4.796875 -36.09375 Z M 8.34375 -23.546875 L 7.328125 -30.28125 L 6.078125 -30.09375 L 7.09375 -23.359375 Z M 10.40625 -9.8125 L 9.390625 -16.546875 L 8.140625 -16.359375 L 9.15625 -9.625 Z M 10.40625 -9.8125 "/></g></g></g><g fill="#58d833" fill-opacity="1"><g transform="translate(157.458063, 75.999597)"><g><path d="M -4.796875 -36.09375 L 15.96875 -39.21875 L 21.390625 -3.21875 L 0.625 -0.09375 Z M 9.953125 -12.859375 L 7.9375 -26.171875 L 6.6875 -25.984375 L 8.703125 -12.671875 Z M 9.953125 -12.859375 "/></g></g></g><g fill="#58d833" fill-opacity="1"><g transform="translate(179.466765, 72.683846)"><g><path d="M 20.875 -3.140625 L 0.625 -0.09375 L -4.796875 -36.09375 L 4.953125 -37.5625 L 9.25 -9.078125 L 19.75 -10.65625 Z M 20.875 -3.140625 "/></g></g></g><g fill="#58d833" fill-opacity="1"><g transform="translate(200.961244, 69.445566)"><g><path d="M -4.796875 -36.09375 L 15.96875 -39.21875 L 21.390625 -3.21875 L 11.625 -1.75 L 10.09375 -11.890625 L 8.84375 -11.703125 L 10.375 -1.5625 L 0.625 -0.09375 Z M 8.984375 -19.28125 L 7.9375 -26.171875 L 6.6875 -25.984375 L 7.734375 -19.09375 Z M 8.984375 -19.28125 "/></g></g></g><g fill="#00025d" fill-opacity="1"><g transform="translate(35.090317, 92.622119)"><g><path d="M -0.828125 0.125 L -3.535156 -17.828125 L 9.128906 -19.734375 L 10.160156 -12.890625 L 8.714844 -12.671875 L 8.496094 -14.117188 L 9.730469 -14.304688 L 9.949219 -12.859375 L 8.5 -12.640625 L 4.535156 -38.976562 L 17.199219 -40.882812 L 23.054688 -1.996094 L -0.613281 1.570312 Z M 2.0625 -0.3125 L 0.617188 -0.09375 L 0.398438 -1.539062 L 21.175781 -4.667969 L 21.390625 -3.222656 L 19.945312 -3.003906 L 14.523438 -39 L 15.96875 -39.21875 L 16.1875 -37.773438 L 6.417969 -36.300781 L 6.199219 -37.746094 L 7.644531 -37.964844 L 11.613281 -11.628906 L 7.484375 -11.007812 L 6.453125 -17.855469 L 7.902344 -18.070312 L 8.117188 -16.625 L -1.652344 -15.152344 L -1.871094 -16.601562 L -0.421875 -16.816406 Z M 2.0625 -0.3125 "/></g></g></g><g fill="#00025d" fill-opacity="1"><g transform="translate(57.099019, 89.306368)"><g><path d="M -5.023438 -37.535156 L 17.199219 -40.882812 L 23.054688 -1.996094 L -0.613281 1.570312 L -6.46875 -37.316406 Z M -4.589844 -34.644531 L -4.804688 -36.089844 L -3.359375 -36.308594 L 2.0625 -0.3125 L 0.617188 -0.09375 L 0.398438 -1.539062 L 21.175781 -4.667969 L 21.390625 -3.222656 L 19.945312 -3.003906 L 14.523438 -39 L 15.96875 -39.21875 L 16.1875 -37.773438 Z M 8.5 -12.640625 L 6.496094 -25.957031 L 7.941406 -26.175781 L 8.160156 -24.730469 L 6.925781 -24.542969 L 6.707031 -25.992188 L 8.152344 -26.207031 L 10.160156 -12.890625 L 8.714844 -12.671875 L 8.496094 -14.117188 L 9.730469 -14.304688 L 9.949219 -12.859375 Z M 11.613281 -11.628906 L 7.484375 -11.007812 L 5.042969 -27.21875 L 9.171875 -27.839844 L 11.394531 -13.078125 Z M 11.613281 -11.628906 "/></g></g></g><g fill="#00025d" fill-opacity="1"><g transform="translate(79.10772, 85.990617)"><g><path d="M 8.09375 -26.621094 L 10.160156 -12.890625 L 8.714844 -12.671875 L 8.496094 -14.117188 L 9.730469 -14.304688 L 9.949219 -12.859375 L 8.5 -12.640625 L 6.402344 -26.582031 L 19.066406 -28.492188 L 23.054688 -1.996094 L -0.613281 1.570312 L -6.46875 -37.316406 L 17.199219 -40.882812 L 19.3125 -26.832031 L 6.863281 -24.957031 L 6.644531 -26.402344 Z M 4.980469 -27.628906 L 17.433594 -29.507812 L 17.648438 -28.058594 L 16.203125 -27.84375 L 14.523438 -39 L 15.96875 -39.21875 L 16.1875 -37.773438 L -4.589844 -34.644531 L -4.804688 -36.089844 L -3.359375 -36.308594 L 2.0625 -0.3125 L 0.617188 -0.09375 L 0.398438 -1.539062 L 21.175781 -4.667969 L 21.390625 -3.222656 L 19.945312 -3.003906 L 16.390625 -26.609375 L 17.835938 -26.824219 L 18.054688 -25.378906 L 8.285156 -23.90625 L 8.066406 -25.355469 L 9.511719 -25.570312 L 11.613281 -11.628906 L 7.484375 -11.007812 L 5.199219 -26.183594 Z M 4.980469 -27.628906 "/></g></g></g><g fill="#00025d" fill-opacity="1"><g transform="translate(101.116421, 82.674866)"><g><path d="M -5.023438 -37.535156 L 17.199219 -40.882812 L 23.054688 -1.996094 L 10.394531 -0.0859375 L 8.648438 -11.664062 L 10.09375 -11.882812 L 10.3125 -10.433594 L 9.078125 -10.25 L 8.859375 -11.695312 L 10.308594 -11.914062 L 12.050781 -0.335938 L -0.613281 1.570312 L -6.46875 -37.316406 Z M -4.589844 -34.644531 L -4.804688 -36.089844 L -3.359375 -36.308594 L 2.0625 -0.3125 L 0.617188 -0.09375 L 0.398438 -1.539062 L 10.167969 -3.011719 L 10.386719 -1.566406 L 8.941406 -1.347656 L 7.195312 -12.921875 L 11.324219 -13.546875 L 13.066406 -1.96875 L 11.621094 -1.75 L 11.402344 -3.195312 L 21.175781 -4.667969 L 21.390625 -3.222656 L 19.945312 -3.003906 L 14.523438 -39 L 15.96875 -39.21875 L 16.1875 -37.773438 Z M 7.535156 -19.066406 L 6.496094 -25.957031 L 7.941406 -26.175781 L 8.160156 -24.730469 L 6.925781 -24.542969 L 6.707031 -25.992188 L 8.152344 -26.207031 L 9.191406 -19.316406 L 7.746094 -19.101562 L 7.527344 -20.546875 L 8.761719 -20.734375 L 8.980469 -19.285156 Z M 10.644531 -18.058594 L 6.515625 -17.4375 L 5.042969 -27.21875 L 9.171875 -27.839844 L 10.425781 -19.503906 Z M 10.644531 -18.058594 "/></g></g></g><g fill="#00025d" fill-opacity="1"><g transform="translate(123.125123, 79.359115)"><g/></g></g><g fill="#00025d" fill-opacity="1"><g transform="translate(133.409567, 77.809698)"><g><path d="M 17.414062 -39.4375 L 20.289062 -20.351562 L 15.65625 -19.652344 L 15.4375 -21.101562 L 16.863281 -21.421875 L 17.023438 -20.707031 L 15.597656 -20.386719 L 15.378906 -21.835938 L 19.964844 -22.523438 L 23.054688 -1.996094 L -0.613281 1.570312 L -6.46875 -37.316406 L 17.199219 -40.882812 Z M 14.523438 -39 L 15.96875 -39.21875 L 16.1875 -37.773438 L -4.589844 -34.644531 L -4.804688 -36.089844 L -3.359375 -36.308594 L 2.0625 -0.3125 L 0.617188 -0.09375 L 0.398438 -1.539062 L 21.175781 -4.667969 L 21.390625 -3.222656 L 19.945312 -3.003906 L 17.289062 -20.644531 L 18.734375 -20.859375 L 18.953125 -19.414062 L 14.46875 -18.738281 L 13.667969 -22.3125 L 18.410156 -23.027344 L 18.625 -21.582031 L 17.179688 -21.363281 Z M 6.890625 -23.335938 L 5.875 -30.074219 L 7.320312 -30.289062 L 7.539062 -28.84375 L 6.304688 -28.660156 L 6.085938 -30.105469 L 7.535156 -30.324219 L 8.550781 -23.585938 L 7.101562 -23.367188 L 6.882812 -24.816406 L 8.117188 -25 L 8.335938 -23.554688 Z M 10 -22.324219 L 5.875 -21.703125 L 4.421875 -31.332031 L 8.550781 -31.953125 L 9.78125 -23.773438 Z M 8.957031 -9.605469 L 7.945312 -16.34375 L 9.390625 -16.5625 L 9.609375 -15.113281 L 8.375 -14.929688 L 8.15625 -16.375 L 9.601562 -16.59375 L 10.617188 -9.855469 L 9.171875 -9.636719 L 8.953125 -11.085938 L 10.1875 -11.269531 L 10.40625 -9.824219 Z M 12.070312 -8.597656 L 7.941406 -7.972656 L 6.492188 -17.601562 L 10.617188 -18.226562 L 11.851562 -10.042969 Z M 12.070312 -8.597656 "/></g></g></g><g fill="#00025d" fill-opacity="1"><g transform="translate(155.418268, 74.493947)"><g><path d="M -5.023438 -37.535156 L 17.199219 -40.882812 L 23.054688 -1.996094 L -0.613281 1.570312 L -6.46875 -37.316406 Z M -4.589844 -34.644531 L -4.804688 -36.089844 L -3.359375 -36.308594 L 2.0625 -0.3125 L 0.617188 -0.09375 L 0.398438 -1.539062 L 21.175781 -4.667969 L 21.390625 -3.222656 L 19.945312 -3.003906 L 14.523438 -39 L 15.96875 -39.21875 L 16.1875 -37.773438 Z M 8.5 -12.640625 L 6.496094 -25.957031 L 7.941406 -26.175781 L 8.160156 -24.730469 L 6.925781 -24.542969 L 6.707031 -25.992188 L 8.152344 -26.207031 L 10.160156 -12.890625 L 8.714844 -12.671875 L 8.496094 -14.117188 L 9.730469 -14.304688 L 9.949219 -12.859375 Z M 11.613281 -11.628906 L 7.484375 -11.007812 L 5.042969 -27.21875 L 9.171875 -27.839844 L 11.394531 -13.078125 Z M 11.613281 -11.628906 "/></g></g></g><g fill="#00025d" fill-opacity="1"><g transform="translate(177.42697, 71.178196)"><g><path d="M 21.09375 -1.699219 L -0.613281 1.570312 L -6.46875 -37.316406 L 6.191406 -39.226562 L 10.703125 -9.289062 L 9.257812 -9.074219 L 9.039062 -10.519531 L 20.976562 -12.316406 L 22.542969 -1.917969 Z M 20.660156 -4.589844 L 20.878906 -3.144531 L 19.429688 -2.925781 L 18.300781 -10.433594 L 19.746094 -10.652344 L 19.964844 -9.207031 L 8.027344 -7.410156 L 3.519531 -37.34375 L 4.964844 -37.5625 L 5.183594 -36.113281 L -4.589844 -34.644531 L -4.804688 -36.089844 L -3.359375 -36.308594 L 2.0625 -0.3125 L 0.617188 -0.09375 L 0.398438 -1.539062 Z M 20.660156 -4.589844 "/></g></g></g><g fill="#00025d" fill-opacity="1"><g transform="translate(198.921449, 67.939916)"><g><path d="M -5.023438 -37.535156 L 17.199219 -40.882812 L 23.054688 -1.996094 L 10.394531 -0.0859375 L 8.648438 -11.664062 L 10.09375 -11.882812 L 10.3125 -10.433594 L 9.078125 -10.25 L 8.859375 -11.695312 L 10.308594 -11.914062 L 12.050781 -0.335938 L -0.613281 1.570312 L -6.46875 -37.316406 Z M -4.589844 -34.644531 L -4.804688 -36.089844 L -3.359375 -36.308594 L 2.0625 -0.3125 L 0.617188 -0.09375 L 0.398438 -1.539062 L 10.167969 -3.011719 L 10.386719 -1.566406 L 8.941406 -1.347656 L 7.195312 -12.921875 L 11.324219 -13.546875 L 13.066406 -1.96875 L 11.621094 -1.75 L 11.402344 -3.195312 L 21.175781 -4.667969 L 21.390625 -3.222656 L 19.945312 -3.003906 L 14.523438 -39 L 15.96875 -39.21875 L 16.1875 -37.773438 Z M 7.535156 -19.066406 L 6.496094 -25.957031 L 7.941406 -26.175781 L 8.160156 -24.730469 L 6.925781 -24.542969 L 6.707031 -25.992188 L 8.152344 -26.207031 L 9.191406 -19.316406 L 7.746094 -19.101562 L 7.527344 -20.546875 L 8.761719 -20.734375 L 8.980469 -19.285156 Z M 10.644531 -18.058594 L 6.515625 -17.4375 L 5.042969 -27.21875 L 9.171875 -27.839844 L 10.425781 -19.503906 Z M 10.644531 -18.058594 "/></g></g></g><g transform="matrix(1, 0, 0, 1, 37, 76)"><g clip-path="url(#e342e13310)"><g fill="#000000" fill-opacity="1"><g transform="translate(2.436727, 40.928642)"><g><path d="M 7.265625 -7.09375 L 1.453125 -6.1875 L 1.640625 -5.046875 L 7.453125 -5.953125 L 7.71875 -4.171875 L 1.90625 -3.265625 L 2.078125 -2.15625 L 7.890625 -3.0625 L 8.171875 -1.265625 L 0.578125 -0.09375 L -0.59375 -7.703125 L 7 -8.875 Z M 7.265625 -7.09375 "/></g></g></g><g fill="#000000" fill-opacity="1"><g transform="translate(11.608636, 39.511819)"><g><path d="M 5.203125 -8.59375 L 7 -8.875 L 8.1875 -1.203125 L 8.09375 -1.25 L 6.375 -0.984375 L 6.1875 -2.21875 L 1.734375 -4.453125 L 2.359375 -0.359375 L 0.578125 -0.09375 L -0.59375 -7.703125 L 1.1875 -7.96875 L 1.375 -6.71875 L 5.828125 -4.484375 Z M 5.203125 -8.59375 "/></g></g></g><g fill="#000000" fill-opacity="1"><g transform="translate(20.780545, 38.094997)"><g><path d="M -0.59375 -7.703125 L 7 -8.875 L 7.265625 -7.09375 L 1.453125 -6.1875 L 2.078125 -2.15625 L 7.890625 -3.0625 L 8.171875 -1.265625 L 0.578125 -0.09375 Z M -0.59375 -7.703125 "/></g></g></g><g fill="#000000" fill-opacity="1"><g transform="translate(29.952454, 36.678175)"><g><path d="M 1.453125 -6.1875 L 2.078125 -2.15625 L 6.09375 -2.78125 L 5.46875 -6.8125 Z M 0.578125 -0.09375 L -0.59375 -7.703125 L 7 -8.875 L 8.171875 -1.265625 Z M 0.578125 -0.09375 "/></g></g></g><g fill="#000000" fill-opacity="1"><g transform="translate(39.124364, 35.261353)"><g><path d="M 5.203125 -8.59375 L 7 -8.875 L 8.1875 -1.203125 L 8.09375 -1.25 L 6.375 -0.984375 L 6.1875 -2.21875 L 1.734375 -4.453125 L 2.359375 -0.359375 L 0.578125 -0.09375 L -0.59375 -7.703125 L 1.1875 -7.96875 L 1.375 -6.71875 L 5.828125 -4.484375 Z M 5.203125 -8.59375 "/></g></g></g><g fill="#000000" fill-opacity="1"><g transform="translate(48.296273, 33.844531)"><g><path d="M -0.59375 -7.703125 L 7 -8.875 L 7.265625 -7.09375 L 4.359375 -6.640625 L 5.265625 -0.8125 L 3.46875 -0.53125 L 2.5625 -6.359375 L -0.328125 -5.921875 Z M -0.59375 -7.703125 "/></g></g></g><g fill="#000000" fill-opacity="1"><g transform="translate(57.468182, 32.427708)"><g><path d="M -0.59375 -7.703125 L 7 -8.875 L 7.953125 -2.71875 L 6.5 -2.484375 L 8.15625 -1.265625 L 5.96875 -0.921875 L 4.34375 -2.15625 L 2.140625 -1.8125 L 2.359375 -0.359375 L 0.578125 -0.09375 Z M 1.859375 -3.609375 L 5.875 -4.234375 L 5.46875 -6.8125 L 1.453125 -6.1875 Z M 1.859375 -3.609375 "/></g></g></g><g fill="#000000" fill-opacity="1"><g transform="translate(66.640091, 31.010886)"><g><path d="M 7.265625 -7.09375 L 1.453125 -6.1875 L 1.640625 -5.046875 L 7.453125 -5.953125 L 7.71875 -4.171875 L 1.90625 -3.265625 L 2.078125 -2.15625 L 7.890625 -3.0625 L 8.171875 -1.265625 L 0.578125 -0.09375 L -0.59375 -7.703125 L 7 -8.875 Z M 7.265625 -7.09375 "/></g></g></g><g fill="#000000" fill-opacity="1"><g transform="translate(75.812, 29.594064)"><g/></g></g><g fill="#000000" fill-opacity="1"><g transform="translate(83.053948, 28.475371)"><g><path d="M 7 -8.875 L 8.171875 -1.265625 L 6.375 -0.984375 L 6.15625 -2.4375 L 2.140625 -1.8125 L 2.359375 -0.359375 L 0.578125 -0.09375 L -0.59375 -7.703125 Z M 1.859375 -3.609375 L 5.875 -4.234375 L 5.46875 -6.8125 L 1.453125 -6.1875 Z M 1.859375 -3.609375 "/></g></g></g><g fill="#000000" fill-opacity="1"><g transform="translate(92.225857, 27.058549)"><g/></g></g><g fill="#000000" fill-opacity="1"><g transform="translate(99.467804, 25.939855)"><g><path d="M 0.296875 -1.890625 L 6.09375 -2.78125 L 5.921875 -3.890625 L 0.125 -3 L -0.59375 -7.703125 L 7 -8.875 L 7.265625 -7.09375 L 1.453125 -6.1875 L 1.640625 -5.046875 L 7.453125 -5.953125 L 8.171875 -1.265625 L 0.578125 -0.09375 Z M 0.296875 -1.890625 "/></g></g></g><g fill="#000000" fill-opacity="1"><g transform="translate(108.639713, 24.523033)"><g><path d="M 1.1875 -7.96875 L 2.078125 -2.15625 L 6.09375 -2.78125 L 5.203125 -8.59375 L 7 -8.875 L 8.171875 -1.265625 L 0.578125 -0.09375 L -0.59375 -7.703125 Z M 1.1875 -7.96875 "/></g></g></g><g fill="#000000" fill-opacity="1"><g transform="translate(117.811622, 23.106211)"><g><path d="M 7 -8.875 L 8.171875 -1.265625 L 6.375 -0.984375 L 6.15625 -2.4375 L 2.140625 -1.8125 L 2.359375 -0.359375 L 0.578125 -0.09375 L -0.59375 -7.703125 Z M 1.859375 -3.609375 L 5.875 -4.234375 L 5.46875 -6.8125 L 1.453125 -6.1875 Z M 1.859375 -3.609375 "/></g></g></g><g fill="#000000" fill-opacity="1"><g transform="translate(126.983532, 21.689389)"><g/></g></g><g fill="#000000" fill-opacity="1"><g transform="translate(134.225486, 20.570694)"><g><path d="M 9.921875 -9.328125 L 11.09375 -1.71875 L 9.296875 -1.4375 L 8.390625 -7.265625 L 5.828125 -6.84375 L 6.71875 -1.03125 L 4.921875 -0.765625 L 4.03125 -6.578125 L 1.453125 -6.1875 L 2.359375 -0.359375 L 0.578125 -0.09375 L -0.59375 -7.703125 Z M 9.921875 -9.328125 "/></g></g></g><g fill="#000000" fill-opacity="1"><g transform="translate(146.303683, 18.704926)"><g><path d="M 7 -8.875 L 8.171875 -1.265625 L 6.375 -0.984375 L 6.15625 -2.4375 L 2.140625 -1.8125 L 2.359375 -0.359375 L 0.578125 -0.09375 L -0.59375 -7.703125 Z M 1.859375 -3.609375 L 5.875 -4.234375 L 5.46875 -6.8125 L 1.453125 -6.1875 Z M 1.859375 -3.609375 "/></g></g></g><g fill="#000000" fill-opacity="1"><g transform="translate(155.475585, 17.288105)"><g><path d="M 8.171875 -1.265625 L 0.578125 -0.09375 L -0.59375 -7.703125 L 1.1875 -7.96875 L 2.078125 -2.15625 L 7.890625 -3.0625 Z M 8.171875 -1.265625 "/></g></g></g><g fill="#000000" fill-opacity="1"><g transform="translate(164.647501, 15.871282)"><g><path d="M -0.59375 -7.703125 L 7 -8.875 L 7.265625 -7.09375 L 4.359375 -6.640625 L 5.265625 -0.8125 L 3.46875 -0.53125 L 2.5625 -6.359375 L -0.328125 -5.921875 Z M -0.59375 -7.703125 "/></g></g></g><g fill="#000000" fill-opacity="1"><g transform="translate(173.819418, 14.454458)"><g><path d="M 7 -8.875 L 8.171875 -1.265625 L 6.375 -0.984375 L 6.15625 -2.4375 L 2.140625 -1.8125 L 2.359375 -0.359375 L 0.578125 -0.09375 L -0.59375 -7.703125 Z M 1.859375 -3.609375 L 5.875 -4.234375 L 5.46875 -6.8125 L 1.453125 -6.1875 Z M 1.859375 -3.609375 "/></g></g></g><g fill="#000000" fill-opacity="1"><g transform="translate(182.99132, 13.037637)"><g><path d="M 1.1875 -7.96875 L 1.90625 -3.265625 L 0.125 -3 L -0.59375 -7.703125 Z M 0.578125 -0.09375 L 0.296875 -1.890625 L 2.078125 -2.15625 L 2.359375 -0.359375 Z M 0.578125 -0.09375 "/></g></g></g><g fill="#ffffff" fill-opacity="1"><g transform="translate(2.91667, 40.034256)"><g><path d="M 7.265625 -7.09375 L 1.453125 -6.1875 L 1.640625 -5.046875 L 7.453125 -5.953125 L 7.71875 -4.171875 L 1.90625 -3.265625 L 2.078125 -2.15625 L 7.890625 -3.0625 L 8.171875 -1.265625 L 0.578125 -0.09375 L -0.59375 -7.703125 L 7 -8.875 Z M 7.265625 -7.09375 "/></g></g></g><g fill="#ffffff" fill-opacity="1"><g transform="translate(12.088579, 38.617434)"><g><path d="M 5.203125 -8.59375 L 7 -8.875 L 8.1875 -1.203125 L 8.09375 -1.25 L 6.375 -0.984375 L 6.1875 -2.21875 L 1.734375 -4.453125 L 2.359375 -0.359375 L 0.578125 -0.09375 L -0.59375 -7.703125 L 1.1875 -7.96875 L 1.375 -6.71875 L 5.828125 -4.484375 Z M 5.203125 -8.59375 "/></g></g></g><g fill="#ffffff" fill-opacity="1"><g transform="translate(21.260488, 37.200612)"><g><path d="M -0.59375 -7.703125 L 7 -8.875 L 7.265625 -7.09375 L 1.453125 -6.1875 L 2.078125 -2.15625 L 7.890625 -3.0625 L 8.171875 -1.265625 L 0.578125 -0.09375 Z M -0.59375 -7.703125 "/></g></g></g><g fill="#ffffff" fill-opacity="1"><g transform="translate(30.432397, 35.78379)"><g><path d="M 1.453125 -6.1875 L 2.078125 -2.15625 L 6.09375 -2.78125 L 5.46875 -6.8125 Z M 0.578125 -0.09375 L -0.59375 -7.703125 L 7 -8.875 L 8.171875 -1.265625 Z M 0.578125 -0.09375 "/></g></g></g><g fill="#ffffff" fill-opacity="1"><g transform="translate(39.604306, 34.366967)"><g><path d="M 5.203125 -8.59375 L 7 -8.875 L 8.1875 -1.203125 L 8.09375 -1.25 L 6.375 -0.984375 L 6.1875 -2.21875 L 1.734375 -4.453125 L 2.359375 -0.359375 L 0.578125 -0.09375 L -0.59375 -7.703125 L 1.1875 -7.96875 L 1.375 -6.71875 L 5.828125 -4.484375 Z M 5.203125 -8.59375 "/></g></g></g><g fill="#ffffff" fill-opacity="1"><g transform="translate(48.776215, 32.950145)"><g><path d="M -0.59375 -7.703125 L 7 -8.875 L 7.265625 -7.09375 L 4.359375 -6.640625 L 5.265625 -0.8125 L 3.46875 -0.53125 L 2.5625 -6.359375 L -0.328125 -5.921875 Z M -0.59375 -7.703125 "/></g></g></g><g fill="#ffffff" fill-opacity="1"><g transform="translate(57.948125, 31.533323)"><g><path d="M -0.59375 -7.703125 L 7 -8.875 L 7.953125 -2.71875 L 6.5 -2.484375 L 8.15625 -1.265625 L 5.96875 -0.921875 L 4.34375 -2.15625 L 2.140625 -1.8125 L 2.359375 -0.359375 L 0.578125 -0.09375 Z M 1.859375 -3.609375 L 5.875 -4.234375 L 5.46875 -6.8125 L 1.453125 -6.1875 Z M 1.859375 -3.609375 "/></g></g></g><g fill="#ffffff" fill-opacity="1"><g transform="translate(67.120034, 30.116501)"><g><path d="M 7.265625 -7.09375 L 1.453125 -6.1875 L 1.640625 -5.046875 L 7.453125 -5.953125 L 7.71875 -4.171875 L 1.90625 -3.265625 L 2.078125 -2.15625 L 7.890625 -3.0625 L 8.171875 -1.265625 L 0.578125 -0.09375 L -0.59375 -7.703125 L 7 -8.875 Z M 7.265625 -7.09375 "/></g></g></g><g fill="#ffffff" fill-opacity="1"><g transform="translate(76.291943, 28.699679)"><g/></g></g><g fill="#ffffff" fill-opacity="1"><g transform="translate(83.53389, 27.580985)"><g><path d="M 7 -8.875 L 8.171875 -1.265625 L 6.375 -0.984375 L 6.15625 -2.4375 L 2.140625 -1.8125 L 2.359375 -0.359375 L 0.578125 -0.09375 L -0.59375 -7.703125 Z M 1.859375 -3.609375 L 5.875 -4.234375 L 5.46875 -6.8125 L 1.453125 -6.1875 Z M 1.859375 -3.609375 "/></g></g></g><g fill="#ffffff" fill-opacity="1"><g transform="translate(92.705799, 26.164163)"><g/></g></g><g fill="#ffffff" fill-opacity="1"><g transform="translate(99.947747, 25.04547)"><g><path d="M 0.296875 -1.890625 L 6.09375 -2.78125 L 5.921875 -3.890625 L 0.125 -3 L -0.59375 -7.703125 L 7 -8.875 L 7.265625 -7.09375 L 1.453125 -6.1875 L 1.640625 -5.046875 L 7.453125 -5.953125 L 8.171875 -1.265625 L 0.578125 -0.09375 Z M 0.296875 -1.890625 "/></g></g></g><g fill="#ffffff" fill-opacity="1"><g transform="translate(109.119656, 23.628648)"><g><path d="M 1.1875 -7.96875 L 2.078125 -2.15625 L 6.09375 -2.78125 L 5.203125 -8.59375 L 7 -8.875 L 8.171875 -1.265625 L 0.578125 -0.09375 L -0.59375 -7.703125 Z M 1.1875 -7.96875 "/></g></g></g><g fill="#ffffff" fill-opacity="1"><g transform="translate(118.291565, 22.211826)"><g><path d="M 7 -8.875 L 8.171875 -1.265625 L 6.375 -0.984375 L 6.15625 -2.4375 L 2.140625 -1.8125 L 2.359375 -0.359375 L 0.578125 -0.09375 L -0.59375 -7.703125 Z M 1.859375 -3.609375 L 5.875 -4.234375 L 5.46875 -6.8125 L 1.453125 -6.1875 Z M 1.859375 -3.609375 "/></g></g></g><g fill="#ffffff" fill-opacity="1"><g transform="translate(127.463474, 20.795003)"><g/></g></g><g fill="#ffffff" fill-opacity="1"><g transform="translate(134.705429, 19.676309)"><g><path d="M 9.921875 -9.328125 L 11.09375 -1.71875 L 9.296875 -1.4375 L 8.390625 -7.265625 L 5.828125 -6.84375 L 6.71875 -1.03125 L 4.921875 -0.765625 L 4.03125 -6.578125 L 1.453125 -6.1875 L 2.359375 -0.359375 L 0.578125 -0.09375 L -0.59375 -7.703125 Z M 9.921875 -9.328125 "/></g></g></g><g fill="#ffffff" fill-opacity="1"><g transform="translate(146.783626, 17.810541)"><g><path d="M 7 -8.875 L 8.171875 -1.265625 L 6.375 -0.984375 L 6.15625 -2.4375 L 2.140625 -1.8125 L 2.359375 -0.359375 L 0.578125 -0.09375 L -0.59375 -7.703125 Z M 1.859375 -3.609375 L 5.875 -4.234375 L 5.46875 -6.8125 L 1.453125 -6.1875 Z M 1.859375 -3.609375 "/></g></g></g><g fill="#ffffff" fill-opacity="1"><g transform="translate(155.955528, 16.39372)"><g><path d="M 8.171875 -1.265625 L 0.578125 -0.09375 L -0.59375 -7.703125 L 1.1875 -7.96875 L 2.078125 -2.15625 L 7.890625 -3.0625 Z M 8.171875 -1.265625 "/></g></g></g><g fill="#ffffff" fill-opacity="1"><g transform="translate(165.127444, 14.976896)"><g><path d="M -0.59375 -7.703125 L 7 -8.875 L 7.265625 -7.09375 L 4.359375 -6.640625 L 5.265625 -0.8125 L 3.46875 -0.53125 L 2.5625 -6.359375 L -0.328125 -5.921875 Z M -0.59375 -7.703125 "/></g></g></g><g fill="#ffffff" fill-opacity="1"><g transform="translate(174.29936, 13.560073)"><g><path d="M 7 -8.875 L 8.171875 -1.265625 L 6.375 -0.984375 L 6.15625 -2.4375 L 2.140625 -1.8125 L 2.359375 -0.359375 L 0.578125 -0.09375 L -0.59375 -7.703125 Z M 1.859375 -3.609375 L 5.875 -4.234375 L 5.46875 -6.8125 L 1.453125 -6.1875 Z M 1.859375 -3.609375 "/></g></g></g><g fill="#ffffff" fill-opacity="1"><g transform="translate(183.471262, 12.143252)"><g><path d="M 1.1875 -7.96875 L 1.90625 -3.265625 L 0.125 -3 L -0.59375 -7.703125 Z M 0.578125 -0.09375 L 0.296875 -1.890625 L 2.078125 -2.15625 L 2.359375 -0.359375 Z M 0.578125 -0.09375 "/></g></g></g></g></g></svg>