<?xml version="1.0" encoding="utf-8"?>
<svg width="350" zoomAndPan="magnify" viewBox="0 0 262.5 149.999998" height="200" preserveAspectRatio="xMidYMid meet" version="1.0" xmlns="http://www.w3.org/2000/svg">
  <defs>
    <g/>
    <clipPath id="fed44b1f66">
      <path d="M 74.574219 1.523438 L 177.40625 1.523438 L 177.40625 104.355469 L 74.574219 104.355469 Z M 74.574219 1.523438 " clip-rule="nonzero"/>
    </clipPath>
  </defs>
  <path d="M 127.705 30.571 L 119.41 51.559 L 95.657 54.388 L 113.455 68.771 L 106.871 92.758 L 127.23 78.892 L 146.932 94.219 L 141.399 68.742 L 160.127 54.682 L 136.187 51.723 L 127.705 30.571 Z M 127.705 30.571" fill-rule="nonzero" style="fill: rgb(255, 255, 255); stroke: rgb(23, 163, 74); fill-opacity: 0;"/>
  <g clip-path="url(#fed44b1f66)" transform="matrix(1.227478, 0, 0, 1.271342, -26.764822, 4.72761)" style="">
    <path d="M 126.003906 1.535156 C 97.660156 1.535156 74.597656 24.597656 74.597656 52.941406 C 74.597656 81.269531 97.660156 104.332031 126.003906 104.332031 C 154.332031 104.332031 177.394531 81.269531 177.394531 52.941406 C 177.394531 24.597656 154.332031 1.535156 126.003906 1.535156 Z M 161.875 84.058594 C 161.875 84.058594 166.875 73.617188 167.871094 65.484375 C 163.496094 73.382812 155.734375 80.066406 155.734375 80.066406 L 142.453125 71.539062 L 145.070312 87.820312 C 140.769531 90.4375 126.378906 94.835938 126.378906 94.835938 C 126.378906 94.835938 138.621094 96.960938 144.222656 95.582031 C 144.097656 97.710938 142.5625 100.167969 141.875 101.175781 C 136.886719 102.820312 131.542969 103.71875 126.003906 103.71875 C 119.675781 103.71875 113.605469 102.550781 108.015625 100.425781 L 104.773438 94.980469 C 104.773438 94.980469 110.578125 95.476562 113.371094 95.464844 C 116.167969 95.449219 123.761719 94.898438 123.761719 94.898438 C 123.761719 94.898438 107.917969 89.835938 105.460938 87.378906 L 107.070312 71.097656 L 94.167969 79.390625 C 91.332031 77.167969 84.339844 67.179688 82.570312 64.488281 C 82.878906 69.253906 86.652344 80.238281 88.1875 82.304688 C 88.1875 82.304688 87.4375 82.84375 85.359375 83.359375 C 78.996094 74.882812 75.210938 64.339844 75.210938 52.941406 C 75.210938 51.390625 75.285156 49.855469 75.421875 48.34375 C 75.800781 47.621094 76.378906 46.648438 76.957031 46.207031 C 76.957031 46.207031 76.957031 52.878906 81.492188 61.332031 C 81.332031 51.355469 82.253906 42.59375 82.253906 42.59375 C 84.871094 40.984375 88.53125 39.523438 97.019531 37.988281 L 87.09375 29.488281 C 87.09375 29.488281 93.078125 18.871094 98.148438 14.03125 C 90.53125 18.085938 86.515625 22.015625 84.179688 25.703125 L 83.765625 24.769531 C 90.925781 14.066406 102.03125 6.230469 114.992188 3.355469 L 115.867188 3.589844 C 115.867188 3.589844 104.90625 7.507812 100.816406 12.496094 C 105.902344 9.855469 119.195312 6.660156 119.195312 6.660156 L 125.511719 18.121094 L 131.578125 7.484375 C 131.578125 7.484375 142.144531 9.117188 150.203125 13.183594 C 147.21875 9.804688 136.234375 3.847656 136.234375 3.847656 L 138.3125 3.664062 C 150.734375 6.769531 161.371094 14.472656 168.289062 24.855469 L 168.386719 27.449219 C 168.386719 27.449219 158.449219 15.972656 152.921875 14.4375 C 158.65625 20.320312 163.976562 30.003906 163.976562 30.003906 L 153.644531 39.21875 L 167.96875 43.113281 C 167.96875 43.113281 170.425781 54.671875 168.890625 63.273438 C 172.269531 58.664062 174.320312 46.28125 174.320312 46.28125 L 176.621094 48.910156 C 176.730469 50.238281 176.777344 51.589844 176.777344 52.941406 C 176.777344 64.832031 172.664062 75.804688 165.769531 84.464844 Z M 161.875 84.058594 " fill-rule="nonzero" style="fill: rgb(255, 255, 255); stroke: rgb(23, 163, 74); fill-opacity: 0;"/>
  </g>
  <g clip-path="url(#aa8a095550)">
    <g clip-path="url(#2eea7f136e)">
      <g clip-path="url(#597cbd7fc9)"/>
    </g>
  </g>
  <g fill="#7ed957" fill-opacity="1" transform="matrix(1.227478, 0, 0, 1.271342, -26.764822, 4.72761)" style="">
    <g transform="translate(26.863131, 84.736304)">
      <g>
        <path d="M 0.691406 0 L 23.929688 0 L 23.929688 -40.269531 L 13 -40.269531 L 13 -12.425781 L 11.621094 -12.425781 L 11.621094 -18.464844 L 0.691406 -18.464844 Z M 0.691406 0 " style="fill: rgb(255, 255, 255); fill-opacity: 0;"/>
      </g>
    </g>
  </g>
  <g fill="#7ed957" fill-opacity="1" transform="matrix(1.227478, 0, 0, 1.271342, -26.764822, 4.72761)" style="">
    <g transform="translate(51.484466, 84.736304)">
      <g>
        <path d="M 0.691406 -40.269531 L 0.691406 0 L 23.929688 0 L 23.929688 -40.269531 Z M 13 -12.425781 L 11.621094 -12.425781 L 11.621094 -27.324219 L 13 -27.324219 Z M 13 -12.425781 " style="fill: rgb(255, 255, 255); fill-opacity: 0;"/>
      </g>
    </g>
  </g>
  <g fill="#7ed957" fill-opacity="1" transform="matrix(1.227478, 0, 0, 1.271342, -26.764822, 4.72761)" style="">
    <g transform="translate(76.105801, 84.736304)">
      <g>
        <path d="M 11.621094 -27.785156 L 23.929688 -27.785156 L 23.929688 -40.269531 L 0.691406 -40.269531 L 0.691406 0 L 23.929688 0 L 23.929688 -26.40625 L 13 -26.40625 L 13 -12.425781 L 11.621094 -12.425781 Z M 11.621094 -27.785156 " style="fill: rgb(255, 255, 255); fill-opacity: 0;"/>
      </g>
    </g>
  </g>
  <g fill="#7ed957" fill-opacity="1" transform="matrix(1.227478, 0, 0, 1.271342, -26.764822, 4.72761)" style="">
    <g transform="translate(100.727136, 84.736304)">
      <g>
        <path d="M 0.691406 -40.269531 L 0.691406 0 L 11.621094 0 L 11.621094 -11.332031 L 13 -11.332031 L 13 0 L 23.929688 0 L 23.929688 -40.269531 Z M 13 -19.617188 L 11.621094 -19.617188 L 11.621094 -27.324219 L 13 -27.324219 Z M 13 -19.617188 " style="fill: rgb(255, 255, 255); fill-opacity: 0;"/>
      </g>
    </g>
  </g>
  <path stroke-linecap="butt" stroke-linejoin="miter" d="M 4.429 109.743 L 32.965 109.743 L 32.965 58.551 L 19.553 58.551 L 19.553 93.94 L 17.845 93.94 L 17.845 86.262 L 4.429 86.262 L 4.429 109.743 Z M 34.652 58.551 L 34.652 109.743 L 63.186 109.743 L 63.186 58.551 L 34.652 58.551 Z M 49.774 93.94 L 48.067 93.94 L 48.067 74.995 L 49.774 74.995 L 49.774 93.94 Z M 78.288 74.422 L 93.408 74.422 L 93.408 58.551 L 64.879 58.551 L 64.879 109.743 L 93.408 109.743 L 93.408 76.17 L 79.996 76.17 L 79.996 93.94 L 78.288 93.94 L 78.288 74.422 Z M 95.1 58.551 L 95.1 109.743 L 108.511 109.743 L 108.511 95.33 L 110.219 95.33 L 110.219 109.743 L 123.63 109.743 L 123.63 58.551 L 95.1 58.551 Z M 110.219 84.797 L 108.511 84.797 L 108.511 74.995 L 110.219 74.995 L 110.219 84.797 Z M 110.219 84.797" stroke-opacity="1" stroke-miterlimit="4" fill="none" style="stroke: rgb(23, 163, 74); stroke-width: 3px;"/>
  <g fill="#16a34a" fill-opacity="1" transform="matrix(1.227478, 0, 0, 1.271342, -26.764822, 4.72761)" style="">
    <g transform="translate(134.449976, 84.085922)">
      <g>
        <path d="M 19.726562 -42.488281 L -3.394531 -40.132812 L 0.6875 -0.0703125 L 23.808594 -2.425781 L 21.808594 -22.054688 L 18.316406 -21.699219 L 18.175781 -22.496094 L 21.726562 -22.855469 Z M 10.460938 -25.582031 L 9.085938 -25.445312 L 8.324219 -32.941406 L 9.695312 -33.082031 Z M 12.019531 -10.304688 L 10.644531 -10.164062 L 9.878906 -17.660156 L 11.253906 -17.800781 Z M 12.019531 -10.304688 " style="fill: rgb(255, 255, 255); fill-opacity: 0;"/>
      </g>
    </g>
  </g>
  <g fill="#16a34a" fill-opacity="1" transform="matrix(1.227478, 0, 0, 1.271342, -26.764822, 4.72761)" style="">
    <g transform="translate(158.944452, 81.589771)">
      <g>
        <path d="M -3.394531 -40.132812 L 0.6875 -0.0703125 L 23.808594 -2.425781 L 19.726562 -42.488281 Z M 11.675781 -13.679688 L 10.300781 -13.539062 L 8.789062 -28.363281 L 10.164062 -28.503906 Z M 11.675781 -13.679688 " style="fill: rgb(255, 255, 255); fill-opacity: 0;"/>
      </g>
    </g>
  </g>
  <g fill="#16a34a" fill-opacity="1" transform="matrix(1.227478, 0, 0, 1.271342, -26.764822, 4.72761)" style="">
    <g transform="translate(183.438928, 79.09362)">
      <g>
        <path d="M 23.234375 -2.367188 L 22.382812 -10.722656 L 10.707031 -9.535156 L 7.476562 -41.238281 L -3.394531 -40.132812 L 0.6875 -0.0703125 Z M 23.234375 -2.367188 " style="fill: rgb(255, 255, 255); fill-opacity: 0;"/>
      </g>
    </g>
  </g>
  <g fill="#16a34a" fill-opacity="1" transform="matrix(1.227478, 0, 0, 1.271342, -26.764822, 4.72761)" style="">
    <g transform="translate(207.361107, 76.655789)">
      <g>
        <path d="M -3.394531 -40.132812 L 0.6875 -0.0703125 L 11.558594 -1.179688 L 10.410156 -12.453125 L 11.785156 -12.59375 L 12.933594 -1.316406 L 23.808594 -2.425781 L 19.726562 -42.488281 Z M 10.945312 -20.832031 L 9.570312 -20.695312 L 8.789062 -28.363281 L 10.164062 -28.503906 Z M 10.945312 -20.832031 " style="fill: rgb(255, 255, 255); fill-opacity: 0;"/>
      </g>
    </g>
  </g>
  <path stroke-linecap="butt" stroke-linejoin="miter" d="M 159.817 55.363 L 131.431 58.361 L 136.44 109.29 L 164.826 106.291 L 162.372 81.336 L 158.081 81.787 L 157.912 80.78 L 162.271 80.322 L 159.817 55.363 Z M 148.447 76.846 L 146.751 77.025 L 145.81 67.504 L 147.508 67.326 L 148.447 76.846 Z M 150.357 96.279 L 148.659 96.458 L 147.725 86.917 L 149.42 86.74 L 150.357 96.279 Z M 161.495 55.189 L 166.51 106.117 L 194.891 103.117 L 189.88 52.189 L 161.495 55.189 Z M 180.002 88.805 L 178.304 88.984 L 176.449 70.137 L 178.146 69.958 L 180.002 88.805 Z M 224.253 100.018 L 223.209 89.396 L 208.872 90.91 L 204.906 50.605 L 191.563 52.015 L 196.573 102.944 L 224.253 100.018 Z M 220.926 48.917 L 225.938 99.839 L 239.281 98.434 L 237.871 84.097 L 239.569 83.918 L 240.979 98.256 L 254.322 96.845 L 249.311 45.917 L 220.926 48.917 Z M 238.538 73.439 L 236.841 73.619 L 235.881 63.865 L 237.579 63.685 L 238.538 73.439 Z M 238.538 73.439" stroke-miterlimit="4" style="stroke: rgb(23, 163, 74); stroke-width: 3px; transform-origin: 200.11px 87.27px;" stroke-opacity="1" fill="none"/>
  <g fill="#000000" fill-opacity="1"/>
  <g fill="#000000" fill-opacity="1"/>
  <g fill="#000000" fill-opacity="1">
    <g transform="translate(111.681419, 112.053222)">
      <g/>
    </g>
  </g>
  <g fill="#000000" fill-opacity="1">
    <g transform="translate(129.192658, 109.895459)">
      <g/>
    </g>
  </g>
  <g fill="#000000" fill-opacity="1">
    <g transform="translate(166.274118, 105.326222)">
      <g/>
    </g>
  </g>
  <g fill="#000000" fill-opacity="1">
    <g transform="translate(186.885956, 102.786399)">
      <g/>
    </g>
  </g>
  <g fill="#7ed957" fill-opacity="1">
    <g transform="translate(112.220157, 111.119171)">
      <g/>
    </g>
  </g>
  <g fill="#7ed957" fill-opacity="1">
    <g transform="translate(129.731395, 108.961409)">
      <g/>
    </g>
  </g>
  <g fill="#7ed957" fill-opacity="1">
    <g transform="translate(166.812856, 104.392172)">
      <g/>
    </g>
  </g>
  <g fill="#7ed957" fill-opacity="1">
    <g transform="translate(174.53898, 103.440147)">
      <g/>
    </g>
  </g>
  <g fill="#7ed957" fill-opacity="1">
    <g transform="translate(187.424693, 101.852349)">
      <g/>
    </g>
  </g>
  <g fill="#7ed957" fill-opacity="1">
    <g transform="translate(226.565153, 97.029399)">
      <g/>
    </g>
  </g>
</svg>