<?xml version="1.0" standalone="no"?>
<!DOCTYPE svg PUBLIC "-//W3C//DTD SVG 20010904//EN"
 "http://www.w3.org/TR/2001/REC-SVG-20010904/DTD/svg10.dtd">
<svg version="1.0" xmlns="http://www.w3.org/2000/svg"
 width="512.000000pt" height="512.000000pt" viewBox="0 0 512.000000 512.000000"
 preserveAspectRatio="xMidYMid meet">
<g transform="translate(0.000000,512.000000) scale(0.100000,-0.100000)"
fill="#000000" stroke="none">
<path d="M1610 4339 c-24 -5 -63 -23 -85 -39 -60 -46 -135 -80 -177 -80 -45 0
      -54 -12 -33 -44 26 -39 67 -50 196 -50 103 -1 121 -4 146 -22 26 -20 28 -26
      31 -103 2 -44 1 -81 -2 -81 -18 0 -349 -75 -421 -96 -285 -81 -546 -200 -733
      -334 -46 -33 -85 -60 -88 -60 -2 0 -4 77 -4 171 l0 171 -42 -7 c-24 -3 -58 -9
      -76 -12 -18 -3 -69 -29 -113 -59 -76 -50 -92 -56 -188 -66 l-24 -3 28 -33 c41
      -49 58 -54 177 -53 94 1 117 -2 154 -20 l44 -21 0 -55 c0 -55 0 -56 -73 -133
      -83 -89 -161 -227 -177 -319 -40 -219 45 -440 244 -629 l76 -72 0 -165 c0 -91
      -4 -165 -8 -165 -4 0 -24 17 -43 38 -81 85 -128 162 -160 262 -17 52 -18 53
      -18 20 -2 -109 60 -249 164 -372 l65 -78 0 -152 -1 -153 -67 71 c-73 77 -123
      160 -147 245 l-15 54 5 -66 c7 -82 33 -162 79 -237 198 -324 697 -591 1351
      -722 l129 -26 10 -34 c5 -19 11 -37 12 -39 7 -9 94 23 94 34 0 6 -38 139 -85
      295 -47 156 -84 284 -83 286 6 4 259 55 348 69 183 29 443 40 642 27 101 -7
      226 -19 278 -27 89 -14 342 -65 348 -69 1 -2 -36 -130 -83 -286 -47 -156 -85
      -289 -85 -295 0 -11 61 -35 88 -35 5 0 14 17 19 37 l9 37 129 26 c393 79 741
      210 985 370 282 186 428 380 445 590 l5 65 -15 -54 c-25 -86 -75 -171 -147
      -246 l-67 -70 -1 153 0 152 65 78 c104 123 166 263 164 372 0 33 -1 31 -18
      -20 -10 -31 -32 -82 -49 -115 -32 -60 -135 -185 -153 -185 -5 0 -9 70 -9 161
      l0 162 83 81 c318 310 333 660 42 974 -51 56 -55 63 -55 110 0 49 1 51 44 71
      37 18 60 21 154 20 119 -1 136 4 177 53 l28 33 -24 3 c-96 10 -112 16 -188 67
      -52 34 -96 56 -124 60 -23 3 -57 9 -74 12 l-33 5 -2 -170 -3 -170 -80 59
      c-207 153 -681 341 -1005 399 -36 6 -87 16 -113 22 l-48 10 3 80 c3 76 5 82
      31 102 25 18 43 21 146 22 129 0 170 11 196 50 21 32 12 44 -33 44 -42 0 -117
      34 -177 79 -39 30 -113 51 -176 51 l-29 0 0 -210 c0 -115 -4 -210 -8 -210 -4
      0 -57 7 -117 15 -477 64 -993 60 -1492 -12 l-43 -6 0 212 0 211 -37 -1 c-21
      -1 -58 -5 -83 -10z m1205 -559 c183 -10 442 -36 482 -48 20 -7 7 -31 -190
      -364 l-212 -357 -55 7 c-71 9 -489 9 -560 0 l-55 -7 -212 357 c-199 335 -211
      357 -190 364 37 11 293 39 437 47 197 12 352 12 555 1z m-938 -420 c113 -190
      207 -350 209 -355 3 -6 -46 -20 -112 -33 -207 -41 -452 -134 -577 -221 l-41
      -28 -90 57 c-50 31 -235 146 -410 255 l-320 198 35 30 c54 46 217 151 304 195
      114 57 292 125 424 162 121 35 350 89 364 86 5 -1 101 -157 214 -346z m1707
      319 c364 -78 782 -257 960 -412 l40 -34 -320 -198 c-175 -109 -360 -224 -410
      -255 l-90 -57 -41 28 c-124 86 -367 179 -573 220 -63 12 -117 24 -119 25 -2 2
      240 415 401 682 13 22 26 31 37 28 9 -3 61 -15 115 -27z m-2729 -787 c209
      -129 386 -241 394 -248 13 -12 12 -16 -2 -31 -9 -10 -28 -45 -43 -77 -23 -51
      -26 -68 -22 -130 7 -101 63 -199 154 -267 24 -18 42 -34 40 -36 -2 -2 -79 21
      -172 52 -393 128 -683 318 -806 525 -52 88 -63 147 -43 239 24 114 82 229 108
      215 7 -4 183 -113 392 -242z m3861 166 c28 -55 54 -148 54 -194 0 -49 -36
      -155 -71 -208 -104 -156 -281 -290 -537 -406 -109 -49 -368 -140 -399 -140 -8
      0 4 16 27 35 140 117 186 263 124 395 -14 30 -33 63 -41 73 -11 12 -13 21 -6
      28 5 5 187 120 404 254 441 274 396 258 445 163z m-4009 -918 c59 -33 142 -74
      183 -91 41 -17 94 -39 118 -49 l42 -19 0 -165 c0 -91 -3 -166 -8 -166 -32 0
      -304 121 -393 175 l-59 36 0 170 c0 93 2 169 4 169 3 0 53 -27 113 -60z m3801
      -292 c-51 -40 -395 -198 -431 -198 -4 0 -6 75 -5 167 l3 167 60 24 c102 40
      233 102 313 148 l77 44 3 -167 c2 -164 2 -168 -20 -185z m-3233 63 c677 -195
      1623 -217 2355 -55 100 22 270 67 308 82 10 3 12 -31 10 -164 l-3 -168 -120
      -32 c-66 -17 -187 -44 -269 -59 l-150 -29 -110 24 c-516 108 -956 108 -1472 0
      l-110 -24 -150 29 c-82 15 -203 42 -269 59 l-120 32 -3 168 c-2 156 -1 167 15
      162 10 -2 50 -14 88 -25z m-590 -241 c76 -51 202 -119 303 -164 l62 -27 0
      -130 c0 -71 -2 -129 -4 -129 -2 0 -53 20 -113 44 -120 48 -187 80 -280 134
      l-63 36 0 149 c0 116 3 147 13 141 6 -4 44 -29 82 -54z m3828 -246 c-39 -29
      -215 -116 -322 -159 -62 -25 -115 -45 -117 -45 -2 0 -4 58 -4 129 l0 130 63
      27 c104 47 226 113 311 170 l81 54 3 -146 c2 -131 1 -148 -15 -160z m-3198
      -37 c61 -19 165 -47 232 -63 l121 -29 21 -70 c12 -38 28 -92 36 -119 l15 -48
      -48 7 c-70 10 -325 62 -385 79 -29 8 -71 20 -94 26 l-43 11 0 125 c0 115 1
      125 18 120 9 -3 67 -21 127 -39z m2635 -82 l0 -124 -42 -11 c-24 -6 -66 -18
      -95 -26 -60 -17 -315 -69 -385 -79 l-48 -7 15 48 c8 27 24 81 36 119 l20 70
      122 29 c67 15 176 45 242 66 66 21 123 39 128 39 4 1 7 -55 7 -124z"/>
</g>
</svg>
