<?xml version="1.0" standalone="no"?>
<!DOCTYPE svg PUBLIC "-//W3C//DTD SVG 20010904//EN"
 "http://www.w3.org/TR/2001/REC-SVG-20010904/DTD/svg10.dtd">
<svg version="1.0" xmlns="http://www.w3.org/2000/svg"
 width="512.000000pt" height="512.000000pt" viewBox="0 0 512.000000 512.000000"
 preserveAspectRatio="xMidYMid meet">

<g transform="translate(0.000000,512.000000) scale(0.100000,-0.100000)"
fill="#000000" stroke="none">
<path d="M2463 4550 c-117 -24 -245 -123 -296 -232 -33 -71 -48 -185 -35 -259
13 -73 61 -168 109 -215 21 -21 39 -42 39 -46 0 -4 -62 -8 -137 -8 l-138 0
-237 -238 c-302 -302 -294 -259 -90 -464 139 -138 151 -148 186 -148 33 0 47
8 107 67 l69 66 0 -340 0 -340 26 -27 27 -26 457 0 457 0 27 26 26 27 0 340 0
340 69 -66 c60 -59 74 -67 107 -67 35 0 47 10 186 148 204 204 212 162 -87
462 l-235 235 -140 3 c-77 2 -140 7 -140 11 0 4 12 18 26 32 78 72 123 179
125 297 6 272 -238 475 -508 422z m204 -196 c150 -71 183 -283 62 -403 -49
-50 -103 -71 -179 -71 -145 0 -252 106 -252 249 0 123 71 214 192 248 57 15
111 8 177 -23z m-11 -670 c26 -9 65 -27 86 -40 34 -22 48 -24 160 -24 l123 0
167 -167 c93 -92 168 -172 168 -178 0 -13 -112 -125 -125 -125 -5 0 -57 47
-115 105 -94 92 -111 105 -141 105 -74 -1 -89 -35 -89 -204 l0 -136 -340 0
-340 0 0 136 c0 169 -15 203 -89 204 -30 0 -47 -13 -141 -105 -58 -58 -110
-105 -115 -105 -13 0 -125 112 -125 125 0 5 75 85 167 177 l168 168 125 0
c116 0 128 2 161 24 80 55 203 71 295 40z m234 -1004 l0 -170 -340 0 -340 0 0
170 0 170 340 0 340 0 0 -170z"/>
<path d="M876 3340 c-114 -41 -196 -116 -250 -229 -28 -60 -31 -75 -31 -166 0
-74 5 -113 19 -150 22 -59 69 -129 109 -166 l29 -27 -141 -4 -141 -3 -235
-235 -235 -235 0 -44 c0 -43 3 -47 133 -178 72 -74 145 -141 161 -150 41 -22
71 -10 142 59 l63 60 3 -343 3 -344 -253 -255 c-249 -252 -252 -256 -252 -297
0 -31 6 -48 22 -63 l22 -20 2505 0 c1954 1 2509 3 2522 13 22 17 39 51 39 78
0 17 -73 97 -258 284 l-257 260 5 343 5 343 50 -51 c61 -63 98 -84 134 -75 32
8 295 266 312 306 6 16 9 39 5 51 -3 13 -111 129 -241 258 l-235 235 -140 3
-140 4 49 53 c83 92 118 194 108 320 -13 169 -124 310 -288 365 -52 18 -81 21
-155 18 -81 -3 -100 -8 -167 -41 -255 -126 -314 -460 -119 -669 l45 -48 -114
0 c-63 0 -130 -5 -149 -10 -26 -7 -87 -61 -240 -215 l-205 -205 -565 0 -565 0
-205 205 c-153 154 -214 208 -240 215 -19 5 -86 10 -148 10 l-114 0 48 53
c193 213 127 548 -133 670 -59 27 -81 32 -163 34 -76 3 -107 -1 -154 -17z
m227 -166 c54 -18 115 -73 142 -129 26 -54 27 -166 1 -215 -25 -49 -74 -98
-121 -123 -56 -30 -164 -30 -221 0 -97 51 -139 122 -139 233 0 64 4 82 28 122
64 109 188 154 310 112z m3112 -18 c174 -102 164 -352 -19 -449 -57 -30 -165
-30 -221 0 -47 25 -96 74 -121 123 -26 49 -25 161 1 215 26 53 87 110 138 129
64 24 164 16 222 -18z m-3030 -696 c79 -40 81 -40 195 -40 l115 0 168 -168
167 -167 -68 -68 -67 -67 -95 96 c-52 52 -108 102 -124 111 -33 17 -68 11 -96
-17 -18 -18 -20 -34 -20 -165 l0 -145 -345 0 -345 0 0 143 c0 141 -1 144 -25
167 -17 16 -37 24 -61 24 -31 0 -47 -12 -144 -109 l-110 -110 -67 68 -68 67
170 170 170 170 116 0 c112 0 119 1 175 32 132 71 228 74 359 8z m3065 3 c72
-37 78 -38 196 -41 l121 -4 169 -169 169 -169 -68 -67 -67 -68 -110 110 c-97
97 -113 109 -144 109 -24 0 -44 -8 -61 -24 -24 -23 -25 -26 -25 -167 l0 -143
-345 0 -345 0 0 145 c0 131 -2 147 -20 165 -28 28 -63 34 -96 17 -16 -9 -72
-59 -124 -111 l-95 -96 -67 67 -68 68 167 167 168 168 116 0 c112 0 120 1 175
31 133 71 230 74 354 12z m-1025 -582 c66 -66 133 -125 148 -130 43 -17 69 -5
133 60 l59 60 5 -335 5 -336 28 -27 27 -28 383 -3 383 -3 209 -209 210 -210
-641 0 -641 0 -162 244 c-103 154 -171 248 -187 255 -35 16 -1233 16 -1268 0
-16 -7 -84 -101 -187 -255 l-162 -244 -641 0 -641 0 210 210 209 209 383 3
383 3 27 28 28 27 5 336 5 335 59 -60 c32 -33 70 -62 83 -66 40 -10 84 20 203
140 l115 115 554 0 555 0 121 -119z m-1870 -396 l0 -170 -340 0 -340 0 -3 160
c-1 87 0 165 2 172 4 11 73 13 343 11 l338 -3 0 -170z m3070 0 l0 -170 -340 0
-340 0 -3 160 c-1 87 0 165 2 172 4 11 73 13 343 11 l338 -3 0 -170z m-1215
-590 c60 -90 110 -167 110 -170 0 -3 -346 -5 -770 -5 -423 0 -770 2 -770 5 0
3 50 80 110 170 l110 165 550 0 550 0 110 -165z"/>
</g>
</svg>
