<svg xmlns="http://www.w3.org/2000/svg" xmlns:xlink="http://www.w3.org/1999/xlink" width="350" zoomAndPan="magnify" viewBox="0 0 262.5 149.999998" height="200" preserveAspectRatio="xMidYMid meet" version="1.0"><defs><g/><clipPath id="fed44b1f66"><path d="M 74.574219 1.523438 L 177.40625 1.523438 L 177.40625 104.355469 L 74.574219 104.355469 Z M 74.574219 1.523438 " clip-rule="nonzero"/></clipPath><clipPath id="aa8a095550"><path d="M 8 45 L 259 45 L 259 149 L 8 149 Z M 8 45 " clip-rule="nonzero"/></clipPath><clipPath id="2eea7f136e"><path d="M 3 61.734375 L 253.628906 44.757812 L 259.535156 131.964844 L 8.90625 148.941406 Z M 3 61.734375 " clip-rule="nonzero"/></clipPath><clipPath id="597cbd7fc9"><path d="M 259.488281 131.785156 L 8.859375 148.757812 L 2.953125 61.550781 L 253.582031 44.578125 Z M 259.488281 131.785156 " clip-rule="nonzero"/></clipPath></defs><path fill="#00025d" d="M 125.84375 20.328125 L 119.085938 36.835938 L 99.734375 39.0625 L 114.234375 50.375 L 108.871094 69.242188 L 125.457031 58.335938 L 141.507812 70.390625 L 137 50.351562 L 152.257812 39.292969 L 132.753906 36.964844 Z M 125.84375 20.328125 " fill-opacity="1" fill-rule="nonzero"/><g clip-path="url(#fed44b1f66)"><path fill="#00025d" d="M 126.003906 1.535156 C 97.660156 1.535156 74.597656 24.597656 74.597656 52.941406 C 74.597656 81.269531 97.660156 104.332031 126.003906 104.332031 C 154.332031 104.332031 177.394531 81.269531 177.394531 52.941406 C 177.394531 24.597656 154.332031 1.535156 126.003906 1.535156 Z M 161.875 84.058594 C 161.875 84.058594 166.875 73.617188 167.871094 65.484375 C 163.496094 73.382812 155.734375 80.066406 155.734375 80.066406 L 142.453125 71.539062 L 145.070312 87.820312 C 140.769531 90.4375 126.378906 94.835938 126.378906 94.835938 C 126.378906 94.835938 138.621094 96.960938 144.222656 95.582031 C 144.097656 97.710938 142.5625 100.167969 141.875 101.175781 C 136.886719 102.820312 131.542969 103.71875 126.003906 103.71875 C 119.675781 103.71875 113.605469 102.550781 108.015625 100.425781 L 104.773438 94.980469 C 104.773438 94.980469 110.578125 95.476562 113.371094 95.464844 C 116.167969 95.449219 123.761719 94.898438 123.761719 94.898438 C 123.761719 94.898438 107.917969 89.835938 105.460938 87.378906 L 107.070312 71.097656 L 94.167969 79.390625 C 91.332031 77.167969 84.339844 67.179688 82.570312 64.488281 C 82.878906 69.253906 86.652344 80.238281 88.1875 82.304688 C 88.1875 82.304688 87.4375 82.84375 85.359375 83.359375 C 78.996094 74.882812 75.210938 64.339844 75.210938 52.941406 C 75.210938 51.390625 75.285156 49.855469 75.421875 48.34375 C 75.800781 47.621094 76.378906 46.648438 76.957031 46.207031 C 76.957031 46.207031 76.957031 52.878906 81.492188 61.332031 C 81.332031 51.355469 82.253906 42.59375 82.253906 42.59375 C 84.871094 40.984375 88.53125 39.523438 97.019531 37.988281 L 87.09375 29.488281 C 87.09375 29.488281 93.078125 18.871094 98.148438 14.03125 C 90.53125 18.085938 86.515625 22.015625 84.179688 25.703125 L 83.765625 24.769531 C 90.925781 14.066406 102.03125 6.230469 114.992188 3.355469 L 115.867188 3.589844 C 115.867188 3.589844 104.90625 7.507812 100.816406 12.496094 C 105.902344 9.855469 119.195312 6.660156 119.195312 6.660156 L 125.511719 18.121094 L 131.578125 7.484375 C 131.578125 7.484375 142.144531 9.117188 150.203125 13.183594 C 147.21875 9.804688 136.234375 3.847656 136.234375 3.847656 L 138.3125 3.664062 C 150.734375 6.769531 161.371094 14.472656 168.289062 24.855469 L 168.386719 27.449219 C 168.386719 27.449219 158.449219 15.972656 152.921875 14.4375 C 158.65625 20.320312 163.976562 30.003906 163.976562 30.003906 L 153.644531 39.21875 L 167.96875 43.113281 C 167.96875 43.113281 170.425781 54.671875 168.890625 63.273438 C 172.269531 58.664062 174.320312 46.28125 174.320312 46.28125 L 176.621094 48.910156 C 176.730469 50.238281 176.777344 51.589844 176.777344 52.941406 C 176.777344 64.832031 172.664062 75.804688 165.769531 84.464844 Z M 161.875 84.058594 " fill-opacity="1" fill-rule="nonzero"/></g><g clip-path="url(#aa8a095550)"><g clip-path="url(#2eea7f136e)"><g clip-path="url(#597cbd7fc9)"><path fill="#00025d" d="M 258.027344 110.679688 L 8.871094 148.757812 L 18.703125 65.394531 L 236.417969 45.71875 Z M 258.027344 110.679688 " fill-opacity="1" fill-rule="nonzero"/></g></g></g><g fill="#7ed957" fill-opacity="1"><g transform="translate(26.863131, 84.736304)"><g><path d="M 0.691406 0 L 23.929688 0 L 23.929688 -40.269531 L 13 -40.269531 L 13 -12.425781 L 11.621094 -12.425781 L 11.621094 -18.464844 L 0.691406 -18.464844 Z M 0.691406 0 "/></g></g></g><g fill="#7ed957" fill-opacity="1"><g transform="translate(51.484466, 84.736304)"><g><path d="M 0.691406 -40.269531 L 0.691406 0 L 23.929688 0 L 23.929688 -40.269531 Z M 13 -12.425781 L 11.621094 -12.425781 L 11.621094 -27.324219 L 13 -27.324219 Z M 13 -12.425781 "/></g></g></g><g fill="#7ed957" fill-opacity="1"><g transform="translate(76.105801, 84.736304)"><g><path d="M 11.621094 -27.785156 L 23.929688 -27.785156 L 23.929688 -40.269531 L 0.691406 -40.269531 L 0.691406 0 L 23.929688 0 L 23.929688 -26.40625 L 13 -26.40625 L 13 -12.425781 L 11.621094 -12.425781 Z M 11.621094 -27.785156 "/></g></g></g><g fill="#7ed957" fill-opacity="1"><g transform="translate(100.727136, 84.736304)"><g><path d="M 0.691406 -40.269531 L 0.691406 0 L 11.621094 0 L 11.621094 -11.332031 L 13 -11.332031 L 13 0 L 23.929688 0 L 23.929688 -40.269531 Z M 13 -19.617188 L 11.621094 -19.617188 L 11.621094 -27.324219 L 13 -27.324219 Z M 13 -19.617188 "/></g></g></g><path stroke-linecap="butt" transform="matrix(0.553139, 0, 0, 0.553139, 20.622245, 22.308617)" fill="none" stroke-linejoin="miter" d="M 8.662958 109.00148 L 50.688747 109.00148 L 50.688747 36.206683 L 30.936414 36.206683 L 30.936414 86.530288 L 28.422353 86.530288 L 28.422353 75.612481 L 8.662958 75.612481 Z M 53.174561 36.206683 L 53.174561 109.00148 L 95.20035 109.00148 L 95.20035 36.206683 Z M 75.448017 86.530288 L 72.933956 86.530288 L 72.933956 59.588869 L 75.448017 59.588869 Z M 117.445559 58.776742 L 139.711953 58.776742 L 139.711953 36.206683 L 97.693226 36.206683 L 97.693226 109.00148 L 139.711953 109.00148 L 139.711953 61.262556 L 119.95962 61.262556 L 119.95962 86.530288 L 117.445559 86.530288 Z M 142.204829 36.206683 L 142.204829 109.00148 L 161.957162 109.00148 L 161.957162 88.50764 L 164.471223 88.50764 L 164.471223 109.00148 L 184.223556 109.00148 L 184.223556 36.206683 Z M 164.471223 73.5292 L 161.957162 73.5292 L 161.957162 59.588869 L 164.471223 59.588869 Z M 164.471223 73.5292 " stroke="#00025d" stroke-width="3.9" stroke-opacity="1" stroke-miterlimit="4"/><g fill="#16a34a" fill-opacity="1"><g transform="translate(134.449976, 84.085922)"><g><path d="M 19.726562 -42.488281 L -3.394531 -40.132812 L 0.6875 -0.0703125 L 23.808594 -2.425781 L 21.808594 -22.054688 L 18.316406 -21.699219 L 18.175781 -22.496094 L 21.726562 -22.855469 Z M 10.460938 -25.582031 L 9.085938 -25.445312 L 8.324219 -32.941406 L 9.695312 -33.082031 Z M 12.019531 -10.304688 L 10.644531 -10.164062 L 9.878906 -17.660156 L 11.253906 -17.800781 Z M 12.019531 -10.304688 "/></g></g></g><g fill="#16a34a" fill-opacity="1"><g transform="translate(158.944452, 81.589771)"><g><path d="M -3.394531 -40.132812 L 0.6875 -0.0703125 L 23.808594 -2.425781 L 19.726562 -42.488281 Z M 11.675781 -13.679688 L 10.300781 -13.539062 L 8.789062 -28.363281 L 10.164062 -28.503906 Z M 11.675781 -13.679688 "/></g></g></g><g fill="#16a34a" fill-opacity="1"><g transform="translate(183.438928, 79.09362)"><g><path d="M 23.234375 -2.367188 L 22.382812 -10.722656 L 10.707031 -9.535156 L 7.476562 -41.238281 L -3.394531 -40.132812 L 0.6875 -0.0703125 Z M 23.234375 -2.367188 "/></g></g></g><g fill="#16a34a" fill-opacity="1"><g transform="translate(207.361107, 76.655789)"><g><path d="M -3.394531 -40.132812 L 0.6875 -0.0703125 L 11.558594 -1.179688 L 10.410156 -12.453125 L 11.785156 -12.59375 L 12.933594 -1.316406 L 23.808594 -2.425781 L 19.726562 -42.488281 Z M 10.945312 -20.832031 L 9.570312 -20.695312 L 8.789062 -28.363281 L 10.164062 -28.503906 Z M 10.945312 -20.832031 "/></g></g></g><path stroke-linecap="butt" transform="matrix(0.550289, -0.0560781, 0.0560781, 0.550289, 122.638327, 22.691934)" fill="none" stroke-linejoin="miter" d="M 49.674662 36.202541 L 7.650762 36.207545 L 7.650388 109.003092 L 49.674287 108.998088 L 49.674858 73.327954 L 43.321807 73.326504 L 43.221251 71.875251 L 49.673375 71.8797 Z M 29.919782 64.897694 L 27.40695 64.897168 L 27.40242 51.288794 L 29.915251 51.289321 Z M 29.914436 92.673758 L 27.401604 92.673232 L 27.406963 79.037472 L 29.919795 79.037998 Z M 52.158675 36.20723 L 52.165326 109.003492 L 94.1822 108.997772 L 94.182574 36.202225 Z M 74.431139 86.526998 L 71.918307 86.526471 L 71.916452 59.587302 L 74.429284 59.587828 Z M 137.653638 108.99831 L 137.653487 93.814506 L 116.428622 93.816606 L 116.429147 36.204864 L 96.673613 36.20763 L 96.673239 109.003176 Z M 140.145051 36.208168 L 140.145393 108.996689 L 159.900211 109.000949 L 159.901649 88.507595 L 162.41448 88.508121 L 162.413043 109.001476 L 182.168577 108.99871 L 182.168951 36.203164 Z M 162.414643 73.530207 L 159.901812 73.52968 L 159.902829 59.58824 L 162.41566 59.588767 Z M 162.414643 73.530207 " stroke="#00025d" stroke-width="5.85" stroke-opacity="1" stroke-miterlimit="4"/><g fill="#000000" fill-opacity="1"><g transform="translate(33.400508, 121.69912)"><g><path d="M 7.960938 -7.277344 L 7.722656 -9.195312 L -0.394531 -8.191406 L 0.605469 -0.0742188 L 8.722656 -1.074219 L 8.488281 -2.988281 L 2.285156 -2.226562 L 2.136719 -3.414062 L 8.34375 -4.175781 L 8.105469 -6.089844 L 1.902344 -5.328125 L 1.757812 -6.515625 Z M 7.960938 -7.277344 "/></g></g></g><g fill="#000000" fill-opacity="1"><g transform="translate(43.185622, 120.493383)"><g><path d="M 5.808594 -8.957031 L 6.347656 -4.582031 L 1.683594 -7.097656 L 1.519531 -8.429688 L -0.394531 -8.191406 L 0.605469 -0.0742188 L 2.519531 -0.3125 L 1.984375 -4.671875 L 6.648438 -2.160156 L 6.808594 -0.839844 L 8.640625 -1.066406 L 8.730469 -1.015625 L 7.722656 -9.195312 Z M 5.808594 -8.957031 "/></g></g></g><g fill="#000000" fill-opacity="1"><g transform="translate(52.970736, 119.287645)"><g><path d="M -0.394531 -8.191406 L 0.605469 -0.0742188 L 8.722656 -1.074219 L 8.488281 -2.988281 L 2.285156 -2.226562 L 1.757812 -6.515625 L 7.960938 -7.277344 L 7.722656 -9.195312 Z M -0.394531 -8.191406 "/></g></g></g><g fill="#000000" fill-opacity="1"><g transform="translate(62.755848, 118.081908)"><g><path d="M 1.757812 -6.515625 L 6.046875 -7.042969 L 6.574219 -2.753906 L 2.285156 -2.226562 Z M 0.605469 -0.0742188 L 8.722656 -1.074219 L 7.722656 -9.195312 L -0.394531 -8.191406 Z M 0.605469 -0.0742188 "/></g></g></g><g fill="#000000" fill-opacity="1"><g transform="translate(72.540963, 116.876171)"><g><path d="M 5.808594 -8.957031 L 6.347656 -4.582031 L 1.683594 -7.097656 L 1.519531 -8.429688 L -0.394531 -8.191406 L 0.605469 -0.0742188 L 2.519531 -0.3125 L 1.984375 -4.671875 L 6.648438 -2.160156 L 6.808594 -0.839844 L 8.640625 -1.066406 L 8.730469 -1.015625 L 7.722656 -9.195312 Z M 5.808594 -8.957031 "/></g></g></g><g fill="#000000" fill-opacity="1"><g transform="translate(82.326078, 115.670433)"><g><path d="M -0.394531 -8.191406 L -0.160156 -6.277344 L 2.941406 -6.660156 L 3.707031 -0.457031 L 5.621094 -0.691406 L 4.859375 -6.898438 L 7.960938 -7.277344 L 7.722656 -9.195312 Z M -0.394531 -8.191406 "/></g></g></g><g fill="#000000" fill-opacity="1"><g transform="translate(92.111193, 114.464696)"><g><path d="M -0.394531 -8.191406 L 0.605469 -0.0742188 L 2.519531 -0.3125 L 2.328125 -1.863281 L 4.667969 -2.148438 L 6.375 -0.785156 L 8.699219 -1.070312 L 6.96875 -2.433594 L 8.53125 -2.625 L 7.722656 -9.195312 Z M 2.09375 -3.777344 L 1.757812 -6.515625 L 6.046875 -7.042969 L 6.382812 -4.304688 Z M 2.09375 -3.777344 "/></g></g></g><g fill="#000000" fill-opacity="1"><g transform="translate(101.896304, 113.258959)"><g><path d="M 7.960938 -7.277344 L 7.722656 -9.195312 L -0.394531 -8.191406 L 0.605469 -0.0742188 L 8.722656 -1.074219 L 8.488281 -2.988281 L 2.285156 -2.226562 L 2.136719 -3.414062 L 8.34375 -4.175781 L 8.105469 -6.089844 L 1.902344 -5.328125 L 1.757812 -6.515625 Z M 7.960938 -7.277344 "/></g></g></g><g fill="#000000" fill-opacity="1"><g transform="translate(111.681419, 112.053222)"><g/></g></g><g fill="#000000" fill-opacity="1"><g transform="translate(119.407543, 111.101196)"><g><path d="M 2.839844 -9.183594 L 4.757812 -9.417969 L 4.121094 -11.285156 L 2.207031 -11.046875 Z M 0.605469 -0.0742188 L 2.519531 -0.3125 L 2.328125 -1.863281 L 6.617188 -2.390625 L 6.808594 -0.839844 L 8.722656 -1.074219 L 7.722656 -9.195312 L -0.394531 -8.191406 Z M 2.09375 -3.777344 L 1.757812 -6.515625 L 6.046875 -7.042969 L 6.382812 -4.304688 Z M 2.09375 -3.777344 "/></g></g></g><g fill="#000000" fill-opacity="1"><g transform="translate(129.192658, 109.895459)"><g/></g></g><g fill="#000000" fill-opacity="1"><g transform="translate(136.918781, 108.943434)"><g><path d="M 0.371094 -1.988281 L 0.605469 -0.0742188 L 8.722656 -1.074219 L 8.105469 -6.089844 L 1.902344 -5.328125 L 1.757812 -6.515625 L 7.960938 -7.277344 L 7.722656 -9.195312 L -0.394531 -8.191406 L 0.222656 -3.175781 L 6.425781 -3.941406 L 6.574219 -2.753906 Z M 0.371094 -1.988281 "/></g></g></g><g fill="#000000" fill-opacity="1"><g transform="translate(146.703896, 107.737696)"><g><path d="M 1.519531 -8.429688 L -0.394531 -8.191406 L 0.605469 -0.0742188 L 8.722656 -1.074219 L 7.722656 -9.195312 L 5.808594 -8.957031 L 6.574219 -2.753906 L 2.285156 -2.226562 Z M 1.519531 -8.429688 "/></g></g></g><g fill="#000000" fill-opacity="1"><g transform="translate(156.489011, 106.531959)"><g><path d="M 7.722656 -9.195312 L -0.394531 -8.191406 L 0.605469 -0.0742188 L 2.519531 -0.3125 L 2.328125 -1.863281 L 6.617188 -2.390625 L 6.808594 -0.839844 L 8.722656 -1.074219 Z M 2.09375 -3.777344 L 1.757812 -6.515625 L 6.046875 -7.042969 L 6.382812 -4.304688 Z M 2.09375 -3.777344 "/></g></g></g><g fill="#000000" fill-opacity="1"><g transform="translate(166.274118, 105.326222)"><g/></g></g><g fill="#000000" fill-opacity="1"><g transform="translate(174.000242, 104.374197)"><g><path d="M 10.824219 -9.574219 L -0.394531 -8.191406 L 0.605469 -0.0742188 L 2.519531 -0.3125 L 1.757812 -6.515625 L 4.496094 -6.839844 L 5.257812 -0.648438 L 7.171875 -0.882812 L 6.410156 -7.074219 L 9.148438 -7.425781 L 9.910156 -1.222656 L 11.828125 -1.457031 Z M 10.824219 -9.574219 "/></g></g></g><g fill="#000000" fill-opacity="1"><g transform="translate(186.885956, 102.786399)"><g><path d="M 7.722656 -9.195312 L -0.394531 -8.191406 L 0.605469 -0.0742188 L 2.519531 -0.3125 L 2.328125 -1.863281 L 6.617188 -2.390625 L 6.808594 -0.839844 L 8.722656 -1.074219 Z M 2.09375 -3.777344 L 1.757812 -6.515625 L 6.046875 -7.042969 L 6.382812 -4.304688 Z M 2.09375 -3.777344 "/></g></g></g><g fill="#000000" fill-opacity="1"><g transform="translate(196.671071, 101.580662)"><g><path d="M 8.722656 -1.074219 L 8.488281 -2.988281 L 2.285156 -2.226562 L 1.519531 -8.429688 L -0.394531 -8.191406 L 0.605469 -0.0742188 Z M 8.722656 -1.074219 "/></g></g></g><g fill="#000000" fill-opacity="1"><g transform="translate(206.456186, 100.374924)"><g><path d="M -0.394531 -8.191406 L -0.160156 -6.277344 L 2.941406 -6.660156 L 3.707031 -0.457031 L 5.621094 -0.691406 L 4.859375 -6.898438 L 7.960938 -7.277344 L 7.722656 -9.195312 Z M -0.394531 -8.191406 "/></g></g></g><g fill="#000000" fill-opacity="1"><g transform="translate(216.2413, 99.169187)"><g><path d="M 7.722656 -9.195312 L -0.394531 -8.191406 L 0.605469 -0.0742188 L 2.519531 -0.3125 L 2.328125 -1.863281 L 6.617188 -2.390625 L 6.808594 -0.839844 L 8.722656 -1.074219 Z M 2.09375 -3.777344 L 1.757812 -6.515625 L 6.046875 -7.042969 L 6.382812 -4.304688 Z M 2.09375 -3.777344 "/></g></g></g><g fill="#000000" fill-opacity="1"><g transform="translate(226.026415, 97.96345)"><g><path d="M 1.519531 -8.429688 L -0.394531 -8.191406 L 0.222656 -3.175781 L 2.136719 -3.414062 Z M 0.605469 -0.0742188 L 2.519531 -0.3125 L 2.285156 -2.226562 L 0.371094 -1.988281 Z M 0.605469 -0.0742188 "/></g></g></g><g fill="#7ed957" fill-opacity="1"><g transform="translate(33.939245, 120.765069)"><g><path d="M 7.960938 -7.277344 L 7.722656 -9.195312 L -0.394531 -8.191406 L 0.605469 -0.0742188 L 8.722656 -1.074219 L 8.488281 -2.988281 L 2.285156 -2.226562 L 2.136719 -3.414062 L 8.34375 -4.175781 L 8.105469 -6.089844 L 1.902344 -5.328125 L 1.757812 -6.515625 Z M 7.960938 -7.277344 "/></g></g></g><g fill="#7ed957" fill-opacity="1"><g transform="translate(43.724359, 119.559332)"><g><path d="M 5.808594 -8.957031 L 6.347656 -4.582031 L 1.683594 -7.097656 L 1.519531 -8.429688 L -0.394531 -8.191406 L 0.605469 -0.0742188 L 2.519531 -0.3125 L 1.984375 -4.671875 L 6.648438 -2.160156 L 6.808594 -0.839844 L 8.640625 -1.066406 L 8.730469 -1.015625 L 7.722656 -9.195312 Z M 5.808594 -8.957031 "/></g></g></g><g fill="#7ed957" fill-opacity="1"><g transform="translate(53.509473, 118.353595)"><g><path d="M -0.394531 -8.191406 L 0.605469 -0.0742188 L 8.722656 -1.074219 L 8.488281 -2.988281 L 2.285156 -2.226562 L 1.757812 -6.515625 L 7.960938 -7.277344 L 7.722656 -9.195312 Z M -0.394531 -8.191406 "/></g></g></g><g fill="#7ed957" fill-opacity="1"><g transform="translate(63.294586, 117.147858)"><g><path d="M 1.757812 -6.515625 L 6.046875 -7.042969 L 6.574219 -2.753906 L 2.285156 -2.226562 Z M 0.605469 -0.0742188 L 8.722656 -1.074219 L 7.722656 -9.195312 L -0.394531 -8.191406 Z M 0.605469 -0.0742188 "/></g></g></g><g fill="#7ed957" fill-opacity="1"><g transform="translate(73.079701, 115.94212)"><g><path d="M 5.808594 -8.957031 L 6.347656 -4.582031 L 1.683594 -7.097656 L 1.519531 -8.429688 L -0.394531 -8.191406 L 0.605469 -0.0742188 L 2.519531 -0.3125 L 1.984375 -4.671875 L 6.648438 -2.160156 L 6.808594 -0.839844 L 8.640625 -1.066406 L 8.730469 -1.015625 L 7.722656 -9.195312 Z M 5.808594 -8.957031 "/></g></g></g><g fill="#7ed957" fill-opacity="1"><g transform="translate(82.864816, 114.736383)"><g><path d="M -0.394531 -8.191406 L -0.160156 -6.277344 L 2.941406 -6.660156 L 3.707031 -0.457031 L 5.621094 -0.691406 L 4.859375 -6.898438 L 7.960938 -7.277344 L 7.722656 -9.195312 Z M -0.394531 -8.191406 "/></g></g></g><g fill="#7ed957" fill-opacity="1"><g transform="translate(92.649931, 113.530645)"><g><path d="M -0.394531 -8.191406 L 0.605469 -0.0742188 L 2.519531 -0.3125 L 2.328125 -1.863281 L 4.667969 -2.148438 L 6.375 -0.785156 L 8.699219 -1.070312 L 6.96875 -2.433594 L 8.53125 -2.625 L 7.722656 -9.195312 Z M 2.09375 -3.777344 L 1.757812 -6.515625 L 6.046875 -7.042969 L 6.382812 -4.304688 Z M 2.09375 -3.777344 "/></g></g></g><g fill="#7ed957" fill-opacity="1"><g transform="translate(102.435042, 112.324909)"><g><path d="M 7.960938 -7.277344 L 7.722656 -9.195312 L -0.394531 -8.191406 L 0.605469 -0.0742188 L 8.722656 -1.074219 L 8.488281 -2.988281 L 2.285156 -2.226562 L 2.136719 -3.414062 L 8.34375 -4.175781 L 8.105469 -6.089844 L 1.902344 -5.328125 L 1.757812 -6.515625 Z M 7.960938 -7.277344 "/></g></g></g><g fill="#7ed957" fill-opacity="1"><g transform="translate(112.220157, 111.119171)"><g/></g></g><g fill="#7ed957" fill-opacity="1"><g transform="translate(119.94628, 110.167146)"><g><path d="M 2.839844 -9.183594 L 4.757812 -9.417969 L 4.121094 -11.285156 L 2.207031 -11.046875 Z M 0.605469 -0.0742188 L 2.519531 -0.3125 L 2.328125 -1.863281 L 6.617188 -2.390625 L 6.808594 -0.839844 L 8.722656 -1.074219 L 7.722656 -9.195312 L -0.394531 -8.191406 Z M 2.09375 -3.777344 L 1.757812 -6.515625 L 6.046875 -7.042969 L 6.382812 -4.304688 Z M 2.09375 -3.777344 "/></g></g></g><g fill="#7ed957" fill-opacity="1"><g transform="translate(129.731395, 108.961409)"><g/></g></g><g fill="#7ed957" fill-opacity="1"><g transform="translate(137.457519, 108.009383)"><g><path d="M 0.371094 -1.988281 L 0.605469 -0.0742188 L 8.722656 -1.074219 L 8.105469 -6.089844 L 1.902344 -5.328125 L 1.757812 -6.515625 L 7.960938 -7.277344 L 7.722656 -9.195312 L -0.394531 -8.191406 L 0.222656 -3.175781 L 6.425781 -3.941406 L 6.574219 -2.753906 Z M 0.371094 -1.988281 "/></g></g></g><g fill="#7ed957" fill-opacity="1"><g transform="translate(147.242634, 106.803646)"><g><path d="M 1.519531 -8.429688 L -0.394531 -8.191406 L 0.605469 -0.0742188 L 8.722656 -1.074219 L 7.722656 -9.195312 L 5.808594 -8.957031 L 6.574219 -2.753906 L 2.285156 -2.226562 Z M 1.519531 -8.429688 "/></g></g></g><g fill="#7ed957" fill-opacity="1"><g transform="translate(157.027749, 105.597909)"><g><path d="M 7.722656 -9.195312 L -0.394531 -8.191406 L 0.605469 -0.0742188 L 2.519531 -0.3125 L 2.328125 -1.863281 L 6.617188 -2.390625 L 6.808594 -0.839844 L 8.722656 -1.074219 Z M 2.09375 -3.777344 L 1.757812 -6.515625 L 6.046875 -7.042969 L 6.382812 -4.304688 Z M 2.09375 -3.777344 "/></g></g></g><g fill="#7ed957" fill-opacity="1"><g transform="translate(166.812856, 104.392172)"><g/></g></g><g fill="#7ed957" fill-opacity="1"><g transform="translate(174.53898, 103.440147)"><g><path d="M 10.824219 -9.574219 L -0.394531 -8.191406 L 0.605469 -0.0742188 L 2.519531 -0.3125 L 1.757812 -6.515625 L 4.496094 -6.839844 L 5.257812 -0.648438 L 7.171875 -0.882812 L 6.410156 -7.074219 L 9.148438 -7.425781 L 9.910156 -1.222656 L 11.828125 -1.457031 Z M 10.824219 -9.574219 "/></g></g></g><g fill="#7ed957" fill-opacity="1"><g transform="translate(187.424693, 101.852349)"><g><path d="M 7.722656 -9.195312 L -0.394531 -8.191406 L 0.605469 -0.0742188 L 2.519531 -0.3125 L 2.328125 -1.863281 L 6.617188 -2.390625 L 6.808594 -0.839844 L 8.722656 -1.074219 Z M 2.09375 -3.777344 L 1.757812 -6.515625 L 6.046875 -7.042969 L 6.382812 -4.304688 Z M 2.09375 -3.777344 "/></g></g></g><g fill="#7ed957" fill-opacity="1"><g transform="translate(197.209808, 100.646611)"><g><path d="M 8.722656 -1.074219 L 8.488281 -2.988281 L 2.285156 -2.226562 L 1.519531 -8.429688 L -0.394531 -8.191406 L 0.605469 -0.0742188 Z M 8.722656 -1.074219 "/></g></g></g><g fill="#7ed957" fill-opacity="1"><g transform="translate(206.994923, 99.440874)"><g><path d="M -0.394531 -8.191406 L -0.160156 -6.277344 L 2.941406 -6.660156 L 3.707031 -0.457031 L 5.621094 -0.691406 L 4.859375 -6.898438 L 7.960938 -7.277344 L 7.722656 -9.195312 Z M -0.394531 -8.191406 "/></g></g></g><g fill="#7ed957" fill-opacity="1"><g transform="translate(216.780038, 98.235137)"><g><path d="M 7.722656 -9.195312 L -0.394531 -8.191406 L 0.605469 -0.0742188 L 2.519531 -0.3125 L 2.328125 -1.863281 L 6.617188 -2.390625 L 6.808594 -0.839844 L 8.722656 -1.074219 Z M 2.09375 -3.777344 L 1.757812 -6.515625 L 6.046875 -7.042969 L 6.382812 -4.304688 Z M 2.09375 -3.777344 "/></g></g></g><g fill="#7ed957" fill-opacity="1"><g transform="translate(226.565153, 97.029399)"><g><path d="M 1.519531 -8.429688 L -0.394531 -8.191406 L 0.222656 -3.175781 L 2.136719 -3.414062 Z M 0.605469 -0.0742188 L 2.519531 -0.3125 L 2.285156 -2.226562 L 0.371094 -1.988281 Z M 0.605469 -0.0742188 "/></g></g></g></svg>